<?xml version="1.0" encoding="UTF-8" standalone="no"?><svg xmlns="http://www.w3.org/2000/svg" xmlns:xlink="http://www.w3.org/1999/xlink" contentScriptType="application/ecmascript" contentStyleType="text/css" height="684px" preserveAspectRatio="none" style="width:1504px;height:684px;" version="1.1" viewBox="0 0 1504 684" width="1504px" zoomAndPan="magnify"><defs><filter height="300%" id="f60gv9999g5rd" width="300%" x="-1" y="-1"><feGaussianBlur result="blurOut" stdDeviation="2.0"/><feColorMatrix in="blurOut" result="blurOut2" type="matrix" values="0 0 0 0 0 0 0 0 0 0 0 0 0 0 0 0 0 0 .4 0"/><feOffset dx="4.0" dy="4.0" in="blurOut2" result="blurOut3"/><feBlend in="SourceGraphic" in2="blurOut3" mode="normal"/></filter></defs><g><text fill="#000000" font-family="sans-serif" font-size="18" lengthAdjust="spacingAndGlyphs" text-decoration="underline" textLength="262" x="623" y="16.708">COMPONENT's Class Diagram</text><text fill="#000000" font-family="sans-serif" font-size="18" lengthAdjust="spacingAndGlyphs" textLength="0" x="757" y="37.6611"/><!--cluster Component--><polygon fill="#FFFFFF" filter="url(#f60gv9999g5rd)" points="14,57.9063,111,57.9063,118,80.2031,1482,80.2031,1482,542.9063,14,542.9063,14,57.9063" style="stroke: #000000; stroke-width: 1.5;"/><line style="stroke: #000000; stroke-width: 1.5;" x1="14" x2="118" y1="80.2031" y2="80.2031"/><text fill="#000000" font-family="sans-serif" font-size="14" font-weight="bold" lengthAdjust="spacingAndGlyphs" textLength="91" x="18" y="72.9014">Component</text><!--cluster System--><polygon fill="#FFFFFF" filter="url(#f60gv9999g5rd)" points="707,589.9063,771,589.9063,778,612.2031,805,612.2031,805,672.9063,707,672.9063,707,589.9063" style="stroke: #000000; stroke-width: 1.5;"/><line style="stroke: #000000; stroke-width: 1.5;" x1="707" x2="778" y1="612.2031" y2="612.2031"/><text fill="#000000" font-family="sans-serif" font-size="14" font-weight="bold" lengthAdjust="spacingAndGlyphs" textLength="58" x="711" y="604.9014">System</text><!--class Component.AlarmControlComponent--><rect fill="#FEFECE" filter="url(#f60gv9999g5rd)" height="124.8281" id="Component.AlarmControlComponent" style="stroke: #A80036; stroke-width: 1.5;" width="184" x="22" y="403.4063"/><ellipse cx="37" cy="419.4063" fill="#ADD1B2" rx="11" ry="11" style="stroke: #A80036; stroke-width: 1.0;"/><path d="M39.9688,425.0469 Q39.3906,425.3438 38.75,425.4922 Q38.1094,425.6406 37.4063,425.6406 Q34.9063,425.6406 33.5859,423.9922 Q32.2656,422.3438 32.2656,419.2188 Q32.2656,416.0938 33.5859,414.4375 Q34.9063,412.7813 37.4063,412.7813 Q38.1094,412.7813 38.7578,412.9375 Q39.4063,413.0938 39.9688,413.3906 L39.9688,416.1094 Q39.3438,415.5313 38.75,415.2578 Q38.1563,414.9844 37.5313,414.9844 Q36.1875,414.9844 35.5,416.0547 Q34.8125,417.125 34.8125,419.2188 Q34.8125,421.3125 35.5,422.3828 Q36.1875,423.4531 37.5313,423.4531 Q38.1563,423.4531 38.75,423.1797 Q39.3438,422.9063 39.9688,422.3281 L39.9688,425.0469 Z "/><text fill="#000000" font-family="sans-serif" font-size="12" lengthAdjust="spacingAndGlyphs" textLength="152" x="51" y="423.5605">AlarmControlComponent</text><line style="stroke: #A80036; stroke-width: 1.5;" x1="23" x2="205" y1="435.4063" y2="435.4063"/><ellipse cx="33" cy="447.3086" fill="none" rx="3" ry="3" style="stroke: #038048; stroke-width: 1.0;"/><text fill="#000000" font-family="sans-serif" font-size="11" lengthAdjust="spacingAndGlyphs" text-decoration="underline" textLength="144" x="42" y="449.6167">AlarmControlTitle : String</text><rect fill="none" height="6" style="stroke: #C82930; stroke-width: 1.0;" width="6" x="30" y="457.1133"/><text fill="#000000" font-family="sans-serif" font-size="11" lengthAdjust="spacingAndGlyphs" textLength="115" x="42" y="462.4214">loader : FXMLLoader</text><line style="stroke: #A80036; stroke-width: 1.5;" x1="23" x2="205" y1="469.0156" y2="469.0156"/><ellipse cx="33" cy="480.918" fill="#84BE84" rx="3" ry="3" style="stroke: #038048; stroke-width: 1.0;"/><text fill="#000000" font-family="sans-serif" font-size="11" lengthAdjust="spacingAndGlyphs" textLength="147" x="42" y="483.2261">AlarmControlComponent()</text><ellipse cx="33" cy="493.7227" fill="#84BE84" rx="3" ry="3" style="stroke: #038048; stroke-width: 1.0;"/><text fill="#000000" font-family="sans-serif" font-size="11" lengthAdjust="spacingAndGlyphs" textLength="65" x="42" y="496.0308">getLoader()</text><polygon fill="#FFFF44" points="33,501.5273,37,505.5273,33,509.5273,29,505.5273" style="stroke: #B38D22; stroke-width: 1.0;"/><text fill="#000000" font-family="sans-serif" font-size="11" lengthAdjust="spacingAndGlyphs" textLength="36" x="42" y="508.8354">draw()</text><polygon fill="#FFFF44" points="33,514.332,37,518.332,33,522.332,29,518.332" style="stroke: #B38D22; stroke-width: 1.0;"/><text fill="#000000" font-family="sans-serif" font-size="11" lengthAdjust="spacingAndGlyphs" textLength="67" x="42" y="521.6401">eventHook()</text><!--class Component.AlarmsComponent--><rect fill="#FEFECE" filter="url(#f60gv9999g5rd)" height="124.8281" id="Component.AlarmsComponent" style="stroke: #A80036; stroke-width: 1.5;" width="146" x="241" y="403.4063"/><ellipse cx="256" cy="419.4063" fill="#ADD1B2" rx="11" ry="11" style="stroke: #A80036; stroke-width: 1.0;"/><path d="M258.9688,425.0469 Q258.3906,425.3438 257.75,425.4922 Q257.1094,425.6406 256.4063,425.6406 Q253.9063,425.6406 252.5859,423.9922 Q251.2656,422.3438 251.2656,419.2188 Q251.2656,416.0938 252.5859,414.4375 Q253.9063,412.7813 256.4063,412.7813 Q257.1094,412.7813 257.7578,412.9375 Q258.4063,413.0938 258.9688,413.3906 L258.9688,416.1094 Q258.3438,415.5313 257.75,415.2578 Q257.1563,414.9844 256.5313,414.9844 Q255.1875,414.9844 254.5,416.0547 Q253.8125,417.125 253.8125,419.2188 Q253.8125,421.3125 254.5,422.3828 Q255.1875,423.4531 256.5313,423.4531 Q257.1563,423.4531 257.75,423.1797 Q258.3438,422.9063 258.9688,422.3281 L258.9688,425.0469 Z "/><text fill="#000000" font-family="sans-serif" font-size="12" lengthAdjust="spacingAndGlyphs" textLength="114" x="270" y="423.5605">AlarmsComponent</text><line style="stroke: #A80036; stroke-width: 1.5;" x1="242" x2="386" y1="435.4063" y2="435.4063"/><ellipse cx="252" cy="447.3086" fill="none" rx="3" ry="3" style="stroke: #038048; stroke-width: 1.0;"/><text fill="#000000" font-family="sans-serif" font-size="11" lengthAdjust="spacingAndGlyphs" text-decoration="underline" textLength="110" x="261" y="449.6167">AlarmsTitle : String</text><rect fill="none" height="6" style="stroke: #C82930; stroke-width: 1.0;" width="6" x="249" y="457.1133"/><text fill="#000000" font-family="sans-serif" font-size="11" lengthAdjust="spacingAndGlyphs" textLength="115" x="261" y="462.4214">loader : FXMLLoader</text><line style="stroke: #A80036; stroke-width: 1.5;" x1="242" x2="386" y1="469.0156" y2="469.0156"/><ellipse cx="252" cy="480.918" fill="#84BE84" rx="3" ry="3" style="stroke: #038048; stroke-width: 1.0;"/><text fill="#000000" font-family="sans-serif" font-size="11" lengthAdjust="spacingAndGlyphs" textLength="113" x="261" y="483.2261">AlarmsComponent()</text><ellipse cx="252" cy="493.7227" fill="#84BE84" rx="3" ry="3" style="stroke: #038048; stroke-width: 1.0;"/><text fill="#000000" font-family="sans-serif" font-size="11" lengthAdjust="spacingAndGlyphs" textLength="65" x="261" y="496.0308">getLoader()</text><polygon fill="#FFFF44" points="252,501.5273,256,505.5273,252,509.5273,248,505.5273" style="stroke: #B38D22; stroke-width: 1.0;"/><text fill="#000000" font-family="sans-serif" font-size="11" lengthAdjust="spacingAndGlyphs" textLength="36" x="261" y="508.8354">draw()</text><polygon fill="#FFFF44" points="252,514.332,256,518.332,252,522.332,248,518.332" style="stroke: #B38D22; stroke-width: 1.0;"/><text fill="#000000" font-family="sans-serif" font-size="11" lengthAdjust="spacingAndGlyphs" textLength="67" x="261" y="521.6401">eventHook()</text><!--class Component.Component--><rect fill="#FEFECE" filter="url(#f60gv9999g5rd)" height="188.8516" id="Component.Component" style="stroke: #A80036; stroke-width: 1.5;" width="171" x="671.5" y="84.9063"/><ellipse cx="716.75" cy="100.9063" fill="#A9DCDF" rx="11" ry="11" style="stroke: #A80036; stroke-width: 1.0;"/><path d="M716.8594,96.25 L715.7031,101.3281 L718.0313,101.3281 L716.8594,96.25 Z M715.375,94.0156 L718.3594,94.0156 L721.7188,106.4063 L719.2656,106.4063 L718.5,103.3438 L715.2188,103.3438 L714.4688,106.4063 L712.0313,106.4063 L715.375,94.0156 Z "/><text fill="#000000" font-family="sans-serif" font-size="12" font-style="italic" lengthAdjust="spacingAndGlyphs" textLength="72" x="737.25" y="105.0605">Component</text><line style="stroke: #A80036; stroke-width: 1.5;" x1="672.5" x2="841.5" y1="116.9063" y2="116.9063"/><rect fill="none" height="6" style="stroke: #C82930; stroke-width: 1.0;" width="6" x="679.5" y="125.8086"/><text fill="#000000" font-family="sans-serif" font-size="11" lengthAdjust="spacingAndGlyphs" textLength="99" x="691.5" y="131.1167">store : Store&lt;C&gt;</text><rect fill="none" height="6" style="stroke: #C82930; stroke-width: 1.0;" width="6" x="679.5" y="138.6133"/><text fill="#000000" font-family="sans-serif" font-size="11" lengthAdjust="spacingAndGlyphs" textLength="145" x="691.5" y="143.9214">subscription : Disposable</text><line style="stroke: #A80036; stroke-width: 1.5;" x1="672.5" x2="841.5" y1="150.5156" y2="150.5156"/><ellipse cx="682.5" cy="162.418" fill="#84BE84" rx="3" ry="3" style="stroke: #038048; stroke-width: 1.0;"/><text fill="#000000" font-family="sans-serif" font-size="11" lengthAdjust="spacingAndGlyphs" textLength="73" x="691.5" y="164.7261">Component()</text><ellipse cx="682.5" cy="175.2227" fill="#84BE84" rx="3" ry="3" style="stroke: #038048; stroke-width: 1.0;"/><text fill="#000000" font-family="sans-serif" font-size="11" lengthAdjust="spacingAndGlyphs" textLength="73" x="691.5" y="177.5308">Component()</text><ellipse cx="682.5" cy="188.0273" fill="#84BE84" rx="3" ry="3" style="stroke: #038048; stroke-width: 1.0;"/><text fill="#000000" font-family="sans-serif" font-size="11" lengthAdjust="spacingAndGlyphs" textLength="57" x="691.5" y="190.3354">getStore()</text><polygon fill="#FFFF44" points="682.5,195.832,686.5,199.832,682.5,203.832,678.5,199.832" style="stroke: #B38D22; stroke-width: 1.0;"/><text fill="#000000" font-family="sans-serif" font-size="11" font-style="italic" lengthAdjust="spacingAndGlyphs" textLength="36" x="691.5" y="203.1401">draw()</text><polygon fill="#FFFF44" points="682.5,208.6367,686.5,212.6367,682.5,216.6367,678.5,212.6367" style="stroke: #B38D22; stroke-width: 1.0;"/><text fill="#000000" font-family="sans-serif" font-size="11" font-style="italic" lengthAdjust="spacingAndGlyphs" textLength="67" x="691.5" y="215.9448">eventHook()</text><polygon fill="#FFFF44" points="682.5,221.4414,686.5,225.4414,682.5,229.4414,678.5,225.4414" style="stroke: #B38D22; stroke-width: 1.0;"/><text fill="#000000" font-family="sans-serif" font-size="11" lengthAdjust="spacingAndGlyphs" textLength="56" x="691.5" y="228.7495">getState()</text><polygon fill="#FFFF44" points="682.5,234.2461,686.5,238.2461,682.5,242.2461,678.5,238.2461" style="stroke: #B38D22; stroke-width: 1.0;"/><text fill="#000000" font-family="sans-serif" font-size="11" lengthAdjust="spacingAndGlyphs" textLength="74" x="691.5" y="241.5542">initialization()</text><polygon fill="#FFFF44" points="682.5,247.0508,686.5,251.0508,682.5,255.0508,678.5,251.0508" style="stroke: #B38D22; stroke-width: 1.0;"/><text fill="#000000" font-family="sans-serif" font-size="11" lengthAdjust="spacingAndGlyphs" textLength="94" x="691.5" y="254.3589">sendCommand()</text><rect fill="#F24D5C" height="6" style="stroke: #C82930; stroke-width: 1.0;" width="6" x="679.5" y="261.8555"/><text fill="#000000" font-family="sans-serif" font-size="11" lengthAdjust="spacingAndGlyphs" textLength="38" x="691.5" y="267.1636">clean()</text><!--class Component.DOCComponent--><rect fill="#FEFECE" filter="url(#f60gv9999g5rd)" height="124.8281" id="Component.DOCComponent" style="stroke: #A80036; stroke-width: 1.5;" width="141" x="422.5" y="403.4063"/><ellipse cx="442.45" cy="419.4063" fill="#ADD1B2" rx="11" ry="11" style="stroke: #A80036; stroke-width: 1.0;"/><path d="M445.4188,425.0469 Q444.8406,425.3438 444.2,425.4922 Q443.5594,425.6406 442.8563,425.6406 Q440.3563,425.6406 439.0359,423.9922 Q437.7156,422.3438 437.7156,419.2188 Q437.7156,416.0938 439.0359,414.4375 Q440.3563,412.7813 442.8563,412.7813 Q443.5594,412.7813 444.2078,412.9375 Q444.8563,413.0938 445.4188,413.3906 L445.4188,416.1094 Q444.7938,415.5313 444.2,415.2578 Q443.6063,414.9844 442.9813,414.9844 Q441.6375,414.9844 440.95,416.0547 Q440.2625,417.125 440.2625,419.2188 Q440.2625,421.3125 440.95,422.3828 Q441.6375,423.4531 442.9813,423.4531 Q443.6063,423.4531 444.2,423.1797 Q444.7938,422.9063 445.4188,422.3281 L445.4188,425.0469 Z "/><text fill="#000000" font-family="sans-serif" font-size="12" lengthAdjust="spacingAndGlyphs" textLength="98" x="457.55" y="423.5605">DOCComponent</text><line style="stroke: #A80036; stroke-width: 1.5;" x1="423.5" x2="562.5" y1="435.4063" y2="435.4063"/><ellipse cx="433.5" cy="447.3086" fill="none" rx="3" ry="3" style="stroke: #038048; stroke-width: 1.0;"/><text fill="#000000" font-family="sans-serif" font-size="11" lengthAdjust="spacingAndGlyphs" text-decoration="underline" textLength="95" x="442.5" y="449.6167">DOCTitle : String</text><rect fill="none" height="6" style="stroke: #C82930; stroke-width: 1.0;" width="6" x="430.5" y="457.1133"/><text fill="#000000" font-family="sans-serif" font-size="11" lengthAdjust="spacingAndGlyphs" textLength="115" x="442.5" y="462.4214">loader : FXMLLoader</text><line style="stroke: #A80036; stroke-width: 1.5;" x1="423.5" x2="562.5" y1="469.0156" y2="469.0156"/><ellipse cx="433.5" cy="480.918" fill="#84BE84" rx="3" ry="3" style="stroke: #038048; stroke-width: 1.0;"/><text fill="#000000" font-family="sans-serif" font-size="11" lengthAdjust="spacingAndGlyphs" textLength="98" x="442.5" y="483.2261">DOCComponent()</text><ellipse cx="433.5" cy="493.7227" fill="#84BE84" rx="3" ry="3" style="stroke: #038048; stroke-width: 1.0;"/><text fill="#000000" font-family="sans-serif" font-size="11" lengthAdjust="spacingAndGlyphs" textLength="65" x="442.5" y="496.0308">getLoader()</text><polygon fill="#FFFF44" points="433.5,501.5273,437.5,505.5273,433.5,509.5273,429.5,505.5273" style="stroke: #B38D22; stroke-width: 1.0;"/><text fill="#000000" font-family="sans-serif" font-size="11" lengthAdjust="spacingAndGlyphs" textLength="36" x="442.5" y="508.8354">draw()</text><polygon fill="#FFFF44" points="433.5,514.332,437.5,518.332,433.5,522.332,429.5,518.332" style="stroke: #B38D22; stroke-width: 1.0;"/><text fill="#000000" font-family="sans-serif" font-size="11" lengthAdjust="spacingAndGlyphs" textLength="67" x="442.5" y="521.6401">eventHook()</text><!--class Component.ErrorComponet--><rect fill="#FEFECE" filter="url(#f60gv9999g5rd)" height="124.8281" id="Component.ErrorComponet" style="stroke: #A80036; stroke-width: 1.5;" width="141" x="598.5" y="403.4063"/><ellipse cx="619.8" cy="419.4063" fill="#ADD1B2" rx="11" ry="11" style="stroke: #A80036; stroke-width: 1.0;"/><path d="M622.7688,425.0469 Q622.1906,425.3438 621.55,425.4922 Q620.9094,425.6406 620.2063,425.6406 Q617.7063,425.6406 616.3859,423.9922 Q615.0656,422.3438 615.0656,419.2188 Q615.0656,416.0938 616.3859,414.4375 Q617.7063,412.7813 620.2063,412.7813 Q620.9094,412.7813 621.5578,412.9375 Q622.2063,413.0938 622.7688,413.3906 L622.7688,416.1094 Q622.1438,415.5313 621.55,415.2578 Q620.9563,414.9844 620.3313,414.9844 Q618.9875,414.9844 618.3,416.0547 Q617.6125,417.125 617.6125,419.2188 Q617.6125,421.3125 618.3,422.3828 Q618.9875,423.4531 620.3313,423.4531 Q620.9563,423.4531 621.55,423.1797 Q622.1438,422.9063 622.7688,422.3281 L622.7688,425.0469 Z "/><text fill="#000000" font-family="sans-serif" font-size="12" lengthAdjust="spacingAndGlyphs" textLength="95" x="635.2" y="423.5605">ErrorComponet</text><line style="stroke: #A80036; stroke-width: 1.5;" x1="599.5" x2="738.5" y1="435.4063" y2="435.4063"/><ellipse cx="609.5" cy="447.3086" fill="none" rx="3" ry="3" style="stroke: #038048; stroke-width: 1.0;"/><text fill="#000000" font-family="sans-serif" font-size="11" lengthAdjust="spacingAndGlyphs" text-decoration="underline" textLength="99" x="618.5" y="449.6167">ErrorTitle : String</text><rect fill="none" height="6" style="stroke: #C82930; stroke-width: 1.0;" width="6" x="606.5" y="457.1133"/><text fill="#000000" font-family="sans-serif" font-size="11" lengthAdjust="spacingAndGlyphs" textLength="115" x="618.5" y="462.4214">loader : FXMLLoader</text><line style="stroke: #A80036; stroke-width: 1.5;" x1="599.5" x2="738.5" y1="469.0156" y2="469.0156"/><ellipse cx="609.5" cy="480.918" fill="#84BE84" rx="3" ry="3" style="stroke: #038048; stroke-width: 1.0;"/><text fill="#000000" font-family="sans-serif" font-size="11" lengthAdjust="spacingAndGlyphs" textLength="95" x="618.5" y="483.2261">ErrorComponet()</text><ellipse cx="609.5" cy="493.7227" fill="#84BE84" rx="3" ry="3" style="stroke: #038048; stroke-width: 1.0;"/><text fill="#000000" font-family="sans-serif" font-size="11" lengthAdjust="spacingAndGlyphs" textLength="65" x="618.5" y="496.0308">getLoader()</text><polygon fill="#FFFF44" points="609.5,501.5273,613.5,505.5273,609.5,509.5273,605.5,505.5273" style="stroke: #B38D22; stroke-width: 1.0;"/><text fill="#000000" font-family="sans-serif" font-size="11" lengthAdjust="spacingAndGlyphs" textLength="36" x="618.5" y="508.8354">draw()</text><polygon fill="#FFFF44" points="609.5,514.332,613.5,518.332,609.5,522.332,605.5,518.332" style="stroke: #B38D22; stroke-width: 1.0;"/><text fill="#000000" font-family="sans-serif" font-size="11" lengthAdjust="spacingAndGlyphs" textLength="67" x="618.5" y="521.6401">eventHook()</text><!--class Component.HPComponent--><rect fill="#FEFECE" filter="url(#f60gv9999g5rd)" height="124.8281" id="Component.HPComponent" style="stroke: #A80036; stroke-width: 1.5;" width="141" x="774.5" y="403.4063"/><ellipse cx="798.5" cy="419.4063" fill="#ADD1B2" rx="11" ry="11" style="stroke: #A80036; stroke-width: 1.0;"/><path d="M801.4688,425.0469 Q800.8906,425.3438 800.25,425.4922 Q799.6094,425.6406 798.9063,425.6406 Q796.4063,425.6406 795.0859,423.9922 Q793.7656,422.3438 793.7656,419.2188 Q793.7656,416.0938 795.0859,414.4375 Q796.4063,412.7813 798.9063,412.7813 Q799.6094,412.7813 800.2578,412.9375 Q800.9063,413.0938 801.4688,413.3906 L801.4688,416.1094 Q800.8438,415.5313 800.25,415.2578 Q799.6563,414.9844 799.0313,414.9844 Q797.6875,414.9844 797,416.0547 Q796.3125,417.125 796.3125,419.2188 Q796.3125,421.3125 797,422.3828 Q797.6875,423.4531 799.0313,423.4531 Q799.6563,423.4531 800.25,423.1797 Q800.8438,422.9063 801.4688,422.3281 L801.4688,425.0469 Z "/><text fill="#000000" font-family="sans-serif" font-size="12" lengthAdjust="spacingAndGlyphs" textLength="89" x="814.5" y="423.5605">HPComponent</text><line style="stroke: #A80036; stroke-width: 1.5;" x1="775.5" x2="914.5" y1="435.4063" y2="435.4063"/><ellipse cx="785.5" cy="447.3086" fill="none" rx="3" ry="3" style="stroke: #038048; stroke-width: 1.0;"/><text fill="#000000" font-family="sans-serif" font-size="11" lengthAdjust="spacingAndGlyphs" text-decoration="underline" textLength="85" x="794.5" y="449.6167">HPTitle : String</text><rect fill="none" height="6" style="stroke: #C82930; stroke-width: 1.0;" width="6" x="782.5" y="457.1133"/><text fill="#000000" font-family="sans-serif" font-size="11" lengthAdjust="spacingAndGlyphs" textLength="115" x="794.5" y="462.4214">loader : FXMLLoader</text><line style="stroke: #A80036; stroke-width: 1.5;" x1="775.5" x2="914.5" y1="469.0156" y2="469.0156"/><ellipse cx="785.5" cy="480.918" fill="#84BE84" rx="3" ry="3" style="stroke: #038048; stroke-width: 1.0;"/><text fill="#000000" font-family="sans-serif" font-size="11" lengthAdjust="spacingAndGlyphs" textLength="88" x="794.5" y="483.2261">HPComponent()</text><ellipse cx="785.5" cy="493.7227" fill="#84BE84" rx="3" ry="3" style="stroke: #038048; stroke-width: 1.0;"/><text fill="#000000" font-family="sans-serif" font-size="11" lengthAdjust="spacingAndGlyphs" textLength="65" x="794.5" y="496.0308">getLoader()</text><polygon fill="#FFFF44" points="785.5,501.5273,789.5,505.5273,785.5,509.5273,781.5,505.5273" style="stroke: #B38D22; stroke-width: 1.0;"/><text fill="#000000" font-family="sans-serif" font-size="11" lengthAdjust="spacingAndGlyphs" textLength="36" x="794.5" y="508.8354">draw()</text><polygon fill="#FFFF44" points="785.5,514.332,789.5,518.332,785.5,522.332,781.5,518.332" style="stroke: #B38D22; stroke-width: 1.0;"/><text fill="#000000" font-family="sans-serif" font-size="11" lengthAdjust="spacingAndGlyphs" textLength="67" x="794.5" y="521.6401">eventHook()</text><!--class Component.LoginComponent--><rect fill="#FEFECE" filter="url(#f60gv9999g5rd)" height="137.6328" id="Component.LoginComponent" style="stroke: #A80036; stroke-width: 1.5;" width="141" x="950.5" y="396.9063"/><ellipse cx="967.3" cy="412.9063" fill="#ADD1B2" rx="11" ry="11" style="stroke: #A80036; stroke-width: 1.0;"/><path d="M970.2688,418.5469 Q969.6906,418.8438 969.05,418.9922 Q968.4094,419.1406 967.7063,419.1406 Q965.2063,419.1406 963.8859,417.4922 Q962.5656,415.8438 962.5656,412.7188 Q962.5656,409.5938 963.8859,407.9375 Q965.2063,406.2813 967.7063,406.2813 Q968.4094,406.2813 969.0578,406.4375 Q969.7063,406.5938 970.2688,406.8906 L970.2688,409.6094 Q969.6438,409.0313 969.05,408.7578 Q968.4563,408.4844 967.8313,408.4844 Q966.4875,408.4844 965.8,409.5547 Q965.1125,410.625 965.1125,412.7188 Q965.1125,414.8125 965.8,415.8828 Q966.4875,416.9531 967.8313,416.9531 Q968.4563,416.9531 969.05,416.6797 Q969.6438,416.4063 970.2688,415.8281 L970.2688,418.5469 Z "/><text fill="#000000" font-family="sans-serif" font-size="12" lengthAdjust="spacingAndGlyphs" textLength="105" x="981.7" y="417.0605">LoginComponent</text><line style="stroke: #A80036; stroke-width: 1.5;" x1="951.5" x2="1090.5" y1="428.9063" y2="428.9063"/><ellipse cx="961.5" cy="440.8086" fill="none" rx="3" ry="3" style="stroke: #038048; stroke-width: 1.0;"/><text fill="#000000" font-family="sans-serif" font-size="11" lengthAdjust="spacingAndGlyphs" text-decoration="underline" textLength="97" x="970.5" y="443.1167">loginTitle : String</text><rect fill="none" height="6" style="stroke: #C82930; stroke-width: 1.0;" width="6" x="958.5" y="450.6133"/><text fill="#000000" font-family="sans-serif" font-size="11" lengthAdjust="spacingAndGlyphs" textLength="115" x="970.5" y="455.9214">loader : FXMLLoader</text><line style="stroke: #A80036; stroke-width: 1.5;" x1="951.5" x2="1090.5" y1="462.5156" y2="462.5156"/><ellipse cx="961.5" cy="474.418" fill="#84BE84" rx="3" ry="3" style="stroke: #038048; stroke-width: 1.0;"/><text fill="#000000" font-family="sans-serif" font-size="11" lengthAdjust="spacingAndGlyphs" textLength="103" x="970.5" y="476.7261">LoginComponent()</text><ellipse cx="961.5" cy="487.2227" fill="#84BE84" rx="3" ry="3" style="stroke: #038048; stroke-width: 1.0;"/><text fill="#000000" font-family="sans-serif" font-size="11" lengthAdjust="spacingAndGlyphs" textLength="103" x="970.5" y="489.5308">LoginComponent()</text><ellipse cx="961.5" cy="500.0273" fill="#84BE84" rx="3" ry="3" style="stroke: #038048; stroke-width: 1.0;"/><text fill="#000000" font-family="sans-serif" font-size="11" lengthAdjust="spacingAndGlyphs" textLength="65" x="970.5" y="502.3354">getLoader()</text><polygon fill="#FFFF44" points="961.5,507.832,965.5,511.832,961.5,515.832,957.5,511.832" style="stroke: #B38D22; stroke-width: 1.0;"/><text fill="#000000" font-family="sans-serif" font-size="11" lengthAdjust="spacingAndGlyphs" textLength="36" x="970.5" y="515.1401">draw()</text><polygon fill="#FFFF44" points="961.5,520.6367,965.5,524.6367,961.5,528.6367,957.5,524.6367" style="stroke: #B38D22; stroke-width: 1.0;"/><text fill="#000000" font-family="sans-serif" font-size="11" lengthAdjust="spacingAndGlyphs" textLength="67" x="970.5" y="527.9448">eventHook()</text><!--class Component.MonitoringComponent--><rect fill="#FEFECE" filter="url(#f60gv9999g5rd)" height="137.6328" id="Component.MonitoringComponent" style="stroke: #A80036; stroke-width: 1.5;" width="170" x="1127" y="396.9063"/><ellipse cx="1142" cy="412.9063" fill="#ADD1B2" rx="11" ry="11" style="stroke: #A80036; stroke-width: 1.0;"/><path d="M1144.9688,418.5469 Q1144.3906,418.8438 1143.75,418.9922 Q1143.1094,419.1406 1142.4063,419.1406 Q1139.9063,419.1406 1138.5859,417.4922 Q1137.2656,415.8438 1137.2656,412.7188 Q1137.2656,409.5938 1138.5859,407.9375 Q1139.9063,406.2813 1142.4063,406.2813 Q1143.1094,406.2813 1143.7578,406.4375 Q1144.4063,406.5938 1144.9688,406.8906 L1144.9688,409.6094 Q1144.3438,409.0313 1143.75,408.7578 Q1143.1563,408.4844 1142.5313,408.4844 Q1141.1875,408.4844 1140.5,409.5547 Q1139.8125,410.625 1139.8125,412.7188 Q1139.8125,414.8125 1140.5,415.8828 Q1141.1875,416.9531 1142.5313,416.9531 Q1143.1563,416.9531 1143.75,416.6797 Q1144.3438,416.4063 1144.9688,415.8281 L1144.9688,418.5469 Z "/><text fill="#000000" font-family="sans-serif" font-size="12" lengthAdjust="spacingAndGlyphs" textLength="138" x="1156" y="417.0605">MonitoringComponent</text><line style="stroke: #A80036; stroke-width: 1.5;" x1="1128" x2="1296" y1="428.9063" y2="428.9063"/><ellipse cx="1138" cy="440.8086" fill="none" rx="3" ry="3" style="stroke: #038048; stroke-width: 1.0;"/><text fill="#000000" font-family="sans-serif" font-size="11" lengthAdjust="spacingAndGlyphs" text-decoration="underline" textLength="131" x="1147" y="443.1167">monitoringTitle : String</text><rect fill="none" height="6" style="stroke: #C82930; stroke-width: 1.0;" width="6" x="1135" y="450.6133"/><text fill="#000000" font-family="sans-serif" font-size="11" lengthAdjust="spacingAndGlyphs" textLength="115" x="1147" y="455.9214">loader : FXMLLoader</text><line style="stroke: #A80036; stroke-width: 1.5;" x1="1128" x2="1296" y1="462.5156" y2="462.5156"/><ellipse cx="1138" cy="474.418" fill="#84BE84" rx="3" ry="3" style="stroke: #038048; stroke-width: 1.0;"/><text fill="#000000" font-family="sans-serif" font-size="11" lengthAdjust="spacingAndGlyphs" textLength="132" x="1147" y="476.7261">MonitoringComponent()</text><ellipse cx="1138" cy="487.2227" fill="#84BE84" rx="3" ry="3" style="stroke: #038048; stroke-width: 1.0;"/><text fill="#000000" font-family="sans-serif" font-size="11" lengthAdjust="spacingAndGlyphs" textLength="132" x="1147" y="489.5308">MonitoringComponent()</text><ellipse cx="1138" cy="500.0273" fill="#84BE84" rx="3" ry="3" style="stroke: #038048; stroke-width: 1.0;"/><text fill="#000000" font-family="sans-serif" font-size="11" lengthAdjust="spacingAndGlyphs" textLength="65" x="1147" y="502.3354">getLoader()</text><polygon fill="#FFFF44" points="1138,507.832,1142,511.832,1138,515.832,1134,511.832" style="stroke: #B38D22; stroke-width: 1.0;"/><text fill="#000000" font-family="sans-serif" font-size="11" lengthAdjust="spacingAndGlyphs" textLength="36" x="1147" y="515.1401">draw()</text><polygon fill="#FFFF44" points="1138,520.6367,1142,524.6367,1138,528.6367,1134,524.6367" style="stroke: #B38D22; stroke-width: 1.0;"/><text fill="#000000" font-family="sans-serif" font-size="11" lengthAdjust="spacingAndGlyphs" textLength="67" x="1147" y="527.9448">eventHook()</text><!--class Component.NURComponent--><rect fill="#FEFECE" filter="url(#f60gv9999g5rd)" height="124.8281" id="Component.NURComponent" style="stroke: #A80036; stroke-width: 1.5;" width="141" x="1332.5" y="403.4063"/><ellipse cx="1352.45" cy="419.4063" fill="#ADD1B2" rx="11" ry="11" style="stroke: #A80036; stroke-width: 1.0;"/><path d="M1355.4188,425.0469 Q1354.8406,425.3438 1354.2,425.4922 Q1353.5594,425.6406 1352.8563,425.6406 Q1350.3563,425.6406 1349.0359,423.9922 Q1347.7156,422.3438 1347.7156,419.2188 Q1347.7156,416.0938 1349.0359,414.4375 Q1350.3563,412.7813 1352.8563,412.7813 Q1353.5594,412.7813 1354.2078,412.9375 Q1354.8563,413.0938 1355.4188,413.3906 L1355.4188,416.1094 Q1354.7938,415.5313 1354.2,415.2578 Q1353.6063,414.9844 1352.9813,414.9844 Q1351.6375,414.9844 1350.95,416.0547 Q1350.2625,417.125 1350.2625,419.2188 Q1350.2625,421.3125 1350.95,422.3828 Q1351.6375,423.4531 1352.9813,423.4531 Q1353.6063,423.4531 1354.2,423.1797 Q1354.7938,422.9063 1355.4188,422.3281 L1355.4188,425.0469 Z "/><text fill="#000000" font-family="sans-serif" font-size="12" lengthAdjust="spacingAndGlyphs" textLength="98" x="1367.55" y="423.5605">NURComponent</text><line style="stroke: #A80036; stroke-width: 1.5;" x1="1333.5" x2="1472.5" y1="435.4063" y2="435.4063"/><ellipse cx="1343.5" cy="447.3086" fill="none" rx="3" ry="3" style="stroke: #038048; stroke-width: 1.0;"/><text fill="#000000" font-family="sans-serif" font-size="11" lengthAdjust="spacingAndGlyphs" text-decoration="underline" textLength="93" x="1352.5" y="449.6167">NURTitle : String</text><rect fill="none" height="6" style="stroke: #C82930; stroke-width: 1.0;" width="6" x="1340.5" y="457.1133"/><text fill="#000000" font-family="sans-serif" font-size="11" lengthAdjust="spacingAndGlyphs" textLength="115" x="1352.5" y="462.4214">loader : FXMLLoader</text><line style="stroke: #A80036; stroke-width: 1.5;" x1="1333.5" x2="1472.5" y1="469.0156" y2="469.0156"/><ellipse cx="1343.5" cy="480.918" fill="#84BE84" rx="3" ry="3" style="stroke: #038048; stroke-width: 1.0;"/><text fill="#000000" font-family="sans-serif" font-size="11" lengthAdjust="spacingAndGlyphs" textLength="96" x="1352.5" y="483.2261">NURComponent()</text><ellipse cx="1343.5" cy="493.7227" fill="#84BE84" rx="3" ry="3" style="stroke: #038048; stroke-width: 1.0;"/><text fill="#000000" font-family="sans-serif" font-size="11" lengthAdjust="spacingAndGlyphs" textLength="65" x="1352.5" y="496.0308">getLoader()</text><polygon fill="#FFFF44" points="1343.5,501.5273,1347.5,505.5273,1343.5,509.5273,1339.5,505.5273" style="stroke: #B38D22; stroke-width: 1.0;"/><text fill="#000000" font-family="sans-serif" font-size="11" lengthAdjust="spacingAndGlyphs" textLength="36" x="1352.5" y="508.8354">draw()</text><polygon fill="#FFFF44" points="1343.5,514.332,1347.5,518.332,1343.5,522.332,1339.5,518.332" style="stroke: #B38D22; stroke-width: 1.0;"/><text fill="#000000" font-family="sans-serif" font-size="11" lengthAdjust="spacingAndGlyphs" textLength="67" x="1352.5" y="521.6401">eventHook()</text><!--class System.Sistema--><rect fill="#FEFECE" filter="url(#f60gv9999g5rd)" height="48" id="System.Sistema" style="stroke: #A80036; stroke-width: 1.5;" width="82" x="715" y="616.9063"/><ellipse cx="730" cy="632.9063" fill="#ADD1B2" rx="11" ry="11" style="stroke: #A80036; stroke-width: 1.0;"/><path d="M732.9688,638.5469 Q732.3906,638.8438 731.75,638.9922 Q731.1094,639.1406 730.4063,639.1406 Q727.9063,639.1406 726.5859,637.4922 Q725.2656,635.8438 725.2656,632.7188 Q725.2656,629.5938 726.5859,627.9375 Q727.9063,626.2813 730.4063,626.2813 Q731.1094,626.2813 731.7578,626.4375 Q732.4063,626.5938 732.9688,626.8906 L732.9688,629.6094 Q732.3438,629.0313 731.75,628.7578 Q731.1563,628.4844 730.5313,628.4844 Q729.1875,628.4844 728.5,629.5547 Q727.8125,630.625 727.8125,632.7188 Q727.8125,634.8125 728.5,635.8828 Q729.1875,636.9531 730.5313,636.9531 Q731.1563,636.9531 731.75,636.6797 Q732.3438,636.4063 732.9688,635.8281 L732.9688,638.5469 Z "/><text fill="#000000" font-family="sans-serif" font-size="12" lengthAdjust="spacingAndGlyphs" textLength="50" x="744" y="637.0605">Sistema</text><line style="stroke: #A80036; stroke-width: 1.5;" x1="716" x2="796" y1="648.9063" y2="648.9063"/><line style="stroke: #A80036; stroke-width: 1.5;" x1="716" x2="796" y1="656.9063" y2="656.9063"/><!--link Component.Component to Component.AlarmControlComponent--><path d="M652.5036,215.9466 C543.2888,255.5349 368.0883,323.0175 224,396.9063 C218.0824,399.9409 212.0679,403.1923 206.0575,406.5703 " fill="none" id="Component.Component-Component.AlarmControlComponent" style="stroke: #A80036; stroke-width: 1.0;"/><polygon fill="none" points="650.2525,209.3173,671.4412,209.1221,654.9989,222.4882,650.2525,209.3173" style="stroke: #A80036; stroke-width: 1.0;"/><!--link Component.AlarmControlComponent to System.Sistema--><path d="M207.0408,534.8244 C212.6543,537.7814 218.3276,540.5063 224,542.9063 C396.5512,615.9137 623.2507,634.648 714.9123,639.3612 " fill="none" id="Component.AlarmControlComponent-System.Sistema" style="stroke: #A80036; stroke-width: 1.0;"/><polygon fill="#FFFFFF" points="195.6217,528.4581,198.9145,534.8735,206.1029,534.3015,202.8101,527.8861,195.6217,528.4581" style="stroke: #A80036; stroke-width: 1.0;"/><text fill="#000000" font-family="sans-serif" font-size="13" lengthAdjust="spacingAndGlyphs" textLength="21" x="336" y="577.9731">sys</text><!--link Component.Component to Component.AlarmsComponent--><path d="M653.772,239.6552 C582.7266,281.9739 486.7862,340.8193 405,396.9063 C399.1136,400.9431 393.0832,405.209 387.0656,409.5598 " fill="none" id="Component.Component-Component.AlarmsComponent" style="stroke: #A80036; stroke-width: 1.0;"/><polygon fill="none" points="650.5032,233.4552,671.2742,229.2641,657.6504,245.4934,650.5032,233.4552" style="stroke: #A80036; stroke-width: 1.0;"/><!--link Component.AlarmsComponent to System.Sistema--><path d="M392.9225,535.8965 C396.9106,538.404 400.9455,540.7579 405,542.9063 C508.9829,598.0045 647.1561,624.7717 714.945,635.2903 " fill="none" id="Component.AlarmsComponent-System.Sistema" style="stroke: #A80036; stroke-width: 1.0;"/><polygon fill="#FFFFFF" points="381.8294,528.4655,384.5882,535.128,391.7993,535.1439,389.0405,528.4814,381.8294,528.4655" style="stroke: #A80036; stroke-width: 1.0;"/><text fill="#000000" font-family="sans-serif" font-size="13" lengthAdjust="spacingAndGlyphs" textLength="21" x="487" y="577.9731">sys</text><!--link Component.Component to Component.DOCComponent--><path d="M657.6624,287.2101 C621.607,326.3385 582.0823,369.2317 550.7957,403.1849 " fill="none" id="Component.Component-Component.DOCComponent" style="stroke: #A80036; stroke-width: 1.0;"/><polygon fill="none" points="652.5862,282.389,671.2868,272.4246,662.8817,291.876,652.5862,282.389" style="stroke: #A80036; stroke-width: 1.0;"/><!--link Component.DOCComponent to System.Sistema--><path d="M572.4057,536.6469 C575.2746,538.7975 578.1443,540.8905 581,542.9063 C624.5256,573.63 678.5333,602.6342 714.9466,620.9999 " fill="none" id="Component.DOCComponent-System.Sistema" style="stroke: #A80036; stroke-width: 1.0;"/><polygon fill="#FFFFFF" points="562.0482,528.6423,564.3497,535.4762,571.5431,535.9802,569.2417,529.1463,562.0482,528.6423" style="stroke: #A80036; stroke-width: 1.0;"/><text fill="#000000" font-family="sans-serif" font-size="13" lengthAdjust="spacingAndGlyphs" textLength="21" x="642" y="577.9731">sys</text><!--link Component.Component to Component.ErrorComponet--><path d="M722.0319,293.2512 C710.5478,330.6398 698.2059,370.8212 688.3205,403.005 " fill="none" id="Component.Component-Component.ErrorComponet" style="stroke: #A80036; stroke-width: 1.0;"/><polygon fill="none" points="715.3778,291.0743,727.9416,274.0111,728.7607,295.1849,715.3778,291.0743" style="stroke: #A80036; stroke-width: 1.0;"/><!--link Component.ErrorComponet to System.Sistema--><path d="M705.9545,540.24 C719.6314,567.7511 734.1919,597.0393 744.0599,616.8888 " fill="none" id="Component.ErrorComponet-System.Sistema" style="stroke: #A80036; stroke-width: 1.0;"/><polygon fill="#FFFFFF" points="700.1633,528.591,699.2526,535.7443,705.5054,539.3363,706.4161,532.1829,700.1633,528.591" style="stroke: #A80036; stroke-width: 1.0;"/><text fill="#000000" font-family="sans-serif" font-size="13" lengthAdjust="spacingAndGlyphs" textLength="21" x="726" y="577.9731">sys</text><!--link Component.Component to Component.HPComponent--><path d="M791.9681,293.2512 C803.4522,330.6398 815.7941,370.8212 825.6795,403.005 " fill="none" id="Component.Component-Component.HPComponent" style="stroke: #A80036; stroke-width: 1.0;"/><polygon fill="none" points="785.2393,295.1849,786.0584,274.0111,798.6222,291.0743,785.2393,295.1849" style="stroke: #A80036; stroke-width: 1.0;"/><!--link Component.HPComponent to System.Sistema--><path d="M807.196,540.24 C793.2046,567.7511 778.3095,597.0393 768.2146,616.8888 " fill="none" id="Component.HPComponent-System.Sistema" style="stroke: #A80036; stroke-width: 1.0;"/><polygon fill="#FFFFFF" points="813.1203,528.591,806.835,532.1258,807.6805,539.2871,813.9658,535.7523,813.1203,528.591" style="stroke: #A80036; stroke-width: 1.0;"/><text fill="#000000" font-family="sans-serif" font-size="13" lengthAdjust="spacingAndGlyphs" textLength="21" x="793" y="577.9731">sys</text><!--link Component.Component to Component.LoginComponent--><path d="M856.4449,287.3266 C890.143,323.8967 926.8603,363.7433 957.0443,396.4998 " fill="none" id="Component.Component-Component.LoginComponent" style="stroke: #A80036; stroke-width: 1.0;"/><polygon fill="none" points="851.1183,291.876,842.7132,272.4246,861.4138,282.389,851.1183,291.876" style="stroke: #A80036; stroke-width: 1.0;"/><!--link Component.LoginComponent to System.Sistema--><path d="M940.1055,537.7809 C937.7335,539.5353 935.3622,541.2474 933,542.9063 C888.8768,573.8925 834.0299,602.9535 797.183,621.2576 " fill="none" id="Component.LoginComponent-System.Sistema" style="stroke: #A80036; stroke-width: 1.0;"/><polygon fill="#FFFFFF" points="950.4851,529.8525,943.2889,530.3158,940.9488,537.1367,948.145,536.6733,950.4851,529.8525" style="stroke: #A80036; stroke-width: 1.0;"/><text fill="#000000" font-family="sans-serif" font-size="13" lengthAdjust="spacingAndGlyphs" textLength="21" x="896" y="577.9731">sys</text><!--link Component.Component to Component.MonitoringComponent--><path d="M859.9133,241.6255 C930.4334,284.5948 1025.8865,343.4151 1109,396.9063 C1114.7917,400.6338 1120.7449,404.5076 1126.7286,408.4328 " fill="none" id="Component.Component-Component.MonitoringComponent" style="stroke: #A80036; stroke-width: 1.0;"/><polygon fill="none" points="855.9904,247.4325,842.5443,231.0555,863.2684,235.473,855.9904,247.4325" style="stroke: #A80036; stroke-width: 1.0;"/><!--link Component.MonitoringComponent to System.Sistema--><path d="M1115.4803,539.5881 C1113.3221,540.7375 1111.1607,541.8455 1109,542.9063 C1002.9492,594.9709 864.9507,623.0753 797.1992,634.5792 " fill="none" id="Component.MonitoringComponent-System.Sistema" style="stroke: #A80036; stroke-width: 1.0;"/><polygon fill="#FFFFFF" points="1126.9695,533.0804,1119.7774,532.557,1116.5281,538.9946,1123.7202,539.5179,1126.9695,533.0804" style="stroke: #A80036; stroke-width: 1.0;"/><text fill="#000000" font-family="sans-serif" font-size="13" lengthAdjust="spacingAndGlyphs" textLength="21" x="1055" y="577.9731">sys</text><!--link Component.Component to Component.NURComponent--><path d="M861.9957,210.1259 C977.3469,246.1621 1166.0149,311.9357 1315,396.9063 C1320.8182,400.2246 1326.6664,403.9016 1332.4309,407.7805 " fill="none" id="Component.Component-Component.NURComponent" style="stroke: #A80036; stroke-width: 1.0;"/><polygon fill="none" points="859.775,216.7663,842.7341,204.1723,863.9093,203.3907,859.775,216.7663" style="stroke: #A80036; stroke-width: 1.0;"/><!--link Component.NURComponent to System.Sistema--><path d="M1327.9544,535.853 C1323.7057,538.4374 1319.378,540.812 1315,542.9063 C1222.34,587.2316 909.8108,624.3618 797.0232,636.6147 " fill="none" id="Component.NURComponent-System.Sistema" style="stroke: #A80036; stroke-width: 1.0;"/><polygon fill="#FFFFFF" points="1338.9965,528.5709,1331.7855,528.5349,1328.9789,535.1774,1336.1899,535.2134,1338.9965,528.5709" style="stroke: #A80036; stroke-width: 1.0;"/><text fill="#000000" font-family="sans-serif" font-size="13" lengthAdjust="spacingAndGlyphs" textLength="21" x="1250" y="577.9731">sys</text><!--
@startuml
title __COMPONENT's Class Diagram__\n

      class Component.AlarmControlComponent {
          {static} + AlarmControlTitle : String
          - loader : FXMLLoader
          + AlarmControlComponent()
          + getLoader()
          # draw()
          # eventHook()
      }
  

      class Component.AlarmsComponent {
          {static} + AlarmsTitle : String
          - loader : FXMLLoader
          + AlarmsComponent()
          + getLoader()
          # draw()
          # eventHook()
      }


      abstract class Component.Component {
          - store : Store<C>
          - subscription : Disposable
          + Component()
          + Component()
          + getStore()
          {abstract} # draw()
          {abstract} # eventHook()
          # getState()
          # initialization()
          # sendCommand()
          - clean()
      }


      class Component.DOCComponent {
          {static} + DOCTitle : String
          - loader : FXMLLoader
          + DOCComponent()
          + getLoader()
          # draw()
          # eventHook()
      }


      class Component.ErrorComponet {
          {static} + ErrorTitle : String
          - loader : FXMLLoader
          + ErrorComponet()
          + getLoader()
          # draw()
          # eventHook()
      }


      class Component.HPComponent {
          {static} + HPTitle : String
          - loader : FXMLLoader
          + HPComponent()
          + getLoader()
          # draw()
          # eventHook()
      }


      class Component.LoginComponent {
          {static} + loginTitle : String
          - loader : FXMLLoader
          + LoginComponent()
          + LoginComponent()
          + getLoader()
          # draw()
          # eventHook()
      }


      class Component.MonitoringComponent {
          {static} + monitoringTitle : String
          - loader : FXMLLoader
          + MonitoringComponent()
          + MonitoringComponent()
          + getLoader()
          # draw()
          # eventHook()
      }


      class Component.NURComponent {
          {static} + NURTitle : String
          - loader : FXMLLoader
          + NURComponent()
          + getLoader()
          # draw()
          # eventHook()
      }


  Component.AlarmControlComponent -up-|> Component.Component
  Component.AlarmControlComponent o- - System.Sistema : sys
  Component.AlarmsComponent -up-|> Component.Component
  Component.AlarmsComponent o- - System.Sistema : sys
  Component.DOCComponent -up-|> Component.Component
  Component.DOCComponent o- - System.Sistema : sys
  Component.ErrorComponet -up-|> Component.Component
  Component.ErrorComponet o- - System.Sistema : sys
  Component.HPComponent -up-|> Component.Component
  Component.HPComponent o- - System.Sistema : sys
  Component.LoginComponent -up-|> Component.Component
  Component.LoginComponent o- - System.Sistema : sys
  Component.MonitoringComponent -up-|> Component.Component
  Component.MonitoringComponent o- - System.Sistema : sys
  Component.NURComponent -up-|> Component.Component
  Component.NURComponent o- - System.Sistema : sys
@enduml

PlantUML version 1.2019.04(Fri Mar 29 15:44:36 UTC 2019)
(GPL source distribution)
Java Runtime: OpenJDK Runtime Environment
JVM: OpenJDK 64-Bit Server VM
Java Version: 1.8.0_201-heroku-b09
Operating System: Linux
OS Version: 4.4.0-1046-aws
Default Encoding: UTF-8
Language: en
Country: US
--></g></svg>