<?xml version="1.0" encoding="UTF-8" standalone="no"?><svg xmlns="http://www.w3.org/2000/svg" xmlns:xlink="http://www.w3.org/1999/xlink" contentScriptType="application/ecmascript" contentStyleType="text/css" height="896px" preserveAspectRatio="none" style="width:1252px;height:896px;" version="1.1" viewBox="0 0 1252 896" width="1252px" zoomAndPan="magnify"><defs><filter height="300%" id="f1ke5gw5qtfjex" width="300%" x="-1" y="-1"><feGaussianBlur result="blurOut" stdDeviation="2.0"/><feColorMatrix in="blurOut" result="blurOut2" type="matrix" values="0 0 0 0 0 0 0 0 0 0 0 0 0 0 0 0 0 0 .4 0"/><feOffset dx="4.0" dy="4.0" in="blurOut2" result="blurOut3"/><feBlend in="SourceGraphic" in2="blurOut3" mode="normal"/></filter></defs><g><text fill="#000000" font-family="sans-serif" font-size="18" lengthAdjust="spacingAndGlyphs" text-decoration="underline" textLength="307" x="475" y="16.708">DATAGENERATOR's Class Diagram</text><text fill="#000000" font-family="sans-serif" font-size="18" lengthAdjust="spacingAndGlyphs" textLength="0" x="631.5" y="37.6611"/><!--cluster DataGenerator--><polygon fill="#FFFFFF" filter="url(#f1ke5gw5qtfjex)" points="253.5,57.9063,375.5,57.9063,382.5,80.2031,1110.5,80.2031,1110.5,884.9063,253.5,884.9063,253.5,57.9063" style="stroke: #000000; stroke-width: 1.5;"/><line style="stroke: #000000; stroke-width: 1.5;" x1="253.5" x2="382.5" y1="80.2031" y2="80.2031"/><text fill="#000000" font-family="sans-serif" font-size="14" font-weight="bold" lengthAdjust="spacingAndGlyphs" textLength="116" x="257.5" y="72.9014">DataGenerator</text><!--cluster System--><polygon fill="#FFFFFF" filter="url(#f1ke5gw5qtfjex)" points="1118.5,692.9063,1182.5,692.9063,1189.5,715.2031,1216.5,715.2031,1216.5,775.9063,1118.5,775.9063,1118.5,692.9063" style="stroke: #000000; stroke-width: 1.5;"/><line style="stroke: #000000; stroke-width: 1.5;" x1="1118.5" x2="1189.5" y1="715.2031" y2="715.2031"/><text fill="#000000" font-family="sans-serif" font-size="14" font-weight="bold" lengthAdjust="spacingAndGlyphs" textLength="58" x="1122.5" y="707.9014">System</text><!--cluster java.util--><polygon fill="#FFFFFF" filter="url(#f1ke5gw5qtfjex)" points="1118.5,312.9063,1184.5,312.9063,1191.5,335.2031,1230.5,335.2031,1230.5,395.9063,1118.5,395.9063,1118.5,312.9063" style="stroke: #000000; stroke-width: 1.5;"/><line style="stroke: #000000; stroke-width: 1.5;" x1="1118.5" x2="1191.5" y1="335.2031" y2="335.2031"/><text fill="#000000" font-family="sans-serif" font-size="14" font-weight="bold" lengthAdjust="spacingAndGlyphs" textLength="60" x="1122.5" y="327.9014">java.util</text><!--class DataGenerator.BPGenerator--><rect fill="#FEFECE" filter="url(#f1ke5gw5qtfjex)" height="188.8516" id="DataGenerator.BPGenerator" style="stroke: #A80036; stroke-width: 1.5;" width="189" x="913" y="448.9063"/><ellipse cx="963.25" cy="464.9063" fill="#ADD1B2" rx="11" ry="11" style="stroke: #A80036; stroke-width: 1.0;"/><path d="M966.2188,470.5469 Q965.6406,470.8438 965,470.9922 Q964.3594,471.1406 963.6563,471.1406 Q961.1563,471.1406 959.8359,469.4922 Q958.5156,467.8438 958.5156,464.7188 Q958.5156,461.5938 959.8359,459.9375 Q961.1563,458.2813 963.6563,458.2813 Q964.3594,458.2813 965.0078,458.4375 Q965.6563,458.5938 966.2188,458.8906 L966.2188,461.6094 Q965.5938,461.0313 965,460.7578 Q964.4063,460.4844 963.7813,460.4844 Q962.4375,460.4844 961.75,461.5547 Q961.0625,462.625 961.0625,464.7188 Q961.0625,466.8125 961.75,467.8828 Q962.4375,468.9531 963.7813,468.9531 Q964.4063,468.9531 965,468.6797 Q965.5938,468.4063 966.2188,467.8281 L966.2188,470.5469 Z "/><text fill="#000000" font-family="sans-serif" font-size="12" lengthAdjust="spacingAndGlyphs" textLength="80" x="983.75" y="469.0605">BPGenerator</text><line style="stroke: #A80036; stroke-width: 1.5;" x1="914" x2="1101" y1="480.9063" y2="480.9063"/><rect fill="none" height="6" style="stroke: #C82930; stroke-width: 1.0;" width="6" x="921" y="489.8086"/><text fill="#000000" font-family="sans-serif" font-size="11" lengthAdjust="spacingAndGlyphs" textLength="163" x="933" y="495.1167">canGenerateAlarm : boolean</text><rect fill="none" height="6" style="stroke: #C82930; stroke-width: 1.0;" width="6" x="921" y="502.6133"/><text fill="#000000" font-family="sans-serif" font-size="11" lengthAdjust="spacingAndGlyphs" textLength="90" x="933" y="507.9214">meanD : double</text><rect fill="none" height="6" style="stroke: #C82930; stroke-width: 1.0;" width="6" x="921" y="515.418"/><text fill="#000000" font-family="sans-serif" font-size="11" lengthAdjust="spacingAndGlyphs" textLength="90" x="933" y="520.7261">meanS : double</text><rect fill="none" height="6" style="stroke: #C82930; stroke-width: 1.0;" width="6" x="921" y="528.2227"/><text fill="#000000" font-family="sans-serif" font-size="11" lengthAdjust="spacingAndGlyphs" textLength="110" x="933" y="533.5308">randomD : Random</text><rect fill="none" height="6" style="stroke: #C82930; stroke-width: 1.0;" width="6" x="921" y="541.0273"/><text fill="#000000" font-family="sans-serif" font-size="11" lengthAdjust="spacingAndGlyphs" textLength="110" x="933" y="546.3354">randomS : Random</text><rect fill="none" height="6" style="stroke: #C82930; stroke-width: 1.0;" width="6" x="921" y="553.832"/><text fill="#000000" font-family="sans-serif" font-size="11" lengthAdjust="spacingAndGlyphs" textLength="106" x="933" y="559.1401">varianceD : double</text><rect fill="none" height="6" style="stroke: #C82930; stroke-width: 1.0;" width="6" x="921" y="566.6367"/><text fill="#000000" font-family="sans-serif" font-size="11" lengthAdjust="spacingAndGlyphs" textLength="106" x="933" y="571.9448">varianceS : double</text><line style="stroke: #A80036; stroke-width: 1.5;" x1="914" x2="1101" y1="578.5391" y2="578.5391"/><ellipse cx="924" cy="590.4414" fill="#84BE84" rx="3" ry="3" style="stroke: #038048; stroke-width: 1.0;"/><text fill="#000000" font-family="sans-serif" font-size="11" lengthAdjust="spacingAndGlyphs" textLength="81" x="933" y="592.7495">BPGenerator()</text><ellipse cx="924" cy="603.2461" fill="#84BE84" rx="3" ry="3" style="stroke: #038048; stroke-width: 1.0;"/><text fill="#000000" font-family="sans-serif" font-size="11" lengthAdjust="spacingAndGlyphs" textLength="44" x="933" y="605.5542">evolve()</text><ellipse cx="924" cy="616.0508" fill="#84BE84" rx="3" ry="3" style="stroke: #038048; stroke-width: 1.0;"/><text fill="#000000" font-family="sans-serif" font-size="11" lengthAdjust="spacingAndGlyphs" textLength="57" x="933" y="618.3589">getValue()</text><ellipse cx="924" cy="628.8555" fill="#84BE84" rx="3" ry="3" style="stroke: #038048; stroke-width: 1.0;"/><text fill="#000000" font-family="sans-serif" font-size="11" lengthAdjust="spacingAndGlyphs" textLength="38" x="933" y="631.1636">reset()</text><!--class DataGenerator.DataThread--><rect fill="#FEFECE" filter="url(#f1ke5gw5qtfjex)" height="188.8516" id="DataGenerator.DataThread" style="stroke: #A80036; stroke-width: 1.5;" width="209" x="262" y="84.9063"/><ellipse cx="325.25" cy="100.9063" fill="#ADD1B2" rx="11" ry="11" style="stroke: #A80036; stroke-width: 1.0;"/><path d="M328.2188,106.5469 Q327.6406,106.8438 327,106.9922 Q326.3594,107.1406 325.6563,107.1406 Q323.1563,107.1406 321.8359,105.4922 Q320.5156,103.8438 320.5156,100.7188 Q320.5156,97.5938 321.8359,95.9375 Q323.1563,94.2813 325.6563,94.2813 Q326.3594,94.2813 327.0078,94.4375 Q327.6563,94.5938 328.2188,94.8906 L328.2188,97.6094 Q327.5938,97.0313 327,96.7578 Q326.4063,96.4844 325.7813,96.4844 Q324.4375,96.4844 323.75,97.5547 Q323.0625,98.625 323.0625,100.7188 Q323.0625,102.8125 323.75,103.8828 Q324.4375,104.9531 325.7813,104.9531 Q326.4063,104.9531 327,104.6797 Q327.5938,104.4063 328.2188,103.8281 L328.2188,106.5469 Z "/><text fill="#000000" font-family="sans-serif" font-size="12" lengthAdjust="spacingAndGlyphs" textLength="74" x="345.75" y="105.0605">DataThread</text><line style="stroke: #A80036; stroke-width: 1.5;" x1="263" x2="470" y1="116.9063" y2="116.9063"/><rect fill="none" height="6" style="stroke: #C82930; stroke-width: 1.0;" width="6" x="270" y="125.8086"/><text fill="#000000" font-family="sans-serif" font-size="11" lengthAdjust="spacingAndGlyphs" textLength="78" x="282" y="131.1167">numTask : int</text><rect fill="none" height="6" style="stroke: #C82930; stroke-width: 1.0;" width="6" x="270" y="138.6133"/><text fill="#000000" font-family="sans-serif" font-size="11" lengthAdjust="spacingAndGlyphs" textLength="76" x="282" y="143.9214">run : boolean</text><rect fill="none" height="6" style="stroke: #C82930; stroke-width: 1.0;" width="6" x="270" y="151.418"/><text fill="#000000" font-family="sans-serif" font-size="11" lengthAdjust="spacingAndGlyphs" textLength="183" x="282" y="156.7261">store : Store&lt;StringCommand&gt;</text><rect fill="none" height="6" style="stroke: #C82930; stroke-width: 1.0;" width="6" x="270" y="164.2227"/><text fill="#000000" font-family="sans-serif" font-size="11" lengthAdjust="spacingAndGlyphs" textLength="92" x="282" y="169.5308">taskJob : Value[]</text><rect fill="none" height="6" style="stroke: #C82930; stroke-width: 1.0;" width="6" x="270" y="177.0273"/><text fill="#000000" font-family="sans-serif" font-size="11" lengthAdjust="spacingAndGlyphs" textLength="171" x="282" y="182.3354">tasks : ArrayList&lt;TimerTask&gt;</text><rect fill="none" height="6" style="stroke: #C82930; stroke-width: 1.0;" width="6" x="270" y="189.832"/><text fill="#000000" font-family="sans-serif" font-size="11" lengthAdjust="spacingAndGlyphs" textLength="150" x="282" y="195.1401">timers : ArrayList&lt;Timer&gt;</text><rect fill="none" height="6" style="stroke: #C82930; stroke-width: 1.0;" width="6" x="270" y="202.6367"/><text fill="#000000" font-family="sans-serif" font-size="11" lengthAdjust="spacingAndGlyphs" textLength="79" x="282" y="207.9448">times : Long[]</text><line style="stroke: #A80036; stroke-width: 1.5;" x1="263" x2="470" y1="214.5391" y2="214.5391"/><ellipse cx="273" cy="226.4414" fill="#84BE84" rx="3" ry="3" style="stroke: #038048; stroke-width: 1.0;"/><text fill="#000000" font-family="sans-serif" font-size="11" lengthAdjust="spacingAndGlyphs" textLength="74" x="282" y="228.7495">DataThread()</text><ellipse cx="273" cy="239.2461" fill="#84BE84" rx="3" ry="3" style="stroke: #038048; stroke-width: 1.0;"/><text fill="#000000" font-family="sans-serif" font-size="11" lengthAdjust="spacingAndGlyphs" textLength="57" x="282" y="241.5542">interrupt()</text><ellipse cx="273" cy="252.0508" fill="#84BE84" rx="3" ry="3" style="stroke: #038048; stroke-width: 1.0;"/><text fill="#000000" font-family="sans-serif" font-size="11" lengthAdjust="spacingAndGlyphs" textLength="47" x="282" y="254.3589">restart()</text><ellipse cx="273" cy="264.8555" fill="#84BE84" rx="3" ry="3" style="stroke: #038048; stroke-width: 1.0;"/><text fill="#000000" font-family="sans-serif" font-size="11" lengthAdjust="spacingAndGlyphs" textLength="35" x="282" y="267.1636">start()</text><!--class DataGenerator.DataThread.DataTask--><rect fill="#FEFECE" filter="url(#f1ke5gw5qtfjex)" height="73.6094" id="DataGenerator.DataThread.DataTask" style="stroke: #A80036; stroke-width: 1.5;" width="169" x="261" y="506.4063"/><ellipse cx="276" cy="522.4063" fill="#ADD1B2" rx="11" ry="11" style="stroke: #A80036; stroke-width: 1.0;"/><path d="M278.9688,528.0469 Q278.3906,528.3438 277.75,528.4922 Q277.1094,528.6406 276.4063,528.6406 Q273.9063,528.6406 272.5859,526.9922 Q271.2656,525.3438 271.2656,522.2188 Q271.2656,519.0938 272.5859,517.4375 Q273.9063,515.7813 276.4063,515.7813 Q277.1094,515.7813 277.7578,515.9375 Q278.4063,516.0938 278.9688,516.3906 L278.9688,519.1094 Q278.3438,518.5313 277.75,518.2578 Q277.1563,517.9844 276.5313,517.9844 Q275.1875,517.9844 274.5,519.0547 Q273.8125,520.125 273.8125,522.2188 Q273.8125,524.3125 274.5,525.3828 Q275.1875,526.4531 276.5313,526.4531 Q277.1563,526.4531 277.75,526.1797 Q278.3438,525.9063 278.9688,525.3281 L278.9688,528.0469 Z "/><text fill="#000000" font-family="sans-serif" font-size="12" lengthAdjust="spacingAndGlyphs" textLength="137" x="290" y="526.5605">DataThread.DataTask</text><line style="stroke: #A80036; stroke-width: 1.5;" x1="262" x2="429" y1="538.4063" y2="538.4063"/><line style="stroke: #A80036; stroke-width: 1.5;" x1="262" x2="429" y1="546.4063" y2="546.4063"/><ellipse cx="272" cy="558.3086" fill="#84BE84" rx="3" ry="3" style="stroke: #038048; stroke-width: 1.0;"/><text fill="#000000" font-family="sans-serif" font-size="11" lengthAdjust="spacingAndGlyphs" textLength="61" x="281" y="560.6167">DataTask()</text><ellipse cx="272" cy="571.1133" fill="#84BE84" rx="3" ry="3" style="stroke: #038048; stroke-width: 1.0;"/><text fill="#000000" font-family="sans-serif" font-size="11" lengthAdjust="spacingAndGlyphs" textLength="27" x="281" y="573.4214">run()</text><!--class DataGenerator.GeneratorInterface--><rect fill="#FEFECE" filter="url(#f1ke5gw5qtfjex)" height="86.4141" id="DataGenerator.GeneratorInterface" style="stroke: #A80036; stroke-width: 1.5;" width="152" x="707.5" y="136.4063"/><ellipse cx="722.5" cy="152.4063" fill="#B4A7E5" rx="11" ry="11" style="stroke: #A80036; stroke-width: 1.0;"/><path d="M718.4219,148.1719 L718.4219,146.0156 L725.8125,146.0156 L725.8125,148.1719 L723.3438,148.1719 L723.3438,156.25 L725.8125,156.25 L725.8125,158.4063 L718.4219,158.4063 L718.4219,156.25 L720.8906,156.25 L720.8906,148.1719 L718.4219,148.1719 Z "/><text fill="#000000" font-family="sans-serif" font-size="12" font-style="italic" lengthAdjust="spacingAndGlyphs" textLength="120" x="736.5" y="156.5605">GeneratorInterface</text><line style="stroke: #A80036; stroke-width: 1.5;" x1="708.5" x2="858.5" y1="168.4063" y2="168.4063"/><line style="stroke: #A80036; stroke-width: 1.5;" x1="708.5" x2="858.5" y1="176.4063" y2="176.4063"/><ellipse cx="718.5" cy="188.3086" fill="#84BE84" rx="3" ry="3" style="stroke: #038048; stroke-width: 1.0;"/><text fill="#000000" font-family="sans-serif" font-size="11" font-style="italic" lengthAdjust="spacingAndGlyphs" textLength="44" x="727.5" y="190.6167">evolve()</text><ellipse cx="718.5" cy="201.1133" fill="#84BE84" rx="3" ry="3" style="stroke: #038048; stroke-width: 1.0;"/><text fill="#000000" font-family="sans-serif" font-size="11" font-style="italic" lengthAdjust="spacingAndGlyphs" textLength="57" x="727.5" y="203.4214">getValue()</text><ellipse cx="718.5" cy="213.918" fill="#84BE84" rx="3" ry="3" style="stroke: #038048; stroke-width: 1.0;"/><text fill="#000000" font-family="sans-serif" font-size="11" font-style="italic" lengthAdjust="spacingAndGlyphs" textLength="38" x="727.5" y="216.2261">reset()</text><!--class DataGenerator.HeartRateGenerator--><rect fill="#FEFECE" filter="url(#f1ke5gw5qtfjex)" height="150.4375" id="DataGenerator.HeartRateGenerator" style="stroke: #A80036; stroke-width: 1.5;" width="189" x="465" y="468.4063"/><ellipse cx="493.05" cy="484.4063" fill="#ADD1B2" rx="11" ry="11" style="stroke: #A80036; stroke-width: 1.0;"/><path d="M496.0188,490.0469 Q495.4406,490.3438 494.8,490.4922 Q494.1594,490.6406 493.4563,490.6406 Q490.9563,490.6406 489.6359,488.9922 Q488.3156,487.3438 488.3156,484.2188 Q488.3156,481.0938 489.6359,479.4375 Q490.9563,477.7813 493.4563,477.7813 Q494.1594,477.7813 494.8078,477.9375 Q495.4563,478.0938 496.0188,478.3906 L496.0188,481.1094 Q495.3938,480.5313 494.8,480.2578 Q494.2063,479.9844 493.5813,479.9844 Q492.2375,479.9844 491.55,481.0547 Q490.8625,482.125 490.8625,484.2188 Q490.8625,486.3125 491.55,487.3828 Q492.2375,488.4531 493.5813,488.4531 Q494.2063,488.4531 494.8,488.1797 Q495.3938,487.9063 496.0188,487.3281 L496.0188,490.0469 Z "/><text fill="#000000" font-family="sans-serif" font-size="12" lengthAdjust="spacingAndGlyphs" textLength="128" x="509.95" y="488.5605">HeartRateGenerator</text><line style="stroke: #A80036; stroke-width: 1.5;" x1="466" x2="653" y1="500.4063" y2="500.4063"/><rect fill="none" height="6" style="stroke: #C82930; stroke-width: 1.0;" width="6" x="473" y="509.3086"/><text fill="#000000" font-family="sans-serif" font-size="11" lengthAdjust="spacingAndGlyphs" textLength="163" x="485" y="514.6167">canGenerateAlarm : boolean</text><rect fill="none" height="6" style="stroke: #C82930; stroke-width: 1.0;" width="6" x="473" y="522.1133"/><text fill="#000000" font-family="sans-serif" font-size="11" lengthAdjust="spacingAndGlyphs" textLength="82" x="485" y="527.4214">mean : double</text><rect fill="none" height="6" style="stroke: #C82930; stroke-width: 1.0;" width="6" x="473" y="534.918"/><text fill="#000000" font-family="sans-serif" font-size="11" lengthAdjust="spacingAndGlyphs" textLength="102" x="485" y="540.2261">random : Random</text><rect fill="none" height="6" style="stroke: #C82930; stroke-width: 1.0;" width="6" x="473" y="547.7227"/><text fill="#000000" font-family="sans-serif" font-size="11" lengthAdjust="spacingAndGlyphs" textLength="98" x="485" y="553.0308">variance : double</text><line style="stroke: #A80036; stroke-width: 1.5;" x1="466" x2="653" y1="559.625" y2="559.625"/><ellipse cx="476" cy="571.5273" fill="#84BE84" rx="3" ry="3" style="stroke: #038048; stroke-width: 1.0;"/><text fill="#000000" font-family="sans-serif" font-size="11" lengthAdjust="spacingAndGlyphs" textLength="122" x="485" y="573.8354">HeartRateGenerator()</text><ellipse cx="476" cy="584.332" fill="#84BE84" rx="3" ry="3" style="stroke: #038048; stroke-width: 1.0;"/><text fill="#000000" font-family="sans-serif" font-size="11" lengthAdjust="spacingAndGlyphs" textLength="44" x="485" y="586.6401">evolve()</text><ellipse cx="476" cy="597.1367" fill="#84BE84" rx="3" ry="3" style="stroke: #038048; stroke-width: 1.0;"/><text fill="#000000" font-family="sans-serif" font-size="11" lengthAdjust="spacingAndGlyphs" textLength="57" x="485" y="599.4448">getValue()</text><ellipse cx="476" cy="609.9414" fill="#84BE84" rx="3" ry="3" style="stroke: #038048; stroke-width: 1.0;"/><text fill="#000000" font-family="sans-serif" font-size="11" lengthAdjust="spacingAndGlyphs" textLength="38" x="485" y="612.2495">reset()</text><!--class DataGenerator.TemperatureGenerator--><rect fill="#FEFECE" filter="url(#f1ke5gw5qtfjex)" height="150.4375" id="DataGenerator.TemperatureGenerator" style="stroke: #A80036; stroke-width: 1.5;" width="189" x="689" y="468.4063"/><ellipse cx="709.4" cy="484.4063" fill="#ADD1B2" rx="11" ry="11" style="stroke: #A80036; stroke-width: 1.0;"/><path d="M712.3688,490.0469 Q711.7906,490.3438 711.15,490.4922 Q710.5094,490.6406 709.8063,490.6406 Q707.3063,490.6406 705.9859,488.9922 Q704.6656,487.3438 704.6656,484.2188 Q704.6656,481.0938 705.9859,479.4375 Q707.3063,477.7813 709.8063,477.7813 Q710.5094,477.7813 711.1578,477.9375 Q711.8063,478.0938 712.3688,478.3906 L712.3688,481.1094 Q711.7438,480.5313 711.15,480.2578 Q710.5563,479.9844 709.9313,479.9844 Q708.5875,479.9844 707.9,481.0547 Q707.2125,482.125 707.2125,484.2188 Q707.2125,486.3125 707.9,487.3828 Q708.5875,488.4531 709.9313,488.4531 Q710.5563,488.4531 711.15,488.1797 Q711.7438,487.9063 712.3688,487.3281 L712.3688,490.0469 Z "/><text fill="#000000" font-family="sans-serif" font-size="12" lengthAdjust="spacingAndGlyphs" textLength="145" x="724.6" y="488.5605">TemperatureGenerator</text><line style="stroke: #A80036; stroke-width: 1.5;" x1="690" x2="877" y1="500.4063" y2="500.4063"/><rect fill="none" height="6" style="stroke: #C82930; stroke-width: 1.0;" width="6" x="697" y="509.3086"/><text fill="#000000" font-family="sans-serif" font-size="11" lengthAdjust="spacingAndGlyphs" textLength="163" x="709" y="514.6167">canGenerateAlarm : boolean</text><rect fill="none" height="6" style="stroke: #C82930; stroke-width: 1.0;" width="6" x="697" y="522.1133"/><text fill="#000000" font-family="sans-serif" font-size="11" lengthAdjust="spacingAndGlyphs" textLength="82" x="709" y="527.4214">mean : double</text><rect fill="none" height="6" style="stroke: #C82930; stroke-width: 1.0;" width="6" x="697" y="534.918"/><text fill="#000000" font-family="sans-serif" font-size="11" lengthAdjust="spacingAndGlyphs" textLength="102" x="709" y="540.2261">random : Random</text><rect fill="none" height="6" style="stroke: #C82930; stroke-width: 1.0;" width="6" x="697" y="547.7227"/><text fill="#000000" font-family="sans-serif" font-size="11" lengthAdjust="spacingAndGlyphs" textLength="98" x="709" y="553.0308">variance : double</text><line style="stroke: #A80036; stroke-width: 1.5;" x1="690" x2="877" y1="559.625" y2="559.625"/><ellipse cx="700" cy="571.5273" fill="#84BE84" rx="3" ry="3" style="stroke: #038048; stroke-width: 1.0;"/><text fill="#000000" font-family="sans-serif" font-size="11" lengthAdjust="spacingAndGlyphs" textLength="140" x="709" y="573.8354">TemperatureGenerator()</text><ellipse cx="700" cy="584.332" fill="#84BE84" rx="3" ry="3" style="stroke: #038048; stroke-width: 1.0;"/><text fill="#000000" font-family="sans-serif" font-size="11" lengthAdjust="spacingAndGlyphs" textLength="44" x="709" y="586.6401">evolve()</text><ellipse cx="700" cy="597.1367" fill="#84BE84" rx="3" ry="3" style="stroke: #038048; stroke-width: 1.0;"/><text fill="#000000" font-family="sans-serif" font-size="11" lengthAdjust="spacingAndGlyphs" textLength="57" x="709" y="599.4448">getValue()</text><ellipse cx="700" cy="609.9414" fill="#84BE84" rx="3" ry="3" style="stroke: #038048; stroke-width: 1.0;"/><text fill="#000000" font-family="sans-serif" font-size="11" lengthAdjust="spacingAndGlyphs" textLength="38" x="709" y="612.2495">reset()</text><!--class DataGenerator.Value--><rect fill="#FEFECE" filter="url(#f1ke5gw5qtfjex)" height="48" id="DataGenerator.Value" style="stroke: #A80036; stroke-width: 1.5;" width="67" x="312" y="828.9063"/><ellipse cx="327" cy="844.9063" fill="#ADD1B2" rx="11" ry="11" style="stroke: #A80036; stroke-width: 1.0;"/><path d="M329.9688,850.5469 Q329.3906,850.8438 328.75,850.9922 Q328.1094,851.1406 327.4063,851.1406 Q324.9063,851.1406 323.5859,849.4922 Q322.2656,847.8438 322.2656,844.7188 Q322.2656,841.5938 323.5859,839.9375 Q324.9063,838.2813 327.4063,838.2813 Q328.1094,838.2813 328.7578,838.4375 Q329.4063,838.5938 329.9688,838.8906 L329.9688,841.6094 Q329.3438,841.0313 328.75,840.7578 Q328.1563,840.4844 327.5313,840.4844 Q326.1875,840.4844 325.5,841.5547 Q324.8125,842.625 324.8125,844.7188 Q324.8125,846.8125 325.5,847.8828 Q326.1875,848.9531 327.5313,848.9531 Q328.1563,848.9531 328.75,848.6797 Q329.3438,848.4063 329.9688,847.8281 L329.9688,850.5469 Z "/><text fill="#000000" font-family="sans-serif" font-size="12" lengthAdjust="spacingAndGlyphs" textLength="35" x="341" y="849.0605">Value</text><line style="stroke: #A80036; stroke-width: 1.5;" x1="313" x2="378" y1="860.9063" y2="860.9063"/><line style="stroke: #A80036; stroke-width: 1.5;" x1="313" x2="378" y1="868.9063" y2="868.9063"/><!--class System.Sistema--><rect fill="#FEFECE" filter="url(#f1ke5gw5qtfjex)" height="48" id="System.Sistema" style="stroke: #A80036; stroke-width: 1.5;" width="82" x="1126.5" y="719.9063"/><ellipse cx="1141.5" cy="735.9063" fill="#ADD1B2" rx="11" ry="11" style="stroke: #A80036; stroke-width: 1.0;"/><path d="M1144.4688,741.5469 Q1143.8906,741.8438 1143.25,741.9922 Q1142.6094,742.1406 1141.9063,742.1406 Q1139.4063,742.1406 1138.0859,740.4922 Q1136.7656,738.8438 1136.7656,735.7188 Q1136.7656,732.5938 1138.0859,730.9375 Q1139.4063,729.2813 1141.9063,729.2813 Q1142.6094,729.2813 1143.2578,729.4375 Q1143.9063,729.5938 1144.4688,729.8906 L1144.4688,732.6094 Q1143.8438,732.0313 1143.25,731.7578 Q1142.6563,731.4844 1142.0313,731.4844 Q1140.6875,731.4844 1140,732.5547 Q1139.3125,733.625 1139.3125,735.7188 Q1139.3125,737.8125 1140,738.8828 Q1140.6875,739.9531 1142.0313,739.9531 Q1142.6563,739.9531 1143.25,739.6797 Q1143.8438,739.4063 1144.4688,738.8281 L1144.4688,741.5469 Z "/><text fill="#000000" font-family="sans-serif" font-size="12" lengthAdjust="spacingAndGlyphs" textLength="50" x="1155.5" y="740.0605">Sistema</text><line style="stroke: #A80036; stroke-width: 1.5;" x1="1127.5" x2="1207.5" y1="751.9063" y2="751.9063"/><line style="stroke: #A80036; stroke-width: 1.5;" x1="1127.5" x2="1207.5" y1="759.9063" y2="759.9063"/><!--class java.util.TimerTask--><rect fill="#FEFECE" filter="url(#f1ke5gw5qtfjex)" height="48" id="java.util.TimerTask" style="stroke: #A80036; stroke-width: 1.5;" width="95" x="1127" y="339.9063"/><ellipse cx="1142" cy="355.9063" fill="#ADD1B2" rx="11" ry="11" style="stroke: #A80036; stroke-width: 1.0;"/><path d="M1144.9688,361.5469 Q1144.3906,361.8438 1143.75,361.9922 Q1143.1094,362.1406 1142.4063,362.1406 Q1139.9063,362.1406 1138.5859,360.4922 Q1137.2656,358.8438 1137.2656,355.7188 Q1137.2656,352.5938 1138.5859,350.9375 Q1139.9063,349.2813 1142.4063,349.2813 Q1143.1094,349.2813 1143.7578,349.4375 Q1144.4063,349.5938 1144.9688,349.8906 L1144.9688,352.6094 Q1144.3438,352.0313 1143.75,351.7578 Q1143.1563,351.4844 1142.5313,351.4844 Q1141.1875,351.4844 1140.5,352.5547 Q1139.8125,353.625 1139.8125,355.7188 Q1139.8125,357.8125 1140.5,358.8828 Q1141.1875,359.9531 1142.5313,359.9531 Q1143.1563,359.9531 1143.75,359.6797 Q1144.3438,359.4063 1144.9688,358.8281 L1144.9688,361.5469 Z "/><text fill="#000000" font-family="sans-serif" font-size="12" lengthAdjust="spacingAndGlyphs" textLength="63" x="1156" y="360.0605">TimerTask</text><line style="stroke: #A80036; stroke-width: 1.5;" x1="1128" x2="1221" y1="371.9063" y2="371.9063"/><line style="stroke: #A80036; stroke-width: 1.5;" x1="1128" x2="1221" y1="379.9063" y2="379.9063"/><!--class Sickness--><rect fill="#FEFECE" filter="url(#f1ke5gw5qtfjex)" height="137.6328" id="Sickness" style="stroke: #A80036; stroke-width: 1.5;" width="93" x="6" y="110.4063"/><ellipse cx="23.7" cy="126.4063" fill="#EB937F" rx="11" ry="11" style="stroke: #A80036; stroke-width: 1.0;"/><path d="M27.8094,132.4063 L20.0906,132.4063 L20.0906,120.0156 L27.8094,120.0156 L27.8094,122.1719 L22.5438,122.1719 L22.5438,124.8438 L27.3094,124.8438 L27.3094,127 L22.5438,127 L22.5438,130.25 L27.8094,130.25 L27.8094,132.4063 Z "/><text fill="#000000" font-family="sans-serif" font-size="12" lengthAdjust="spacingAndGlyphs" textLength="55" x="38.3" y="130.5605">Sickness</text><line style="stroke: #A80036; stroke-width: 1.5;" x1="7" x2="98" y1="142.4063" y2="142.4063"/><text fill="#000000" font-family="sans-serif" font-size="11" lengthAdjust="spacingAndGlyphs" textLength="43" x="12" y="156.6167">ARITMIA</text><text fill="#000000" font-family="sans-serif" font-size="11" lengthAdjust="spacingAndGlyphs" textLength="48" x="12" y="169.4214">FLUTTER</text><text fill="#000000" font-family="sans-serif" font-size="11" lengthAdjust="spacingAndGlyphs" textLength="81" x="12" y="182.2261">IPERTENSIONE</text><text fill="#000000" font-family="sans-serif" font-size="11" lengthAdjust="spacingAndGlyphs" textLength="64" x="12" y="195.0308">IPERTERMIA</text><text fill="#000000" font-family="sans-serif" font-size="11" lengthAdjust="spacingAndGlyphs" textLength="76" x="12" y="207.8354">IPOTENSIONE</text><text fill="#000000" font-family="sans-serif" font-size="11" lengthAdjust="spacingAndGlyphs" textLength="59" x="12" y="220.6401">IPOTERMIA</text><text fill="#000000" font-family="sans-serif" font-size="11" lengthAdjust="spacingAndGlyphs" textLength="73" x="12" y="233.4448">TACHICARDIA</text><line style="stroke: #A80036; stroke-width: 1.5;" x1="7" x2="98" y1="240.0391" y2="240.0391"/><!--class Value--><rect fill="#FEFECE" filter="url(#f1ke5gw5qtfjex)" height="86.4141" id="Value" style="stroke: #A80036; stroke-width: 1.5;" width="92" x="134.5" y="136.4063"/><ellipse cx="160.75" cy="152.4063" fill="#EB937F" rx="11" ry="11" style="stroke: #A80036; stroke-width: 1.0;"/><path d="M164.8594,158.4063 L157.1406,158.4063 L157.1406,146.0156 L164.8594,146.0156 L164.8594,148.1719 L159.5938,148.1719 L159.5938,150.8438 L164.3594,150.8438 L164.3594,153 L159.5938,153 L159.5938,156.25 L164.8594,156.25 L164.8594,158.4063 Z "/><text fill="#000000" font-family="sans-serif" font-size="12" lengthAdjust="spacingAndGlyphs" textLength="35" x="177.25" y="156.5605">Value</text><line style="stroke: #A80036; stroke-width: 1.5;" x1="135.5" x2="225.5" y1="168.4063" y2="168.4063"/><text fill="#000000" font-family="sans-serif" font-size="11" lengthAdjust="spacingAndGlyphs" textLength="15" x="140.5" y="182.6167">BP</text><text fill="#000000" font-family="sans-serif" font-size="11" lengthAdjust="spacingAndGlyphs" textLength="70" x="140.5" y="195.4214">HEART_RATE</text><text fill="#000000" font-family="sans-serif" font-size="11" lengthAdjust="spacingAndGlyphs" textLength="80" x="140.5" y="208.2261">TEMPERATURE</text><line style="stroke: #A80036; stroke-width: 1.5;" x1="135.5" x2="225.5" y1="214.8203" y2="214.8203"/><!--link DataGenerator.GeneratorInterface to DataGenerator.BPGenerator--><path d="M820.7619,239.9569 C855.7292,296.7787 908.5752,382.6536 949.1356,448.5641 " fill="none" id="DataGenerator.GeneratorInterface-DataGenerator.BPGenerator" style="stroke: #A80036; stroke-width: 1.0; stroke-dasharray: 7.0,7.0;"/><polygon fill="none" points="814.5958,243.2931,810.0754,222.5912,826.519,235.9557,814.5958,243.2931" style="stroke: #A80036; stroke-width: 1.0;"/><!--link DataGenerator.BPGenerator to System.Sistema--><path d="M1091.2512,648.3571 C1112.6403,675.1603 1133.671,701.5144 1148.2096,719.733 " fill="none" id="DataGenerator.BPGenerator-System.Sistema" style="stroke: #A80036; stroke-width: 1.0;"/><polygon fill="#FFFFFF" points="1083.0489,638.0785,1083.6649,645.2632,1090.5339,647.458,1089.9179,640.2732,1083.0489,638.0785" style="stroke: #A80036; stroke-width: 1.0;"/><text fill="#000000" font-family="sans-serif" font-size="13" lengthAdjust="spacingAndGlyphs" textLength="21" x="1120.5" y="680.9731">sys</text><!--link DataGenerator.DataThread to DataGenerator.DataThread.DataTask--><path d="M360.1468,289.5289 C355.8905,363.3048 350.5511,455.8544 347.6383,506.3424 " fill="none" id="DataGenerator.DataThread-DataGenerator.DataThread.DataTask" style="stroke: #A80036; stroke-width: 1.0;"/><ellipse cx="360.5765" cy="282.0795" fill="#FFFFFF" rx="8" ry="8" style="stroke: #A80036; stroke-width: 1.0;"/><line style="stroke: #A80036; stroke-width: 1.0;" x1="360.1157" x2="361.0373" y1="290.0662" y2="274.0928"/><line style="stroke: #A80036; stroke-width: 1.0;" x1="352.5898" x2="368.5632" y1="281.6187" y2="282.5403"/><!--link java.util.TimerTask to DataGenerator.DataThread.DataTask--><path d="M1119.1021,395.7184 C1118.9013,395.7818 1118.7006,395.8445 1118.5,395.9063 C832.6204,484.0212 721.4944,328.8294 447.5,448.9063 C418.9779,461.406 393.3007,485.3039 374.8437,505.9389 " fill="none" id="java.util.TimerTask-DataGenerator.DataThread.DataTask" style="stroke: #A80036; stroke-width: 1.0;"/><polygon fill="none" points="1116.4259,389.2501,1137.5773,387.9768,1121.8365,402.1623,1116.4259,389.2501" style="stroke: #A80036; stroke-width: 1.0;"/><!--link DataGenerator.DataThread.DataTask to DataGenerator.Value--><path d="M345.5,593.6265 C345.5,661.0795 345.5,778.2896 345.5,828.709 " fill="none" id="DataGenerator.DataThread.DataTask-DataGenerator.Value" style="stroke: #A80036; stroke-width: 1.0;"/><polygon fill="#FFFFFF" points="345.5,580.4318,341.5,586.4318,345.5,592.4318,349.5,586.4318,345.5,580.4318" style="stroke: #A80036; stroke-width: 1.0;"/><text fill="#000000" font-family="sans-serif" font-size="13" lengthAdjust="spacingAndGlyphs" textLength="34" x="346.5" y="748.4731">value</text><!--link DataGenerator.GeneratorInterface to DataGenerator.HeartRateGenerator--><path d="M746.4175,239.6654 C707.8334,302.3646 647.3411,400.6645 605.6806,468.3629 " fill="none" id="DataGenerator.GeneratorInterface-DataGenerator.HeartRateGenerator" style="stroke: #A80036; stroke-width: 1.0; stroke-dasharray: 7.0,7.0;"/><polygon fill="none" points="740.481,235.9557,756.9246,222.5912,752.4042,243.2931,740.481,235.9557" style="stroke: #A80036; stroke-width: 1.0;"/><!--link DataGenerator.HeartRateGenerator to System.Sistema--><path d="M649.6168,625.9195 C656.7518,630.401 664.0771,634.4671 671.5,637.9063 C785.596,690.7688 825.4752,671.4472 950.5,684.9063 C969.0805,686.9065 1101.4862,685.1755 1118.5,692.9063 C1131.3556,698.7476 1142.5493,709.6325 1150.98,719.8509 " fill="none" id="DataGenerator.HeartRateGenerator-System.Sistema" style="stroke: #A80036; stroke-width: 1.0;"/><polygon fill="#FFFFFF" points="638.5746,618.5659,641.3514,625.2209,648.5625,625.2173,645.7857,618.5622,638.5746,618.5659" style="stroke: #A80036; stroke-width: 1.0;"/><text fill="#000000" font-family="sans-serif" font-size="13" lengthAdjust="spacingAndGlyphs" textLength="21" x="951.5" y="680.9731">sys</text><!--link DataGenerator.GeneratorInterface to DataGenerator.TemperatureGenerator--><path d="M783.5,242.9185 C783.5,305.7234 783.5,401.8243 783.5,468.3629 " fill="none" id="DataGenerator.GeneratorInterface-DataGenerator.TemperatureGenerator" style="stroke: #A80036; stroke-width: 1.0; stroke-dasharray: 7.0,7.0;"/><polygon fill="none" points="776.5001,242.5912,783.5,222.5912,790.5001,242.5911,776.5001,242.5912" style="stroke: #A80036; stroke-width: 1.0;"/><!--link DataGenerator.TemperatureGenerator to System.Sistema--><path d="M875.3085,626.1016 C881.9317,630.4109 888.6895,634.3998 895.5,637.9063 C970.5412,676.5426 997.2467,665.9762 1079.5,684.9063 C1096.7435,688.8748 1103.0047,684.3634 1118.5,692.9063 C1130.4355,699.4866 1141.2329,709.9487 1149.6351,719.6893 " fill="none" id="DataGenerator.TemperatureGenerator-System.Sistema" style="stroke: #A80036; stroke-width: 1.0;"/><polygon fill="#FFFFFF" points="864.3035,618.5754,866.9981,625.2641,874.2087,625.3494,871.5141,618.6606,864.3035,618.5754" style="stroke: #A80036; stroke-width: 1.0;"/><text fill="#000000" font-family="sans-serif" font-size="13" lengthAdjust="spacingAndGlyphs" textLength="21" x="1080.5" y="680.9731">sys</text><!--
@startuml
title __DATAGENERATOR's Class Diagram__\n

      class DataGenerator.BPGenerator {
          - canGenerateAlarm : boolean
          - meanD : double
          - meanS : double
          - randomD : Random
          - randomS : Random
          - varianceD : double
          - varianceS : double
          + BPGenerator()
          + evolve()
          + getValue()
          + reset()
      }
  

      class DataGenerator.DataThread {
          - numTask : int
          - run : boolean
          - store : Store<StringCommand>
          - taskJob : Value[]
          - tasks : ArrayList<TimerTask>
          - timers : ArrayList<Timer>
          - times : Long[]
          + DataThread()
          + interrupt()
          + restart()
          + start()
      }
  

      class DataGenerator.DataThread.DataTask {
          + DataTask()
          + run()
      }
  

      interface DataGenerator.GeneratorInterface {
          {abstract} + evolve()
          {abstract} + getValue()
          {abstract} + reset()
      }
  

      class DataGenerator.HeartRateGenerator {
          - canGenerateAlarm : boolean
          - mean : double
          - random : Random
          - variance : double
          + HeartRateGenerator()
          + evolve()
          + getValue()
          + reset()
      }
  

      enum Sickness {
        ARITMIA
        FLUTTER
        IPERTENSIONE
        IPERTERMIA
        IPOTENSIONE
        IPOTERMIA
        TACHICARDIA
      }
  

      class DataGenerator.TemperatureGenerator {
          - canGenerateAlarm : boolean
          - mean : double
          - random : Random
          - variance : double
          + TemperatureGenerator()
          + evolve()
          + getValue()
          + reset()
      }
  

      enum Value {
        BP
        HEART_RATE
        TEMPERATURE
      }
  

  DataGenerator.BPGenerator .up.|> DataGenerator.GeneratorInterface
  DataGenerator.BPGenerator o- - System.Sistema : sys
  DataGenerator.DataThread +-down- DataGenerator.DataThread.DataTask
  DataGenerator.DataThread.DataTask -up-|> java.util.TimerTask
  DataGenerator.DataThread.DataTask o- - DataGenerator.Value : value
  DataGenerator.HeartRateGenerator .up.|> DataGenerator.GeneratorInterface
  DataGenerator.HeartRateGenerator o- - System.Sistema : sys
  DataGenerator.TemperatureGenerator .up.|> DataGenerator.GeneratorInterface
  DataGenerator.TemperatureGenerator o- - System.Sistema : sys
@enduml

PlantUML version 1.2019.04(Fri Mar 29 15:44:36 UTC 2019)
(GPL source distribution)
Java Runtime: OpenJDK Runtime Environment
JVM: OpenJDK 64-Bit Server VM
Java Version: 1.8.0_201-heroku-b09
Operating System: Linux
OS Version: 4.4.0-1046-aws
Default Encoding: UTF-8
Language: en
Country: US
--></g></svg>