<?xml version="1.0" encoding="UTF-8" standalone="no"?><svg xmlns="http://www.w3.org/2000/svg" xmlns:xlink="http://www.w3.org/1999/xlink" contentScriptType="application/ecmascript" contentStyleType="text/css" height="841px" preserveAspectRatio="none" style="width:1534px;height:841px;" version="1.1" viewBox="0 0 1534 841" width="1534px" zoomAndPan="magnify"><defs><filter height="300%" id="f1hytk01flb9xf" width="300%" x="-1" y="-1"><feGaussianBlur result="blurOut" stdDeviation="2.0"/><feColorMatrix in="blurOut" result="blurOut2" type="matrix" values="0 0 0 0 0 0 0 0 0 0 0 0 0 0 0 0 0 0 .4 0"/><feOffset dx="4.0" dy="4.0" in="blurOut2" result="blurOut3"/><feBlend in="SourceGraphic" in2="blurOut3" mode="normal"/></filter></defs><g><text fill="#000000" font-family="sans-serif" font-size="18" lengthAdjust="spacingAndGlyphs" text-decoration="underline" textLength="378" x="554.5" y="16.708">HPCONTROLLERFACTORY's Class Diagram</text><text fill="#000000" font-family="sans-serif" font-size="18" lengthAdjust="spacingAndGlyphs" textLength="0" x="746.5" y="37.6611"/><!--cluster InterfaceController.HPControllerFactory--><polygon fill="#FFFFFF" filter="url(#f1hytk01flb9xf)" points="14,57.9063,334,57.9063,341,80.2031,1394,80.2031,1394,699.9063,14,699.9063,14,57.9063" style="stroke: #000000; stroke-width: 1.5;"/><line style="stroke: #000000; stroke-width: 1.5;" x1="14" x2="341" y1="80.2031" y2="80.2031"/><text fill="#000000" font-family="sans-serif" font-size="14" font-weight="bold" lengthAdjust="spacingAndGlyphs" textLength="314" x="18" y="72.9014">InterfaceController.HPControllerFactory</text><!--cluster System--><polygon fill="#FFFFFF" filter="url(#f1hytk01flb9xf)" points="807,746.9063,871,746.9063,878,769.2031,905,769.2031,905,829.9063,807,829.9063,807,746.9063" style="stroke: #000000; stroke-width: 1.5;"/><line style="stroke: #000000; stroke-width: 1.5;" x1="807" x2="878" y1="769.2031" y2="769.2031"/><text fill="#000000" font-family="sans-serif" font-size="14" font-weight="bold" lengthAdjust="spacingAndGlyphs" textLength="58" x="811" y="761.9014">System</text><!--class InterfaceController.HPControllerFactory.HPController--><rect fill="#FEFECE" filter="url(#f1hytk01flb9xf)" height="48" id="InterfaceController.HPControllerFactory.HPController" style="stroke: #A80036; stroke-width: 1.5;" width="110" x="581" y="91.4063"/><ellipse cx="596" cy="107.4063" fill="#B4A7E5" rx="11" ry="11" style="stroke: #A80036; stroke-width: 1.0;"/><path d="M591.9219,103.1719 L591.9219,101.0156 L599.3125,101.0156 L599.3125,103.1719 L596.8438,103.1719 L596.8438,111.25 L599.3125,111.25 L599.3125,113.4063 L591.9219,113.4063 L591.9219,111.25 L594.3906,111.25 L594.3906,103.1719 L591.9219,103.1719 Z "/><text fill="#000000" font-family="sans-serif" font-size="12" font-style="italic" lengthAdjust="spacingAndGlyphs" textLength="78" x="610" y="111.5605">HPController</text><line style="stroke: #A80036; stroke-width: 1.5;" x1="582" x2="690" y1="123.4063" y2="123.4063"/><line style="stroke: #A80036; stroke-width: 1.5;" x1="582" x2="690" y1="131.4063" y2="131.4063"/><!--class InterfaceController.HPControllerFactory.HPControllerFactory--><rect fill="#FEFECE" filter="url(#f1hytk01flb9xf)" height="60.8047" id="InterfaceController.HPControllerFactory.HPControllerFactory" style="stroke: #A80036; stroke-width: 1.5;" width="156" x="1230" y="84.9063"/><ellipse cx="1245" cy="100.9063" fill="#ADD1B2" rx="11" ry="11" style="stroke: #A80036; stroke-width: 1.0;"/><path d="M1247.9688,106.5469 Q1247.3906,106.8438 1246.75,106.9922 Q1246.1094,107.1406 1245.4063,107.1406 Q1242.9063,107.1406 1241.5859,105.4922 Q1240.2656,103.8438 1240.2656,100.7188 Q1240.2656,97.5938 1241.5859,95.9375 Q1242.9063,94.2813 1245.4063,94.2813 Q1246.1094,94.2813 1246.7578,94.4375 Q1247.4063,94.5938 1247.9688,94.8906 L1247.9688,97.6094 Q1247.3438,97.0313 1246.75,96.7578 Q1246.1563,96.4844 1245.5313,96.4844 Q1244.1875,96.4844 1243.5,97.5547 Q1242.8125,98.625 1242.8125,100.7188 Q1242.8125,102.8125 1243.5,103.8828 Q1244.1875,104.9531 1245.5313,104.9531 Q1246.1563,104.9531 1246.75,104.6797 Q1247.3438,104.4063 1247.9688,103.8281 L1247.9688,106.5469 Z "/><text fill="#000000" font-family="sans-serif" font-size="12" lengthAdjust="spacingAndGlyphs" textLength="124" x="1259" y="105.0605">HPControllerFactory</text><line style="stroke: #A80036; stroke-width: 1.5;" x1="1231" x2="1385" y1="116.9063" y2="116.9063"/><line style="stroke: #A80036; stroke-width: 1.5;" x1="1231" x2="1385" y1="124.9063" y2="124.9063"/><ellipse cx="1241" cy="136.8086" fill="#84BE84" rx="3" ry="3" style="stroke: #038048; stroke-width: 1.0;"/><text fill="#000000" font-family="sans-serif" font-size="11" lengthAdjust="spacingAndGlyphs" textLength="82" x="1250" y="139.1167">getController()</text><!--class InterfaceController.HPControllerFactory.HPDController--><rect fill="#FEFECE" filter="url(#f1hytk01flb9xf)" height="393.7266" id="InterfaceController.HPControllerFactory.HPDController" style="stroke: #A80036; stroke-width: 1.5;" width="252" x="22" y="291.4063"/><ellipse cx="100.25" cy="307.4063" fill="#ADD1B2" rx="11" ry="11" style="stroke: #A80036; stroke-width: 1.0;"/><path d="M103.2188,313.0469 Q102.6406,313.3438 102,313.4922 Q101.3594,313.6406 100.6563,313.6406 Q98.1563,313.6406 96.8359,311.9922 Q95.5156,310.3438 95.5156,307.2188 Q95.5156,304.0938 96.8359,302.4375 Q98.1563,300.7813 100.6563,300.7813 Q101.3594,300.7813 102.0078,300.9375 Q102.6563,301.0938 103.2188,301.3906 L103.2188,304.1094 Q102.5938,303.5313 102,303.2578 Q101.4063,302.9844 100.7813,302.9844 Q99.4375,302.9844 98.75,304.0547 Q98.0625,305.125 98.0625,307.2188 Q98.0625,309.3125 98.75,310.3828 Q99.4375,311.4531 100.7813,311.4531 Q101.4063,311.4531 102,311.1797 Q102.5938,310.9063 103.2188,310.3281 L103.2188,313.0469 Z "/><text fill="#000000" font-family="sans-serif" font-size="12" lengthAdjust="spacingAndGlyphs" textLength="87" x="120.75" y="311.5605">HPDController</text><line style="stroke: #A80036; stroke-width: 1.5;" x1="23" x2="273" y1="323.4063" y2="323.4063"/><rect fill="none" height="6" style="stroke: #C82930; stroke-width: 1.0;" width="6" x="30" y="332.3086"/><text fill="#000000" font-family="sans-serif" font-size="11" lengthAdjust="spacingAndGlyphs" textLength="92" x="42" y="337.6167">dis : Disposable</text><rect fill="none" height="6" style="stroke: #C82930; stroke-width: 1.0;" width="6" x="30" y="345.1133"/><text fill="#000000" font-family="sans-serif" font-size="11" lengthAdjust="spacingAndGlyphs" textLength="142" x="42" y="350.4214">dischargeText : TextArea</text><rect fill="none" height="6" style="stroke: #C82930; stroke-width: 1.0;" width="6" x="30" y="357.918"/><text fill="#000000" font-family="sans-serif" font-size="11" lengthAdjust="spacingAndGlyphs" textLength="104" x="42" y="363.2261">nameLabel : Label</text><rect fill="none" height="6" style="stroke: #C82930; stroke-width: 1.0;" width="6" x="30" y="370.7227"/><text fill="#000000" font-family="sans-serif" font-size="11" lengthAdjust="spacingAndGlyphs" textLength="145" x="42" y="376.0308">patientDateofBirth : Label</text><rect fill="none" height="6" style="stroke: #C82930; stroke-width: 1.0;" width="6" x="30" y="383.5273"/><text fill="#000000" font-family="sans-serif" font-size="11" lengthAdjust="spacingAndGlyphs" textLength="114" x="42" y="388.8354">patientName : Label</text><rect fill="none" height="6" style="stroke: #C82930; stroke-width: 1.0;" width="6" x="30" y="396.332"/><text fill="#000000" font-family="sans-serif" font-size="11" lengthAdjust="spacingAndGlyphs" textLength="149" x="42" y="401.6401">patientPlaceofBirth : Label</text><rect fill="none" height="6" style="stroke: #C82930; stroke-width: 1.0;" width="6" x="30" y="409.1367"/><text fill="#000000" font-family="sans-serif" font-size="11" lengthAdjust="spacingAndGlyphs" textLength="179" x="42" y="414.4448">patientRecoveryEndDate : Label</text><rect fill="none" height="6" style="stroke: #C82930; stroke-width: 1.0;" width="6" x="30" y="421.9414"/><text fill="#000000" font-family="sans-serif" font-size="11" lengthAdjust="spacingAndGlyphs" textLength="181" x="42" y="427.2495">patientRecoveryReasons : Label</text><rect fill="none" height="6" style="stroke: #C82930; stroke-width: 1.0;" width="6" x="30" y="434.7461"/><text fill="#000000" font-family="sans-serif" font-size="11" lengthAdjust="spacingAndGlyphs" textLength="186" x="42" y="440.0542">patientRecoveryStartDate : Label</text><rect fill="none" height="6" style="stroke: #C82930; stroke-width: 1.0;" width="6" x="30" y="447.5508"/><text fill="#000000" font-family="sans-serif" font-size="11" lengthAdjust="spacingAndGlyphs" textLength="133" x="42" y="452.8589">patientSurname : Label</text><rect fill="none" height="6" style="stroke: #C82930; stroke-width: 1.0;" width="6" x="30" y="460.3555"/><text fill="#000000" font-family="sans-serif" font-size="11" lengthAdjust="spacingAndGlyphs" textLength="226" x="42" y="465.6636">patientsChoice : ComboBox&lt;Recovery&gt;</text><rect fill="none" height="6" style="stroke: #C82930; stroke-width: 1.0;" width="6" x="30" y="473.1602"/><text fill="#000000" font-family="sans-serif" font-size="11" lengthAdjust="spacingAndGlyphs" textLength="183" x="42" y="478.4683">store : Store&lt;StringCommand&gt;</text><line style="stroke: #A80036; stroke-width: 1.5;" x1="23" x2="273" y1="485.0625" y2="485.0625"/><ellipse cx="33" cy="496.9648" fill="#84BE84" rx="3" ry="3" style="stroke: #038048; stroke-width: 1.0;"/><text fill="#000000" font-family="sans-serif" font-size="11" lengthAdjust="spacingAndGlyphs" textLength="87" x="42" y="499.2729">HPDController()</text><polygon fill="#FFFF44" points="33,504.7695,37,508.7695,33,512.7695,29,508.7695" style="stroke: #B38D22; stroke-width: 1.0;"/><text fill="#000000" font-family="sans-serif" font-size="11" lengthAdjust="spacingAndGlyphs" textLength="38" x="42" y="512.0776">close()</text><polygon fill="#FFFF44" points="33,517.5742,37,521.5742,33,525.5742,29,521.5742" style="stroke: #B38D22; stroke-width: 1.0;"/><text fill="#000000" font-family="sans-serif" font-size="11" lengthAdjust="spacingAndGlyphs" textLength="64" x="42" y="524.8823">discharge()</text><polygon fill="#FFFF44" points="33,530.3789,37,534.3789,33,538.3789,29,534.3789" style="stroke: #B38D22; stroke-width: 1.0;"/><text fill="#000000" font-family="sans-serif" font-size="11" lengthAdjust="spacingAndGlyphs" textLength="92" x="42" y="537.687">dismissPatient()</text><polygon fill="#FFFF44" points="33,543.1836,37,547.1836,33,551.1836,29,547.1836" style="stroke: #B38D22; stroke-width: 1.0;"/><text fill="#000000" font-family="sans-serif" font-size="11" lengthAdjust="spacingAndGlyphs" textLength="53" x="42" y="550.4917">initialize()</text><polygon fill="#FFFF44" points="33,555.9883,37,559.9883,33,563.9883,29,559.9883" style="stroke: #B38D22; stroke-width: 1.0;"/><text fill="#000000" font-family="sans-serif" font-size="11" lengthAdjust="spacingAndGlyphs" textLength="53" x="42" y="563.2964">initialize()</text><polygon fill="#FFFF44" points="33,568.793,37,572.793,33,576.793,29,572.793" style="stroke: #B38D22; stroke-width: 1.0;"/><text fill="#000000" font-family="sans-serif" font-size="11" lengthAdjust="spacingAndGlyphs" textLength="43" x="42" y="576.1011">logout()</text><polygon fill="#FFFF44" points="33,581.5977,37,585.5977,33,589.5977,29,585.5977" style="stroke: #B38D22; stroke-width: 1.0;"/><text fill="#000000" font-family="sans-serif" font-size="11" lengthAdjust="spacingAndGlyphs" textLength="47" x="42" y="588.9058">search()</text><polygon fill="#FFFF44" points="33,594.4023,37,598.4023,33,602.4023,29,598.4023" style="stroke: #B38D22; stroke-width: 1.0;"/><text fill="#000000" font-family="sans-serif" font-size="11" lengthAdjust="spacingAndGlyphs" textLength="170" x="42" y="601.7104">selectedItemFromCombobox()</text><polygon fill="#FFFF44" points="33,607.207,37,611.207,33,615.207,29,611.207" style="stroke: #B38D22; stroke-width: 1.0;"/><text fill="#000000" font-family="sans-serif" font-size="11" lengthAdjust="spacingAndGlyphs" textLength="63" x="42" y="614.5151">setLabels()</text><polygon fill="#FFFF44" points="33,620.0117,37,624.0117,33,628.0117,29,624.0117" style="stroke: #B38D22; stroke-width: 1.0;"/><text fill="#000000" font-family="sans-serif" font-size="11" lengthAdjust="spacingAndGlyphs" textLength="38" x="42" y="627.3198">show()</text><polygon fill="#FFFF44" points="33,632.8164,37,636.8164,33,640.8164,29,636.8164" style="stroke: #B38D22; stroke-width: 1.0;"/><text fill="#000000" font-family="sans-serif" font-size="11" lengthAdjust="spacingAndGlyphs" textLength="77" x="42" y="640.1245">showLast2H()</text><polygon fill="#FFFF44" points="33,645.6211,37,649.6211,33,653.6211,29,649.6211" style="stroke: #B38D22; stroke-width: 1.0;"/><text fill="#000000" font-family="sans-serif" font-size="11" lengthAdjust="spacingAndGlyphs" textLength="97" x="42" y="652.9292">showMonitoring()</text><polygon fill="#FFFF44" points="33,658.4258,37,662.4258,33,666.4258,29,662.4258" style="stroke: #B38D22; stroke-width: 1.0;"/><text fill="#000000" font-family="sans-serif" font-size="11" lengthAdjust="spacingAndGlyphs" textLength="83" x="42" y="665.7339">showSupport()</text><polygon fill="#FFFF44" points="33,671.2305,37,675.2305,33,679.2305,29,675.2305" style="stroke: #B38D22; stroke-width: 1.0;"/><text fill="#000000" font-family="sans-serif" font-size="11" lengthAdjust="spacingAndGlyphs" textLength="109" x="42" y="678.5386">updateRecoveries()</text><!--class InterfaceController.HPControllerFactory.HPMController--><rect fill="#FEFECE" filter="url(#f1hytk01flb9xf)" height="329.7031" id="InterfaceController.HPControllerFactory.HPMController" style="stroke: #A80036; stroke-width: 1.5;" width="345" x="309.5" y="323.4063"/><ellipse cx="433.75" cy="339.4063" fill="#ADD1B2" rx="11" ry="11" style="stroke: #A80036; stroke-width: 1.0;"/><path d="M436.7188,345.0469 Q436.1406,345.3438 435.5,345.4922 Q434.8594,345.6406 434.1563,345.6406 Q431.6563,345.6406 430.3359,343.9922 Q429.0156,342.3438 429.0156,339.2188 Q429.0156,336.0938 430.3359,334.4375 Q431.6563,332.7813 434.1563,332.7813 Q434.8594,332.7813 435.5078,332.9375 Q436.1563,333.0938 436.7188,333.3906 L436.7188,336.1094 Q436.0938,335.5313 435.5,335.2578 Q434.9063,334.9844 434.2813,334.9844 Q432.9375,334.9844 432.25,336.0547 Q431.5625,337.125 431.5625,339.2188 Q431.5625,341.3125 432.25,342.3828 Q432.9375,343.4531 434.2813,343.4531 Q434.9063,343.4531 435.5,343.1797 Q436.0938,342.9063 436.7188,342.3281 L436.7188,345.0469 Z "/><text fill="#000000" font-family="sans-serif" font-size="12" lengthAdjust="spacingAndGlyphs" textLength="88" x="454.25" y="343.5605">HPMController</text><line style="stroke: #A80036; stroke-width: 1.5;" x1="310.5" x2="653.5" y1="355.4063" y2="355.4063"/><rect fill="none" height="6" style="stroke: #C82930; stroke-width: 1.0;" width="6" x="317.5" y="364.3086"/><text fill="#000000" font-family="sans-serif" font-size="11" lengthAdjust="spacingAndGlyphs" textLength="92" x="329.5" y="369.6167">dis : Disposable</text><rect fill="none" height="6" style="stroke: #C82930; stroke-width: 1.0;" width="6" x="317.5" y="377.1133"/><text fill="#000000" font-family="sans-serif" font-size="11" lengthAdjust="spacingAndGlyphs" textLength="297" x="329.5" y="382.4214">drugColumn : TableColumn&lt;Administration, String&gt;</text><rect fill="none" height="6" style="stroke: #C82930; stroke-width: 1.0;" width="6" x="317.5" y="389.918"/><text fill="#000000" font-family="sans-serif" font-size="11" lengthAdjust="spacingAndGlyphs" textLength="104" x="329.5" y="395.2261">nameLabel : Label</text><rect fill="none" height="6" style="stroke: #C82930; stroke-width: 1.0;" width="6" x="317.5" y="402.7227"/><text fill="#000000" font-family="sans-serif" font-size="11" lengthAdjust="spacingAndGlyphs" textLength="242" x="329.5" y="408.0308">patientComboBox : ComboBox&lt;Recovery&gt;</text><rect fill="none" height="6" style="stroke: #C82930; stroke-width: 1.0;" width="6" x="317.5" y="415.5273"/><text fill="#000000" font-family="sans-serif" font-size="11" lengthAdjust="spacingAndGlyphs" textLength="183" x="329.5" y="420.8354">store : Store&lt;StringCommand&gt;</text><rect fill="none" height="6" style="stroke: #C82930; stroke-width: 1.0;" width="6" x="317.5" y="428.332"/><text fill="#000000" font-family="sans-serif" font-size="11" lengthAdjust="spacingAndGlyphs" textLength="286" x="329.5" y="433.6401">tableAdministrations : TableView&lt;Administration&gt;</text><rect fill="none" height="6" style="stroke: #C82930; stroke-width: 1.0;" width="6" x="317.5" y="441.1367"/><text fill="#000000" font-family="sans-serif" font-size="11" lengthAdjust="spacingAndGlyphs" textLength="240" x="329.5" y="446.4448">tableMonitorings : TableView&lt;Monitoring&gt;</text><rect fill="none" height="6" style="stroke: #C82930; stroke-width: 1.0;" width="6" x="317.5" y="453.9414"/><text fill="#000000" font-family="sans-serif" font-size="11" lengthAdjust="spacingAndGlyphs" textLength="319" x="329.5" y="459.2495">temperatureColumn : TableColumn&lt;Monitoring, String&gt;</text><line style="stroke: #A80036; stroke-width: 1.5;" x1="310.5" x2="653.5" y1="465.8438" y2="465.8438"/><ellipse cx="320.5" cy="477.7461" fill="#84BE84" rx="3" ry="3" style="stroke: #038048; stroke-width: 1.0;"/><text fill="#000000" font-family="sans-serif" font-size="11" lengthAdjust="spacingAndGlyphs" textLength="88" x="329.5" y="480.0542">HPMController()</text><ellipse cx="320.5" cy="490.5508" fill="#84BE84" rx="3" ry="3" style="stroke: #038048; stroke-width: 1.0;"/><text fill="#000000" font-family="sans-serif" font-size="11" lengthAdjust="spacingAndGlyphs" textLength="53" x="329.5" y="492.8589">initialize()</text><ellipse cx="320.5" cy="503.3555" fill="#84BE84" rx="3" ry="3" style="stroke: #038048; stroke-width: 1.0;"/><text fill="#000000" font-family="sans-serif" font-size="11" lengthAdjust="spacingAndGlyphs" textLength="53" x="329.5" y="505.6636">initialize()</text><ellipse cx="320.5" cy="516.1602" fill="#84BE84" rx="3" ry="3" style="stroke: #038048; stroke-width: 1.0;"/><text fill="#000000" font-family="sans-serif" font-size="11" lengthAdjust="spacingAndGlyphs" textLength="95" x="329.5" y="518.4683">selectedPatient()</text><ellipse cx="320.5" cy="528.9648" fill="#84BE84" rx="3" ry="3" style="stroke: #038048; stroke-width: 1.0;"/><text fill="#000000" font-family="sans-serif" font-size="11" lengthAdjust="spacingAndGlyphs" textLength="52" x="329.5" y="531.2729">setData()</text><ellipse cx="320.5" cy="541.7695" fill="#84BE84" rx="3" ry="3" style="stroke: #038048; stroke-width: 1.0;"/><text fill="#000000" font-family="sans-serif" font-size="11" lengthAdjust="spacingAndGlyphs" textLength="93" x="329.5" y="544.0776">updatePatients()</text><polygon fill="#FFFF44" points="320.5,549.5742,324.5,553.5742,320.5,557.5742,316.5,553.5742" style="stroke: #B38D22; stroke-width: 1.0;"/><text fill="#000000" font-family="sans-serif" font-size="11" lengthAdjust="spacingAndGlyphs" textLength="38" x="329.5" y="556.8823">close()</text><polygon fill="#FFFF44" points="320.5,562.3789,324.5,566.3789,320.5,570.3789,316.5,566.3789" style="stroke: #B38D22; stroke-width: 1.0;"/><text fill="#000000" font-family="sans-serif" font-size="11" lengthAdjust="spacingAndGlyphs" textLength="81" x="329.5" y="569.687">createReport()</text><polygon fill="#FFFF44" points="320.5,575.1836,324.5,579.1836,320.5,583.1836,316.5,579.1836" style="stroke: #B38D22; stroke-width: 1.0;"/><text fill="#000000" font-family="sans-serif" font-size="11" lengthAdjust="spacingAndGlyphs" textLength="92" x="329.5" y="582.4917">dismissPatient()</text><polygon fill="#FFFF44" points="320.5,587.9883,324.5,591.9883,320.5,595.9883,316.5,591.9883" style="stroke: #B38D22; stroke-width: 1.0;"/><text fill="#000000" font-family="sans-serif" font-size="11" lengthAdjust="spacingAndGlyphs" textLength="43" x="329.5" y="595.2964">logout()</text><polygon fill="#FFFF44" points="320.5,600.793,324.5,604.793,320.5,608.793,316.5,604.793" style="stroke: #B38D22; stroke-width: 1.0;"/><text fill="#000000" font-family="sans-serif" font-size="11" lengthAdjust="spacingAndGlyphs" textLength="47" x="329.5" y="608.1011">search()</text><polygon fill="#FFFF44" points="320.5,613.5977,324.5,617.5977,320.5,621.5977,316.5,617.5977" style="stroke: #B38D22; stroke-width: 1.0;"/><text fill="#000000" font-family="sans-serif" font-size="11" lengthAdjust="spacingAndGlyphs" textLength="77" x="329.5" y="620.9058">showLast2H()</text><polygon fill="#FFFF44" points="320.5,626.4023,324.5,630.4023,320.5,634.4023,316.5,630.4023" style="stroke: #B38D22; stroke-width: 1.0;"/><text fill="#000000" font-family="sans-serif" font-size="11" lengthAdjust="spacingAndGlyphs" textLength="97" x="329.5" y="633.7104">showMonitoring()</text><polygon fill="#FFFF44" points="320.5,639.207,324.5,643.207,320.5,647.207,316.5,643.207" style="stroke: #B38D22; stroke-width: 1.0;"/><text fill="#000000" font-family="sans-serif" font-size="11" lengthAdjust="spacingAndGlyphs" textLength="83" x="329.5" y="646.5151">showSupport()</text><!--class InterfaceController.HPControllerFactory.HPSController--><rect fill="#FEFECE" filter="url(#f1hytk01flb9xf)" height="291.2891" id="InterfaceController.HPControllerFactory.HPSController" style="stroke: #A80036; stroke-width: 1.5;" width="334" x="689" y="342.9063"/><ellipse cx="808.75" cy="358.9063" fill="#ADD1B2" rx="11" ry="11" style="stroke: #A80036; stroke-width: 1.0;"/><path d="M811.7188,364.5469 Q811.1406,364.8438 810.5,364.9922 Q809.8594,365.1406 809.1563,365.1406 Q806.6563,365.1406 805.3359,363.4922 Q804.0156,361.8438 804.0156,358.7188 Q804.0156,355.5938 805.3359,353.9375 Q806.6563,352.2813 809.1563,352.2813 Q809.8594,352.2813 810.5078,352.4375 Q811.1563,352.5938 811.7188,352.8906 L811.7188,355.6094 Q811.0938,355.0313 810.5,354.7578 Q809.9063,354.4844 809.2813,354.4844 Q807.9375,354.4844 807.25,355.5547 Q806.5625,356.625 806.5625,358.7188 Q806.5625,360.8125 807.25,361.8828 Q807.9375,362.9531 809.2813,362.9531 Q809.9063,362.9531 810.5,362.6797 Q811.0938,362.4063 811.7188,361.8281 L811.7188,364.5469 Z "/><text fill="#000000" font-family="sans-serif" font-size="12" lengthAdjust="spacingAndGlyphs" textLength="86" x="829.25" y="363.0605">HPSController</text><line style="stroke: #A80036; stroke-width: 1.5;" x1="690" x2="1022" y1="374.9063" y2="374.9063"/><rect fill="none" height="6" style="stroke: #C82930; stroke-width: 1.0;" width="6" x="697" y="383.8086"/><text fill="#000000" font-family="sans-serif" font-size="11" lengthAdjust="spacingAndGlyphs" textLength="92" x="709" y="389.1167">dis : Disposable</text><rect fill="none" height="6" style="stroke: #C82930; stroke-width: 1.0;" width="6" x="697" y="396.6133"/><text fill="#000000" font-family="sans-serif" font-size="11" lengthAdjust="spacingAndGlyphs" textLength="308" x="709" y="401.9214">dischargeSummary : TableColumn&lt;Recovery, String&gt;</text><rect fill="none" height="6" style="stroke: #C82930; stroke-width: 1.0;" width="6" x="697" y="409.418"/><text fill="#000000" font-family="sans-serif" font-size="11" lengthAdjust="spacingAndGlyphs" textLength="287" x="709" y="414.7261">endDateColumn : TableColumn&lt;Recovery, String&gt;</text><rect fill="none" height="6" style="stroke: #C82930; stroke-width: 1.0;" width="6" x="697" y="422.2227"/><text fill="#000000" font-family="sans-serif" font-size="11" lengthAdjust="spacingAndGlyphs" textLength="104" x="709" y="427.5308">nameLabel : Label</text><rect fill="none" height="6" style="stroke: #C82930; stroke-width: 1.0;" width="6" x="697" y="435.0273"/><text fill="#000000" font-family="sans-serif" font-size="11" lengthAdjust="spacingAndGlyphs" textLength="218" x="709" y="440.3354">recoveryTable : TableView&lt;Recovery&gt;</text><rect fill="none" height="6" style="stroke: #C82930; stroke-width: 1.0;" width="6" x="697" y="447.832"/><text fill="#000000" font-family="sans-serif" font-size="11" lengthAdjust="spacingAndGlyphs" textLength="140" x="709" y="453.1401">searchPatient : TextField</text><rect fill="none" height="6" style="stroke: #C82930; stroke-width: 1.0;" width="6" x="697" y="460.6367"/><text fill="#000000" font-family="sans-serif" font-size="11" lengthAdjust="spacingAndGlyphs" textLength="183" x="709" y="465.9448">store : Store&lt;StringCommand&gt;</text><line style="stroke: #A80036; stroke-width: 1.5;" x1="690" x2="1022" y1="472.5391" y2="472.5391"/><ellipse cx="700" cy="484.4414" fill="#84BE84" rx="3" ry="3" style="stroke: #038048; stroke-width: 1.0;"/><text fill="#000000" font-family="sans-serif" font-size="11" lengthAdjust="spacingAndGlyphs" textLength="87" x="709" y="486.7495">HPSController()</text><polygon fill="#FFFF44" points="700,492.2461,704,496.2461,700,500.2461,696,496.2461" style="stroke: #B38D22; stroke-width: 1.0;"/><text fill="#000000" font-family="sans-serif" font-size="11" lengthAdjust="spacingAndGlyphs" textLength="38" x="709" y="499.5542">close()</text><polygon fill="#FFFF44" points="700,505.0508,704,509.0508,700,513.0508,696,509.0508" style="stroke: #B38D22; stroke-width: 1.0;"/><text fill="#000000" font-family="sans-serif" font-size="11" lengthAdjust="spacingAndGlyphs" textLength="92" x="709" y="512.3589">dismissPatient()</text><polygon fill="#FFFF44" points="700,517.8555,704,521.8555,700,525.8555,696,521.8555" style="stroke: #B38D22; stroke-width: 1.0;"/><text fill="#000000" font-family="sans-serif" font-size="11" lengthAdjust="spacingAndGlyphs" textLength="53" x="709" y="525.1636">initialize()</text><polygon fill="#FFFF44" points="700,530.6602,704,534.6602,700,538.6602,696,534.6602" style="stroke: #B38D22; stroke-width: 1.0;"/><text fill="#000000" font-family="sans-serif" font-size="11" lengthAdjust="spacingAndGlyphs" textLength="43" x="709" y="537.9683">logout()</text><polygon fill="#FFFF44" points="700,543.4648,704,547.4648,700,551.4648,696,547.4648" style="stroke: #B38D22; stroke-width: 1.0;"/><text fill="#000000" font-family="sans-serif" font-size="11" lengthAdjust="spacingAndGlyphs" textLength="47" x="709" y="550.7729">search()</text><polygon fill="#FFFF44" points="700,556.2695,704,560.2695,700,564.2695,696,560.2695" style="stroke: #B38D22; stroke-width: 1.0;"/><text fill="#000000" font-family="sans-serif" font-size="11" lengthAdjust="spacingAndGlyphs" textLength="86" x="709" y="563.5776">searchPatient()</text><polygon fill="#FFFF44" points="700,569.0742,704,573.0742,700,577.0742,696,573.0742" style="stroke: #B38D22; stroke-width: 1.0;"/><text fill="#000000" font-family="sans-serif" font-size="11" lengthAdjust="spacingAndGlyphs" textLength="82" x="709" y="576.3823">searchResult()</text><polygon fill="#FFFF44" points="700,581.8789,704,585.8789,700,589.8789,696,585.8789" style="stroke: #B38D22; stroke-width: 1.0;"/><text fill="#000000" font-family="sans-serif" font-size="11" lengthAdjust="spacingAndGlyphs" textLength="77" x="709" y="589.187">showLast2H()</text><polygon fill="#FFFF44" points="700,594.6836,704,598.6836,700,602.6836,696,598.6836" style="stroke: #B38D22; stroke-width: 1.0;"/><text fill="#000000" font-family="sans-serif" font-size="11" lengthAdjust="spacingAndGlyphs" textLength="97" x="709" y="601.9917">showMonitoring()</text><polygon fill="#FFFF44" points="700,607.4883,704,611.4883,700,615.4883,696,611.4883" style="stroke: #B38D22; stroke-width: 1.0;"/><text fill="#000000" font-family="sans-serif" font-size="11" lengthAdjust="spacingAndGlyphs" textLength="83" x="709" y="614.7964">showSupport()</text><polygon fill="#FFFF44" points="700,620.293,704,624.293,700,628.293,696,624.293" style="stroke: #B38D22; stroke-width: 1.0;"/><text fill="#000000" font-family="sans-serif" font-size="11" lengthAdjust="spacingAndGlyphs" textLength="109" x="709" y="627.6011">updateRecoveries()</text><!--class InterfaceController.HPControllerFactory.HPSRController--><rect fill="#FEFECE" filter="url(#f1hytk01flb9xf)" height="406.5313" id="InterfaceController.HPControllerFactory.HPSRController" style="stroke: #A80036; stroke-width: 1.5;" width="328" x="1058" y="284.9063"/><ellipse cx="1170.75" cy="300.9063" fill="#ADD1B2" rx="11" ry="11" style="stroke: #A80036; stroke-width: 1.0;"/><path d="M1173.7188,306.5469 Q1173.1406,306.8438 1172.5,306.9922 Q1171.8594,307.1406 1171.1563,307.1406 Q1168.6563,307.1406 1167.3359,305.4922 Q1166.0156,303.8438 1166.0156,300.7188 Q1166.0156,297.5938 1167.3359,295.9375 Q1168.6563,294.2813 1171.1563,294.2813 Q1171.8594,294.2813 1172.5078,294.4375 Q1173.1563,294.5938 1173.7188,294.8906 L1173.7188,297.6094 Q1173.0938,297.0313 1172.5,296.7578 Q1171.9063,296.4844 1171.2813,296.4844 Q1169.9375,296.4844 1169.25,297.5547 Q1168.5625,298.625 1168.5625,300.7188 Q1168.5625,302.8125 1169.25,303.8828 Q1169.9375,304.9531 1171.2813,304.9531 Q1171.9063,304.9531 1172.5,304.6797 Q1173.0938,304.4063 1173.7188,303.8281 L1173.7188,306.5469 Z "/><text fill="#000000" font-family="sans-serif" font-size="12" lengthAdjust="spacingAndGlyphs" textLength="94" x="1191.25" y="305.0605">HPSRController</text><line style="stroke: #A80036; stroke-width: 1.5;" x1="1059" x2="1385" y1="316.9063" y2="316.9063"/><rect fill="none" height="6" style="stroke: #C82930; stroke-width: 1.0;" width="6" x="1066" y="325.8086"/><text fill="#000000" font-family="sans-serif" font-size="11" lengthAdjust="spacingAndGlyphs" textLength="258" x="1078" y="331.1167">administrations : TableView&lt;Administration&gt;</text><rect fill="none" height="6" style="stroke: #C82930; stroke-width: 1.0;" width="6" x="1066" y="338.6133"/><text fill="#000000" font-family="sans-serif" font-size="11" lengthAdjust="spacingAndGlyphs" textLength="92" x="1078" y="343.9214">dis : Disposable</text><rect fill="none" height="6" style="stroke: #C82930; stroke-width: 1.0;" width="6" x="1066" y="351.418"/><text fill="#000000" font-family="sans-serif" font-size="11" lengthAdjust="spacingAndGlyphs" textLength="297" x="1078" y="356.7261">drugColumn : TableColumn&lt;Administration, String&gt;</text><rect fill="none" height="6" style="stroke: #C82930; stroke-width: 1.0;" width="6" x="1066" y="364.2227"/><text fill="#000000" font-family="sans-serif" font-size="11" lengthAdjust="spacingAndGlyphs" textLength="104" x="1078" y="369.5308">nameLabel : Label</text><rect fill="none" height="6" style="stroke: #C82930; stroke-width: 1.0;" width="6" x="1066" y="377.0273"/><text fill="#000000" font-family="sans-serif" font-size="11" lengthAdjust="spacingAndGlyphs" textLength="145" x="1078" y="382.3354">patientDateofBirth : Label</text><rect fill="none" height="6" style="stroke: #C82930; stroke-width: 1.0;" width="6" x="1066" y="389.832"/><text fill="#000000" font-family="sans-serif" font-size="11" lengthAdjust="spacingAndGlyphs" textLength="142" x="1078" y="395.1401">patientFiscalCode : Label</text><rect fill="none" height="6" style="stroke: #C82930; stroke-width: 1.0;" width="6" x="1066" y="402.6367"/><text fill="#000000" font-family="sans-serif" font-size="11" lengthAdjust="spacingAndGlyphs" textLength="114" x="1078" y="407.9448">patientName : Label</text><rect fill="none" height="6" style="stroke: #C82930; stroke-width: 1.0;" width="6" x="1066" y="415.4414"/><text fill="#000000" font-family="sans-serif" font-size="11" lengthAdjust="spacingAndGlyphs" textLength="149" x="1078" y="420.7495">patientPlaceofBirth : Label</text><rect fill="none" height="6" style="stroke: #C82930; stroke-width: 1.0;" width="6" x="1066" y="428.2461"/><text fill="#000000" font-family="sans-serif" font-size="11" lengthAdjust="spacingAndGlyphs" textLength="189" x="1078" y="433.5542">patientRecoveryDischarge : Label</text><rect fill="none" height="6" style="stroke: #C82930; stroke-width: 1.0;" width="6" x="1066" y="441.0508"/><text fill="#000000" font-family="sans-serif" font-size="11" lengthAdjust="spacingAndGlyphs" textLength="179" x="1078" y="446.3589">patientRecoveryEndDate : Label</text><rect fill="none" height="6" style="stroke: #C82930; stroke-width: 1.0;" width="6" x="1066" y="453.8555"/><text fill="#000000" font-family="sans-serif" font-size="11" lengthAdjust="spacingAndGlyphs" textLength="181" x="1078" y="459.1636">patientRecoveryReasons : Label</text><rect fill="none" height="6" style="stroke: #C82930; stroke-width: 1.0;" width="6" x="1066" y="466.6602"/><text fill="#000000" font-family="sans-serif" font-size="11" lengthAdjust="spacingAndGlyphs" textLength="186" x="1078" y="471.9683">patientRecoveryStartDate : Label</text><rect fill="none" height="6" style="stroke: #C82930; stroke-width: 1.0;" width="6" x="1066" y="479.4648"/><text fill="#000000" font-family="sans-serif" font-size="11" lengthAdjust="spacingAndGlyphs" textLength="133" x="1078" y="484.7729">patientSurname : Label</text><rect fill="none" height="6" style="stroke: #C82930; stroke-width: 1.0;" width="6" x="1066" y="492.2695"/><text fill="#000000" font-family="sans-serif" font-size="11" lengthAdjust="spacingAndGlyphs" textLength="125" x="1078" y="497.5776">patientText : TextField</text><rect fill="none" height="6" style="stroke: #C82930; stroke-width: 1.0;" width="6" x="1066" y="505.0742"/><text fill="#000000" font-family="sans-serif" font-size="11" lengthAdjust="spacingAndGlyphs" textLength="230" x="1078" y="510.3823">prescriptions : TableView&lt;Prescription&gt;</text><rect fill="none" height="6" style="stroke: #C82930; stroke-width: 1.0;" width="6" x="1066" y="517.8789"/><text fill="#000000" font-family="sans-serif" font-size="11" lengthAdjust="spacingAndGlyphs" textLength="302" x="1078" y="523.187">quantityColumn : TableColumn&lt;Prescription, String&gt;</text><rect fill="none" height="6" style="stroke: #C82930; stroke-width: 1.0;" width="6" x="1066" y="530.6836"/><text fill="#000000" font-family="sans-serif" font-size="11" lengthAdjust="spacingAndGlyphs" textLength="183" x="1078" y="535.9917">store : Store&lt;StringCommand&gt;</text><line style="stroke: #A80036; stroke-width: 1.5;" x1="1059" x2="1385" y1="542.5859" y2="542.5859"/><ellipse cx="1069" cy="554.4883" fill="#84BE84" rx="3" ry="3" style="stroke: #038048; stroke-width: 1.0;"/><text fill="#000000" font-family="sans-serif" font-size="11" lengthAdjust="spacingAndGlyphs" textLength="94" x="1078" y="556.7964">HPSRController()</text><polygon fill="#FFFF44" points="1069,562.293,1073,566.293,1069,570.293,1065,566.293" style="stroke: #B38D22; stroke-width: 1.0;"/><text fill="#000000" font-family="sans-serif" font-size="11" lengthAdjust="spacingAndGlyphs" textLength="38" x="1078" y="569.6011">close()</text><polygon fill="#FFFF44" points="1069,575.0977,1073,579.0977,1069,583.0977,1065,579.0977" style="stroke: #B38D22; stroke-width: 1.0;"/><text fill="#000000" font-family="sans-serif" font-size="11" lengthAdjust="spacingAndGlyphs" textLength="92" x="1078" y="582.4058">dismissPatient()</text><polygon fill="#FFFF44" points="1069,587.9023,1073,591.9023,1069,595.9023,1065,591.9023" style="stroke: #B38D22; stroke-width: 1.0;"/><text fill="#000000" font-family="sans-serif" font-size="11" lengthAdjust="spacingAndGlyphs" textLength="53" x="1078" y="595.2104">initialize()</text><polygon fill="#FFFF44" points="1069,600.707,1073,604.707,1069,608.707,1065,604.707" style="stroke: #B38D22; stroke-width: 1.0;"/><text fill="#000000" font-family="sans-serif" font-size="11" lengthAdjust="spacingAndGlyphs" textLength="43" x="1078" y="608.0151">logout()</text><polygon fill="#FFFF44" points="1069,613.5117,1073,617.5117,1069,621.5117,1065,617.5117" style="stroke: #B38D22; stroke-width: 1.0;"/><text fill="#000000" font-family="sans-serif" font-size="11" lengthAdjust="spacingAndGlyphs" textLength="47" x="1078" y="620.8198">search()</text><polygon fill="#FFFF44" points="1069,626.3164,1073,630.3164,1069,634.3164,1065,630.3164" style="stroke: #B38D22; stroke-width: 1.0;"/><text fill="#000000" font-family="sans-serif" font-size="11" lengthAdjust="spacingAndGlyphs" textLength="86" x="1078" y="633.6245">searchPatient()</text><polygon fill="#FFFF44" points="1069,639.1211,1073,643.1211,1069,647.1211,1065,643.1211" style="stroke: #B38D22; stroke-width: 1.0;"/><text fill="#000000" font-family="sans-serif" font-size="11" lengthAdjust="spacingAndGlyphs" textLength="52" x="1078" y="646.4292">setData()</text><polygon fill="#FFFF44" points="1069,651.9258,1073,655.9258,1069,659.9258,1065,655.9258" style="stroke: #B38D22; stroke-width: 1.0;"/><text fill="#000000" font-family="sans-serif" font-size="11" lengthAdjust="spacingAndGlyphs" textLength="77" x="1078" y="659.2339">showLast2H()</text><polygon fill="#FFFF44" points="1069,664.7305,1073,668.7305,1069,672.7305,1065,668.7305" style="stroke: #B38D22; stroke-width: 1.0;"/><text fill="#000000" font-family="sans-serif" font-size="11" lengthAdjust="spacingAndGlyphs" textLength="97" x="1078" y="672.0386">showMonitoring()</text><polygon fill="#FFFF44" points="1069,677.5352,1073,681.5352,1069,685.5352,1065,681.5352" style="stroke: #B38D22; stroke-width: 1.0;"/><text fill="#000000" font-family="sans-serif" font-size="11" lengthAdjust="spacingAndGlyphs" textLength="83" x="1078" y="684.8433">showSupport()</text><!--class System.Sistema--><rect fill="#FEFECE" filter="url(#f1hytk01flb9xf)" height="48" id="System.Sistema" style="stroke: #A80036; stroke-width: 1.5;" width="82" x="815" y="773.9063"/><ellipse cx="830" cy="789.9063" fill="#ADD1B2" rx="11" ry="11" style="stroke: #A80036; stroke-width: 1.0;"/><path d="M832.9688,795.5469 Q832.3906,795.8438 831.75,795.9922 Q831.1094,796.1406 830.4063,796.1406 Q827.9063,796.1406 826.5859,794.4922 Q825.2656,792.8438 825.2656,789.7188 Q825.2656,786.5938 826.5859,784.9375 Q827.9063,783.2813 830.4063,783.2813 Q831.1094,783.2813 831.7578,783.4375 Q832.4063,783.5938 832.9688,783.8906 L832.9688,786.6094 Q832.3438,786.0313 831.75,785.7578 Q831.1563,785.4844 830.5313,785.4844 Q829.1875,785.4844 828.5,786.5547 Q827.8125,787.625 827.8125,789.7188 Q827.8125,791.8125 828.5,792.8828 Q829.1875,793.9531 830.5313,793.9531 Q831.1563,793.9531 831.75,793.6797 Q832.3438,793.4063 832.9688,792.8281 L832.9688,795.5469 Z "/><text fill="#000000" font-family="sans-serif" font-size="12" lengthAdjust="spacingAndGlyphs" textLength="50" x="844" y="794.0605">Sistema</text><line style="stroke: #A80036; stroke-width: 1.5;" x1="816" x2="896" y1="805.9063" y2="805.9063"/><line style="stroke: #A80036; stroke-width: 1.5;" x1="816" x2="896" y1="813.9063" y2="813.9063"/><!--link InterfaceController.HPControllerFactory.HPControllerFactory to System.Sistema--><path d="M1339.699,156.9892 C1362.5795,189.7605 1391.5501,237.6617 1404,284.9063 C1451.0004,463.2619 1522.3869,558.4698 1404,699.9063 C1339.019,777.5389 1013.3914,793.7405 897.241,797.0649 " fill="none" id="InterfaceController.HPControllerFactory.HPControllerFactory-System.Sistema" style="stroke: #A80036; stroke-width: 1.0;"/><polygon fill="#FFFFFF" points="1331.897,146.0545,1332.1258,153.262,1338.8669,155.8229,1338.6381,148.6154,1331.897,146.0545" style="stroke: #A80036; stroke-width: 1.0;"/><text fill="#000000" font-family="sans-serif" font-size="13" lengthAdjust="spacingAndGlyphs" textLength="21" x="1394" y="250.9731">sys</text><!--link InterfaceController.HPControllerFactory.HPController to InterfaceController.HPControllerFactory.HPDController--><path d="M561.9193,139.657 C487.7432,166.5825 373.2448,215.5815 292,284.9063 C285.9091,290.1034 279.9465,295.6124 274.1255,301.3606 " fill="none" id="InterfaceController.HPControllerFactory.HPController-InterfaceController.HPControllerFactory.HPDController" style="stroke: #A80036; stroke-width: 1.0; stroke-dasharray: 7.0,7.0;"/><polygon fill="none" points="559.5968,133.0535,580.7863,132.9687,564.2746,146.2488,559.5968,133.0535" style="stroke: #A80036; stroke-width: 1.0;"/><!--link InterfaceController.HPControllerFactory.HPDController to System.Sistema--><path d="M282.5757,693.4431 C285.6645,695.6902 288.8059,697.8475 292,699.9063 C379.2939,756.1723 699.9701,785.8853 814.7759,794.8991 " fill="none" id="InterfaceController.HPControllerFactory.HPDController-System.Sistema" style="stroke: #A80036; stroke-width: 1.0;"/><polygon fill="#FFFFFF" points="272.2773,685.4704,274.5731,692.3062,281.7662,692.8162,279.4703,685.9803,272.2773,685.4704" style="stroke: #A80036; stroke-width: 1.0;"/><text fill="#000000" font-family="sans-serif" font-size="13" lengthAdjust="spacingAndGlyphs" textLength="21" x="392" y="734.9731">sys</text><!--link InterfaceController.HPControllerFactory.HPController to InterfaceController.HPControllerFactory.HPMController--><path d="M618.2719,158.3452 C601.5004,198.967 575.2398,262.5723 550.2297,323.1487 " fill="none" id="InterfaceController.HPControllerFactory.HPController-InterfaceController.HPControllerFactory.HPMController" style="stroke: #A80036; stroke-width: 1.0; stroke-dasharray: 7.0,7.0;"/><polygon fill="none" points="611.9116,155.4075,626.0143,139.5924,624.852,160.7501,611.9116,155.4075" style="stroke: #A80036; stroke-width: 1.0;"/><!--link InterfaceController.HPControllerFactory.HPMController to System.Sistema--><path d="M629.2488,662.8186 C643.1382,675.9762 657.4732,688.5351 672,699.9063 C716.7447,734.9309 775.8122,763.8548 814.8056,780.9877 " fill="none" id="InterfaceController.HPControllerFactory.HPMController-System.Sistema" style="stroke: #A80036; stroke-width: 1.0;"/><polygon fill="#FFFFFF" points="619.7073,653.6212,621.2511,660.6651,628.3469,661.9493,626.8031,654.9053,619.7073,653.6212" style="stroke: #A80036; stroke-width: 1.0;"/><text fill="#000000" font-family="sans-serif" font-size="13" lengthAdjust="spacingAndGlyphs" textLength="21" x="730" y="734.9731">sys</text><!--link InterfaceController.HPControllerFactory.HPController to InterfaceController.HPControllerFactory.HPSController--><path d="M660.4977,156.941 C686.9817,201.8434 730.6989,275.9639 770.0842,342.74 " fill="none" id="InterfaceController.HPControllerFactory.HPController-InterfaceController.HPControllerFactory.HPSController" style="stroke: #A80036; stroke-width: 1.0; stroke-dasharray: 7.0,7.0;"/><polygon fill="none" points="654.3965,160.3755,650.2653,139.5924,666.4553,153.2631,654.3965,160.3755" style="stroke: #A80036; stroke-width: 1.0;"/><!--link InterfaceController.HPControllerFactory.HPSController to System.Sistema--><path d="M856,647.3431 C856,696.7688 856,745.6246 856,773.7231 " fill="none" id="InterfaceController.HPControllerFactory.HPSController-System.Sistema" style="stroke: #A80036; stroke-width: 1.0;"/><polygon fill="#FFFFFF" points="856,634.0935,852,640.0935,856,646.0935,860,640.0935,856,634.0935" style="stroke: #A80036; stroke-width: 1.0;"/><text fill="#000000" font-family="sans-serif" font-size="13" lengthAdjust="spacingAndGlyphs" textLength="21" x="857" y="734.9731">sys</text><!--link InterfaceController.HPControllerFactory.HPController to InterfaceController.HPControllerFactory.HPSRController--><path d="M710.3867,135.5407 C795.6676,161.0055 937.0574,210.6836 1041,284.9063 C1046.6757,288.9592 1052.2982,293.2206 1057.8549,297.653 " fill="none" id="InterfaceController.HPControllerFactory.HPController-InterfaceController.HPControllerFactory.HPSRController" style="stroke: #A80036; stroke-width: 1.0; stroke-dasharray: 7.0,7.0;"/><polygon fill="none" points="708.2432,142.2071,691.0062,129.8828,712.1665,128.7682,708.2432,142.2071" style="stroke: #A80036; stroke-width: 1.0;"/><!--link InterfaceController.HPControllerFactory.HPSRController to System.Sistema--><path d="M1047.8757,694.2908 C1045.5914,696.1931 1043.2991,698.0658 1041,699.9063 C996.31,735.6808 936.5847,764.5302 897.2403,781.4345 " fill="none" id="InterfaceController.HPControllerFactory.HPSRController-System.Sistema" style="stroke: #A80036; stroke-width: 1.0;"/><polygon fill="#FFFFFF" points="1057.8383,685.7679,1050.6788,686.6287,1048.7198,693.5686,1055.8793,692.7078,1057.8383,685.7679" style="stroke: #A80036; stroke-width: 1.0;"/><text fill="#000000" font-family="sans-serif" font-size="13" lengthAdjust="spacingAndGlyphs" textLength="21" x="1009" y="734.9731">sys</text><!--
@startuml
title __HPCONTROLLERFACTORY's Class Diagram__\n

        interface InterfaceController.HPControllerFactory.HPController {
        }


        class InterfaceController.HPControllerFactory.HPControllerFactory {
            + getController()
        }


        class InterfaceController.HPControllerFactory.HPDController {
            - dis : Disposable
            - dischargeText : TextArea
            - nameLabel : Label
            - patientDateofBirth : Label
            - patientName : Label
            - patientPlaceofBirth : Label
            - patientRecoveryEndDate : Label
            - patientRecoveryReasons : Label
            - patientRecoveryStartDate : Label
            - patientSurname : Label
            - patientsChoice : ComboBox<Recovery>
            - store : Store<StringCommand>
            + HPDController()
            # close()
            # discharge()
            # dismissPatient()
            # initialize()
            # initialize()
            # logout()
            # search()
            # selectedItemFromCombobox()
            # setLabels()
            # show()
            # showLast2H()
            # showMonitoring()
            # showSupport()
            # updateRecoveries()
        }


        class InterfaceController.HPControllerFactory.HPMController {
            - dis : Disposable
            - drugColumn : TableColumn<Administration, String>
            - nameLabel : Label
            - patientComboBox : ComboBox<Recovery>
            - store : Store<StringCommand>
            - tableAdministrations : TableView<Administration>
            - tableMonitorings : TableView<Monitoring>
            - temperatureColumn : TableColumn<Monitoring, String>
            + HPMController()
            + initialize()
            + initialize()
            + selectedPatient()
            + setData()
            + updatePatients()
            # close()
            # createReport()
            # dismissPatient()
            # logout()
            # search()
            # showLast2H()
            # showMonitoring()
            # showSupport()
        }


        class InterfaceController.HPControllerFactory.HPSController {
            - dis : Disposable
            - dischargeSummary : TableColumn<Recovery, String>
            - endDateColumn : TableColumn<Recovery, String>
            - nameLabel : Label
            - recoveryTable : TableView<Recovery>
            - searchPatient : TextField
            - store : Store<StringCommand>
            + HPSController()
            # close()
            # dismissPatient()
            # initialize()
            # logout()
            # search()
            # searchPatient()
            # searchResult()
            # showLast2H()
            # showMonitoring()
            # showSupport()
            # updateRecoveries()
        }

        class InterfaceController.HPControllerFactory.HPSRController {
            - administrations : TableView<Administration>
            - dis : Disposable
            - drugColumn : TableColumn<Administration, String>
            - nameLabel : Label
            - patientDateofBirth : Label
            - patientFiscalCode : Label
            - patientName : Label
            - patientPlaceofBirth : Label
            - patientRecoveryDischarge : Label
            - patientRecoveryEndDate : Label
            - patientRecoveryReasons : Label
            - patientRecoveryStartDate : Label
            - patientSurname : Label
            - patientText : TextField
            - prescriptions : TableView<Prescription>
            - quantityColumn : TableColumn<Prescription, String>
            - store : Store<StringCommand>
            + HPSRController()
            # close()
            # dismissPatient()
            # initialize()
            # logout()
            # search()
            # searchPatient()
            # setData()
            # showLast2H()
            # showMonitoring()
            # showSupport()
        }

  InterfaceController.HPControllerFactory.HPControllerFactory o- - System.Sistema : sys
  InterfaceController.HPControllerFactory.HPDController .up.|> InterfaceController.HPControllerFactory.HPController
  InterfaceController.HPControllerFactory.HPDController o- - System.Sistema : sys
  InterfaceController.HPControllerFactory.HPMController .up.|> InterfaceController.HPControllerFactory.HPController
  InterfaceController.HPControllerFactory.HPMController o- - System.Sistema : sys
  InterfaceController.HPControllerFactory.HPSController .up.|> InterfaceController.HPControllerFactory.HPController
  InterfaceController.HPControllerFactory.HPSController o- - System.Sistema : sys
  InterfaceController.HPControllerFactory.HPSRController .up.|> InterfaceController.HPControllerFactory.HPController
  InterfaceController.HPControllerFactory.HPSRController o- - System.Sistema : sys
@enduml

PlantUML version 1.2019.04(Fri Mar 29 15:44:36 UTC 2019)
(GPL source distribution)
Java Runtime: OpenJDK Runtime Environment
JVM: OpenJDK 64-Bit Server VM
Java Version: 1.8.0_201-heroku-b09
Operating System: Linux
OS Version: 4.4.0-1046-aws
Default Encoding: UTF-8
Language: en
Country: US
--></g></svg>