<?xml version="1.0" encoding="UTF-8" standalone="no"?><svg xmlns="http://www.w3.org/2000/svg" xmlns:xlink="http://www.w3.org/1999/xlink" contentScriptType="application/ecmascript" contentStyleType="text/css" height="884px" preserveAspectRatio="none" style="width:1627px;height:884px;" version="1.1" viewBox="0 0 1627 884" width="1627px" zoomAndPan="magnify"><defs><filter height="300%" id="f1tmbdpjb6k8x9" width="300%" x="-1" y="-1"><feGaussianBlur result="blurOut" stdDeviation="2.0"/><feColorMatrix in="blurOut" result="blurOut2" type="matrix" values="0 0 0 0 0 0 0 0 0 0 0 0 0 0 0 0 0 0 .4 0"/><feOffset dx="4.0" dy="4.0" in="blurOut2" result="blurOut3"/><feBlend in="SourceGraphic" in2="blurOut3" mode="normal"/></filter></defs><g><text fill="#000000" font-family="sans-serif" font-size="18" lengthAdjust="spacingAndGlyphs" text-decoration="underline" textLength="369" x="631" y="16.708">INTERFACECONTROLLER's Class Diagram</text><text fill="#000000" font-family="sans-serif" font-size="18" lengthAdjust="spacingAndGlyphs" textLength="0" x="818.5" y="37.6611"/><!--cluster InterfaceController--><polygon fill="#FFFFFF" filter="url(#f1tmbdpjb6k8x9)" points="14,57.9063,170,57.9063,177,80.2031,1605,80.2031,1605,742.9063,14,742.9063,14,57.9063" style="stroke: #000000; stroke-width: 1.5;"/><line style="stroke: #000000; stroke-width: 1.5;" x1="14" x2="177" y1="80.2031" y2="80.2031"/><text fill="#000000" font-family="sans-serif" font-size="14" font-weight="bold" lengthAdjust="spacingAndGlyphs" textLength="150" x="18" y="72.9014">InterfaceController</text><!--cluster System--><polygon fill="#FFFFFF" filter="url(#f1tmbdpjb6k8x9)" points="697,789.9063,761,789.9063,768,812.2031,795,812.2031,795,872.9063,697,872.9063,697,789.9063" style="stroke: #000000; stroke-width: 1.5;"/><line style="stroke: #000000; stroke-width: 1.5;" x1="697" x2="768" y1="812.2031" y2="812.2031"/><text fill="#000000" font-family="sans-serif" font-size="14" font-weight="bold" lengthAdjust="spacingAndGlyphs" textLength="58" x="701" y="804.9014">System</text><!--class InterfaceController.AlarmControlController--><rect fill="#FEFECE" filter="url(#f1tmbdpjb6k8x9)" height="150.4375" id="InterfaceController.AlarmControlController" style="stroke: #A80036; stroke-width: 1.5;" width="209" x="22.5" y="334.9063"/><ellipse cx="53.7" cy="350.9063" fill="#ADD1B2" rx="11" ry="11" style="stroke: #A80036; stroke-width: 1.0;"/><path d="M56.6688,356.5469 Q56.0906,356.8438 55.45,356.9922 Q54.8094,357.1406 54.1063,357.1406 Q51.6063,357.1406 50.2859,355.4922 Q48.9656,353.8438 48.9656,350.7188 Q48.9656,347.5938 50.2859,345.9375 Q51.6063,344.2813 54.1063,344.2813 Q54.8094,344.2813 55.4578,344.4375 Q56.1063,344.5938 56.6688,344.8906 L56.6688,347.6094 Q56.0438,347.0313 55.45,346.7578 Q54.8563,346.4844 54.2313,346.4844 Q52.8875,346.4844 52.2,347.5547 Q51.5125,348.625 51.5125,350.7188 Q51.5125,352.8125 52.2,353.8828 Q52.8875,354.9531 54.2313,354.9531 Q54.8563,354.9531 55.45,354.6797 Q56.0438,354.4063 56.6688,353.8281 L56.6688,356.5469 Z "/><text fill="#000000" font-family="sans-serif" font-size="12" lengthAdjust="spacingAndGlyphs" textLength="141" x="71.3" y="355.0605">AlarmControlController</text><line style="stroke: #A80036; stroke-width: 1.5;" x1="23.5" x2="230.5" y1="366.9063" y2="366.9063"/><polygon fill="none" points="33.5,374.8086,29.5,380.8086,37.5,380.8086" style="stroke: #1963A0; stroke-width: 1.0;"/><text fill="#000000" font-family="sans-serif" font-size="11" lengthAdjust="spacingAndGlyphs" textLength="174" x="42.5" y="381.1167">stream : Subject&lt;StateEvent&gt;</text><rect fill="none" height="6" style="stroke: #C82930; stroke-width: 1.0;" width="6" x="30.5" y="388.6133"/><text fill="#000000" font-family="sans-serif" font-size="11" lengthAdjust="spacingAndGlyphs" textLength="92" x="42.5" y="393.9214">dis : Disposable</text><rect fill="none" height="6" style="stroke: #C82930; stroke-width: 1.0;" width="6" x="30.5" y="401.418"/><text fill="#000000" font-family="sans-serif" font-size="11" lengthAdjust="spacingAndGlyphs" textLength="125" x="42.5" y="406.7261">messageLabel : Label</text><rect fill="none" height="6" style="stroke: #C82930; stroke-width: 1.0;" width="6" x="30.5" y="414.2227"/><text fill="#000000" font-family="sans-serif" font-size="11" lengthAdjust="spacingAndGlyphs" textLength="148" x="42.5" y="419.5308">passField : PasswordField</text><rect fill="none" height="6" style="stroke: #C82930; stroke-width: 1.0;" width="6" x="30.5" y="427.0273"/><text fill="#000000" font-family="sans-serif" font-size="11" lengthAdjust="spacingAndGlyphs" textLength="183" x="42.5" y="432.3354">store : Store&lt;StringCommand&gt;</text><rect fill="none" height="6" style="stroke: #C82930; stroke-width: 1.0;" width="6" x="30.5" y="439.832"/><text fill="#000000" font-family="sans-serif" font-size="11" lengthAdjust="spacingAndGlyphs" textLength="114" x="42.5" y="445.1401">userField : TextField</text><line style="stroke: #A80036; stroke-width: 1.5;" x1="23.5" x2="230.5" y1="451.7344" y2="451.7344"/><ellipse cx="33.5" cy="463.6367" fill="#84BE84" rx="3" ry="3" style="stroke: #038048; stroke-width: 1.0;"/><text fill="#000000" font-family="sans-serif" font-size="11" lengthAdjust="spacingAndGlyphs" textLength="138" x="42.5" y="465.9448">AlarmControlController()</text><polygon fill="#FFFF44" points="33.5,471.4414,37.5,475.4414,33.5,479.4414,29.5,475.4414" style="stroke: #B38D22; stroke-width: 1.0;"/><text fill="#000000" font-family="sans-serif" font-size="11" lengthAdjust="spacingAndGlyphs" textLength="35" x="42.5" y="478.7495">login()</text><!--class InterfaceController.AlarmLoggedControlController--><rect fill="#FEFECE" filter="url(#f1tmbdpjb6k8x9)" height="124.8281" id="InterfaceController.AlarmLoggedControlController" style="stroke: #A80036; stroke-width: 1.5;" width="219" x="266.5" y="347.4063"/><ellipse cx="281.5" cy="363.4063" fill="#ADD1B2" rx="11" ry="11" style="stroke: #A80036; stroke-width: 1.0;"/><path d="M284.4688,369.0469 Q283.8906,369.3438 283.25,369.4922 Q282.6094,369.6406 281.9063,369.6406 Q279.4063,369.6406 278.0859,367.9922 Q276.7656,366.3438 276.7656,363.2188 Q276.7656,360.0938 278.0859,358.4375 Q279.4063,356.7813 281.9063,356.7813 Q282.6094,356.7813 283.2578,356.9375 Q283.9063,357.0938 284.4688,357.3906 L284.4688,360.1094 Q283.8438,359.5313 283.25,359.2578 Q282.6563,358.9844 282.0313,358.9844 Q280.6875,358.9844 280,360.0547 Q279.3125,361.125 279.3125,363.2188 Q279.3125,365.3125 280,366.3828 Q280.6875,367.4531 282.0313,367.4531 Q282.6563,367.4531 283.25,367.1797 Q283.8438,366.9063 284.4688,366.3281 L284.4688,369.0469 Z "/><text fill="#000000" font-family="sans-serif" font-size="12" lengthAdjust="spacingAndGlyphs" textLength="187" x="295.5" y="367.5605">AlarmLoggedControlController</text><line style="stroke: #A80036; stroke-width: 1.5;" x1="267.5" x2="484.5" y1="379.4063" y2="379.4063"/><rect fill="none" height="6" style="stroke: #C82930; stroke-width: 1.0;" width="6" x="274.5" y="388.3086"/><text fill="#000000" font-family="sans-serif" font-size="11" lengthAdjust="spacingAndGlyphs" textLength="92" x="286.5" y="393.6167">dis : Disposable</text><rect fill="none" height="6" style="stroke: #C82930; stroke-width: 1.0;" width="6" x="274.5" y="401.1133"/><text fill="#000000" font-family="sans-serif" font-size="11" lengthAdjust="spacingAndGlyphs" textLength="125" x="286.5" y="406.4214">messageLabel : Label</text><rect fill="none" height="6" style="stroke: #C82930; stroke-width: 1.0;" width="6" x="274.5" y="413.918"/><text fill="#000000" font-family="sans-serif" font-size="11" lengthAdjust="spacingAndGlyphs" textLength="183" x="286.5" y="419.2261">store : Store&lt;StringCommand&gt;</text><rect fill="none" height="6" style="stroke: #C82930; stroke-width: 1.0;" width="6" x="274.5" y="426.7227"/><text fill="#000000" font-family="sans-serif" font-size="11" lengthAdjust="spacingAndGlyphs" textLength="174" x="286.5" y="432.0308">stream : Subject&lt;StateEvent&gt;</text><line style="stroke: #A80036; stroke-width: 1.5;" x1="267.5" x2="484.5" y1="438.625" y2="438.625"/><ellipse cx="277.5" cy="450.5273" fill="#84BE84" rx="3" ry="3" style="stroke: #038048; stroke-width: 1.0;"/><text fill="#000000" font-family="sans-serif" font-size="11" lengthAdjust="spacingAndGlyphs" textLength="179" x="286.5" y="452.8354">AlarmLoggedControlController()</text><polygon fill="#FFFF44" points="277.5,458.332,281.5,462.332,277.5,466.332,273.5,462.332" style="stroke: #B38D22; stroke-width: 1.0;"/><text fill="#000000" font-family="sans-serif" font-size="11" lengthAdjust="spacingAndGlyphs" textLength="35" x="286.5" y="465.6401">login()</text><!--class InterfaceController.AlarmsController--><rect fill="#FEFECE" filter="url(#f1tmbdpjb6k8x9)" height="163.2422" id="InterfaceController.AlarmsController" style="stroke: #A80036; stroke-width: 1.5;" width="209" x="520.5" y="328.4063"/><ellipse cx="569.25" cy="344.4063" fill="#ADD1B2" rx="11" ry="11" style="stroke: #A80036; stroke-width: 1.0;"/><path d="M572.2188,350.0469 Q571.6406,350.3438 571,350.4922 Q570.3594,350.6406 569.6563,350.6406 Q567.1563,350.6406 565.8359,348.9922 Q564.5156,347.3438 564.5156,344.2188 Q564.5156,341.0938 565.8359,339.4375 Q567.1563,337.7813 569.6563,337.7813 Q570.3594,337.7813 571.0078,337.9375 Q571.6563,338.0938 572.2188,338.3906 L572.2188,341.1094 Q571.5938,340.5313 571,340.2578 Q570.4063,339.9844 569.7813,339.9844 Q568.4375,339.9844 567.75,341.0547 Q567.0625,342.125 567.0625,344.2188 Q567.0625,346.3125 567.75,347.3828 Q568.4375,348.4531 569.7813,348.4531 Q570.4063,348.4531 571,348.1797 Q571.5938,347.9063 572.2188,347.3281 L572.2188,350.0469 Z "/><text fill="#000000" font-family="sans-serif" font-size="12" lengthAdjust="spacingAndGlyphs" textLength="103" x="589.75" y="348.5605">AlarmsController</text><line style="stroke: #A80036; stroke-width: 1.5;" x1="521.5" x2="728.5" y1="360.4063" y2="360.4063"/><rect fill="none" height="6" style="stroke: #C82930; stroke-width: 1.0;" width="6" x="528.5" y="369.3086"/><text fill="#000000" font-family="sans-serif" font-size="11" lengthAdjust="spacingAndGlyphs" textLength="183" x="540.5" y="374.6167">store : Store&lt;StringCommand&gt;</text><line style="stroke: #A80036; stroke-width: 1.5;" x1="521.5" x2="728.5" y1="381.2109" y2="381.2109"/><ellipse cx="531.5" cy="393.1133" fill="#84BE84" rx="3" ry="3" style="stroke: #038048; stroke-width: 1.0;"/><text fill="#000000" font-family="sans-serif" font-size="11" lengthAdjust="spacingAndGlyphs" textLength="104" x="540.5" y="395.4214">AlarmsController()</text><polygon fill="#FFFF44" points="531.5,400.918,535.5,404.918,531.5,408.918,527.5,404.918" style="stroke: #B38D22; stroke-width: 1.0;"/><text fill="#000000" font-family="sans-serif" font-size="11" lengthAdjust="spacingAndGlyphs" textLength="48" x="540.5" y="408.2261">aritmia()</text><polygon fill="#FFFF44" points="531.5,413.7227,535.5,417.7227,531.5,421.7227,527.5,417.7227" style="stroke: #B38D22; stroke-width: 1.0;"/><text fill="#000000" font-family="sans-serif" font-size="11" lengthAdjust="spacingAndGlyphs" textLength="42" x="540.5" y="421.0308">flutter()</text><polygon fill="#FFFF44" points="531.5,426.5273,535.5,430.5273,531.5,434.5273,527.5,430.5273" style="stroke: #B38D22; stroke-width: 1.0;"/><text fill="#000000" font-family="sans-serif" font-size="11" lengthAdjust="spacingAndGlyphs" textLength="79" x="540.5" y="433.8354">ipertensione()</text><polygon fill="#FFFF44" points="531.5,439.332,535.5,443.332,531.5,447.332,527.5,443.332" style="stroke: #B38D22; stroke-width: 1.0;"/><text fill="#000000" font-family="sans-serif" font-size="11" lengthAdjust="spacingAndGlyphs" textLength="67" x="540.5" y="446.6401">ipertermia()</text><polygon fill="#FFFF44" points="531.5,452.1367,535.5,456.1367,531.5,460.1367,527.5,456.1367" style="stroke: #B38D22; stroke-width: 1.0;"/><text fill="#000000" font-family="sans-serif" font-size="11" lengthAdjust="spacingAndGlyphs" textLength="74" x="540.5" y="459.4448">ipotensione()</text><polygon fill="#FFFF44" points="531.5,464.9414,535.5,468.9414,531.5,472.9414,527.5,468.9414" style="stroke: #B38D22; stroke-width: 1.0;"/><text fill="#000000" font-family="sans-serif" font-size="11" lengthAdjust="spacingAndGlyphs" textLength="62" x="540.5" y="472.2495">ipotermia()</text><polygon fill="#FFFF44" points="531.5,477.7461,535.5,481.7461,531.5,485.7461,527.5,481.7461" style="stroke: #B38D22; stroke-width: 1.0;"/><text fill="#000000" font-family="sans-serif" font-size="11" lengthAdjust="spacingAndGlyphs" textLength="70" x="540.5" y="485.0542">tachicardia()</text><!--class InterfaceController.ErrorController--><rect fill="#FEFECE" filter="url(#f1tmbdpjb6k8x9)" height="124.8281" id="InterfaceController.ErrorController" style="stroke: #A80036; stroke-width: 1.5;" width="209" x="764.5" y="347.4063"/><ellipse cx="818.75" cy="363.4063" fill="#ADD1B2" rx="11" ry="11" style="stroke: #A80036; stroke-width: 1.0;"/><path d="M821.7188,369.0469 Q821.1406,369.3438 820.5,369.4922 Q819.8594,369.6406 819.1563,369.6406 Q816.6563,369.6406 815.3359,367.9922 Q814.0156,366.3438 814.0156,363.2188 Q814.0156,360.0938 815.3359,358.4375 Q816.6563,356.7813 819.1563,356.7813 Q819.8594,356.7813 820.5078,356.9375 Q821.1563,357.0938 821.7188,357.3906 L821.7188,360.1094 Q821.0938,359.5313 820.5,359.2578 Q819.9063,358.9844 819.2813,358.9844 Q817.9375,358.9844 817.25,360.0547 Q816.5625,361.125 816.5625,363.2188 Q816.5625,365.3125 817.25,366.3828 Q817.9375,367.4531 819.2813,367.4531 Q819.9063,367.4531 820.5,367.1797 Q821.0938,366.9063 821.7188,366.3281 L821.7188,369.0469 Z "/><text fill="#000000" font-family="sans-serif" font-size="12" lengthAdjust="spacingAndGlyphs" textLength="92" x="839.25" y="367.5605">ErrorController</text><line style="stroke: #A80036; stroke-width: 1.5;" x1="765.5" x2="972.5" y1="379.4063" y2="379.4063"/><rect fill="none" height="6" style="stroke: #C82930; stroke-width: 1.0;" width="6" x="772.5" y="388.3086"/><text fill="#000000" font-family="sans-serif" font-size="11" lengthAdjust="spacingAndGlyphs" textLength="149" x="784.5" y="393.6167">areAlarmsActive : boolean</text><rect fill="none" height="6" style="stroke: #C82930; stroke-width: 1.0;" width="6" x="772.5" y="401.1133"/><text fill="#000000" font-family="sans-serif" font-size="11" lengthAdjust="spacingAndGlyphs" textLength="92" x="784.5" y="406.4214">dis : Disposable</text><rect fill="none" height="6" style="stroke: #C82930; stroke-width: 1.0;" width="6" x="772.5" y="413.918"/><text fill="#000000" font-family="sans-serif" font-size="11" lengthAdjust="spacingAndGlyphs" textLength="95" x="784.5" y="419.2261">errorText : Label</text><rect fill="none" height="6" style="stroke: #C82930; stroke-width: 1.0;" width="6" x="772.5" y="426.7227"/><text fill="#000000" font-family="sans-serif" font-size="11" lengthAdjust="spacingAndGlyphs" textLength="183" x="784.5" y="432.0308">store : Store&lt;StringCommand&gt;</text><line style="stroke: #A80036; stroke-width: 1.5;" x1="765.5" x2="972.5" y1="438.625" y2="438.625"/><ellipse cx="775.5" cy="450.5273" fill="#84BE84" rx="3" ry="3" style="stroke: #038048; stroke-width: 1.0;"/><text fill="#000000" font-family="sans-serif" font-size="11" lengthAdjust="spacingAndGlyphs" textLength="93" x="784.5" y="452.8354">ErrorController()</text><polygon fill="#FFFF44" points="775.5,458.332,779.5,462.332,775.5,466.332,771.5,462.332" style="stroke: #B38D22; stroke-width: 1.0;"/><text fill="#000000" font-family="sans-serif" font-size="11" lengthAdjust="spacingAndGlyphs" textLength="38" x="784.5" y="465.6401">close()</text><!--class InterfaceController.LoginController--><rect fill="#FEFECE" filter="url(#f1tmbdpjb6k8x9)" height="163.2422" id="InterfaceController.LoginController" style="stroke: #A80036; stroke-width: 1.5;" width="209" x="1008.5" y="328.4063"/><ellipse cx="1061.75" cy="344.4063" fill="#ADD1B2" rx="11" ry="11" style="stroke: #A80036; stroke-width: 1.0;"/><path d="M1064.7188,350.0469 Q1064.1406,350.3438 1063.5,350.4922 Q1062.8594,350.6406 1062.1563,350.6406 Q1059.6563,350.6406 1058.3359,348.9922 Q1057.0156,347.3438 1057.0156,344.2188 Q1057.0156,341.0938 1058.3359,339.4375 Q1059.6563,337.7813 1062.1563,337.7813 Q1062.8594,337.7813 1063.5078,337.9375 Q1064.1563,338.0938 1064.7188,338.3906 L1064.7188,341.1094 Q1064.0938,340.5313 1063.5,340.2578 Q1062.9063,339.9844 1062.2813,339.9844 Q1060.9375,339.9844 1060.25,341.0547 Q1059.5625,342.125 1059.5625,344.2188 Q1059.5625,346.3125 1060.25,347.3828 Q1060.9375,348.4531 1062.2813,348.4531 Q1062.9063,348.4531 1063.5,348.1797 Q1064.0938,347.9063 1064.7188,347.3281 L1064.7188,350.0469 Z "/><text fill="#000000" font-family="sans-serif" font-size="12" lengthAdjust="spacingAndGlyphs" textLength="94" x="1082.25" y="348.5605">LoginController</text><line style="stroke: #A80036; stroke-width: 1.5;" x1="1009.5" x2="1216.5" y1="360.4063" y2="360.4063"/><rect fill="none" height="6" style="stroke: #C82930; stroke-width: 1.0;" width="6" x="1016.5" y="369.3086"/><text fill="#000000" font-family="sans-serif" font-size="11" lengthAdjust="spacingAndGlyphs" textLength="148" x="1028.5" y="374.6167">passField : PasswordField</text><rect fill="none" height="6" style="stroke: #C82930; stroke-width: 1.0;" width="6" x="1016.5" y="382.1133"/><text fill="#000000" font-family="sans-serif" font-size="11" lengthAdjust="spacingAndGlyphs" textLength="183" x="1028.5" y="387.4214">store : Store&lt;StringCommand&gt;</text><rect fill="none" height="6" style="stroke: #C82930; stroke-width: 1.0;" width="6" x="1016.5" y="394.918"/><text fill="#000000" font-family="sans-serif" font-size="11" lengthAdjust="spacingAndGlyphs" textLength="114" x="1028.5" y="400.2261">userField : TextField</text><line style="stroke: #A80036; stroke-width: 1.5;" x1="1009.5" x2="1216.5" y1="406.8203" y2="406.8203"/><ellipse cx="1019.5" cy="418.7227" fill="#84BE84" rx="3" ry="3" style="stroke: #038048; stroke-width: 1.0;"/><text fill="#000000" font-family="sans-serif" font-size="11" lengthAdjust="spacingAndGlyphs" textLength="94" x="1028.5" y="421.0308">LoginController()</text><polygon fill="#FFFF44" points="1019.5,426.5273,1023.5,430.5273,1019.5,434.5273,1015.5,430.5273" style="stroke: #B38D22; stroke-width: 1.0;"/><text fill="#000000" font-family="sans-serif" font-size="11" lengthAdjust="spacingAndGlyphs" textLength="91" x="1028.5" y="433.8354">buttonPressed()</text><polygon fill="#FFFF44" points="1019.5,439.332,1023.5,443.332,1019.5,447.332,1015.5,443.332" style="stroke: #B38D22; stroke-width: 1.0;"/><text fill="#000000" font-family="sans-serif" font-size="11" lengthAdjust="spacingAndGlyphs" textLength="38" x="1028.5" y="446.6401">close()</text><polygon fill="#FFFF44" points="1019.5,452.1367,1023.5,456.1367,1019.5,460.1367,1015.5,456.1367" style="stroke: #B38D22; stroke-width: 1.0;"/><text fill="#000000" font-family="sans-serif" font-size="11" lengthAdjust="spacingAndGlyphs" textLength="35" x="1028.5" y="459.4448">login()</text><polygon fill="#FFFF44" points="1019.5,464.9414,1023.5,468.9414,1019.5,472.9414,1015.5,468.9414" style="stroke: #B38D22; stroke-width: 1.0;"/><text fill="#000000" font-family="sans-serif" font-size="11" lengthAdjust="spacingAndGlyphs" textLength="83" x="1028.5" y="472.2495">showSupport()</text><polygon fill="#FFFF44" points="1019.5,477.7461,1023.5,481.7461,1019.5,485.7461,1015.5,481.7461" style="stroke: #B38D22; stroke-width: 1.0;"/><text fill="#000000" font-family="sans-serif" font-size="11" lengthAdjust="spacingAndGlyphs" textLength="94" x="1028.5" y="485.0542">startMonitoring()</text><!--class InterfaceController.MonitoringController--><rect fill="#FEFECE" filter="url(#f1tmbdpjb6k8x9)" height="649.8203" id="InterfaceController.MonitoringController" style="stroke: #A80036; stroke-width: 1.5;" width="345" x="1252.5" y="84.9063"/><ellipse cx="1357.25" cy="100.9063" fill="#ADD1B2" rx="11" ry="11" style="stroke: #A80036; stroke-width: 1.0;"/><path d="M1360.2188,106.5469 Q1359.6406,106.8438 1359,106.9922 Q1358.3594,107.1406 1357.6563,107.1406 Q1355.1563,107.1406 1353.8359,105.4922 Q1352.5156,103.8438 1352.5156,100.7188 Q1352.5156,97.5938 1353.8359,95.9375 Q1355.1563,94.2813 1357.6563,94.2813 Q1358.3594,94.2813 1359.0078,94.4375 Q1359.6563,94.5938 1360.2188,94.8906 L1360.2188,97.6094 Q1359.5938,97.0313 1359,96.7578 Q1358.4063,96.4844 1357.7813,96.4844 Q1356.4375,96.4844 1355.75,97.5547 Q1355.0625,98.625 1355.0625,100.7188 Q1355.0625,102.8125 1355.75,103.8828 Q1356.4375,104.9531 1357.7813,104.9531 Q1358.4063,104.9531 1359,104.6797 Q1359.5938,104.4063 1360.2188,103.8281 L1360.2188,106.5469 Z "/><text fill="#000000" font-family="sans-serif" font-size="12" lengthAdjust="spacingAndGlyphs" textLength="127" x="1377.75" y="105.0605">MonitoringController</text><line style="stroke: #A80036; stroke-width: 1.5;" x1="1253.5" x2="1596.5" y1="116.9063" y2="116.9063"/><rect fill="none" height="6" style="stroke: #C82930; stroke-width: 1.0;" width="6" x="1260.5" y="125.8086"/><text fill="#000000" font-family="sans-serif" font-size="11" lengthAdjust="spacingAndGlyphs" textLength="77" x="1272.5" y="131.1167">bed0 : Button</text><rect fill="none" height="6" style="stroke: #C82930; stroke-width: 1.0;" width="6" x="1260.5" y="138.6133"/><text fill="#000000" font-family="sans-serif" font-size="11" lengthAdjust="spacingAndGlyphs" textLength="77" x="1272.5" y="143.9214">bed1 : Button</text><rect fill="none" height="6" style="stroke: #C82930; stroke-width: 1.0;" width="6" x="1260.5" y="151.418"/><text fill="#000000" font-family="sans-serif" font-size="11" lengthAdjust="spacingAndGlyphs" textLength="77" x="1272.5" y="156.7261">bed2 : Button</text><rect fill="none" height="6" style="stroke: #C82930; stroke-width: 1.0;" width="6" x="1260.5" y="164.2227"/><text fill="#000000" font-family="sans-serif" font-size="11" lengthAdjust="spacingAndGlyphs" textLength="77" x="1272.5" y="169.5308">bed3 : Button</text><rect fill="none" height="6" style="stroke: #C82930; stroke-width: 1.0;" width="6" x="1260.5" y="177.0273"/><text fill="#000000" font-family="sans-serif" font-size="11" lengthAdjust="spacingAndGlyphs" textLength="77" x="1272.5" y="182.3354">bed4 : Button</text><rect fill="none" height="6" style="stroke: #C82930; stroke-width: 1.0;" width="6" x="1260.5" y="189.832"/><text fill="#000000" font-family="sans-serif" font-size="11" lengthAdjust="spacingAndGlyphs" textLength="77" x="1272.5" y="195.1401">bed5 : Button</text><rect fill="none" height="6" style="stroke: #C82930; stroke-width: 1.0;" width="6" x="1260.5" y="202.6367"/><text fill="#000000" font-family="sans-serif" font-size="11" lengthAdjust="spacingAndGlyphs" textLength="77" x="1272.5" y="207.9448">bed6 : Button</text><rect fill="none" height="6" style="stroke: #C82930; stroke-width: 1.0;" width="6" x="1260.5" y="215.4414"/><text fill="#000000" font-family="sans-serif" font-size="11" lengthAdjust="spacingAndGlyphs" textLength="77" x="1272.5" y="220.7495">bed7 : Button</text><rect fill="none" height="6" style="stroke: #C82930; stroke-width: 1.0;" width="6" x="1260.5" y="228.2461"/><text fill="#000000" font-family="sans-serif" font-size="11" lengthAdjust="spacingAndGlyphs" textLength="77" x="1272.5" y="233.5542">bed8 : Button</text><rect fill="none" height="6" style="stroke: #C82930; stroke-width: 1.0;" width="6" x="1260.5" y="241.0508"/><text fill="#000000" font-family="sans-serif" font-size="11" lengthAdjust="spacingAndGlyphs" textLength="77" x="1272.5" y="246.3589">bed9 : Button</text><rect fill="none" height="6" style="stroke: #C82930; stroke-width: 1.0;" width="6" x="1260.5" y="253.8555"/><text fill="#000000" font-family="sans-serif" font-size="11" lengthAdjust="spacingAndGlyphs" textLength="177" x="1272.5" y="259.1636">bedRooms : ArrayList&lt;Button&gt;</text><rect fill="none" height="6" style="stroke: #C82930; stroke-width: 1.0;" width="6" x="1260.5" y="266.6602"/><text fill="#000000" font-family="sans-serif" font-size="11" lengthAdjust="spacingAndGlyphs" textLength="124" x="1272.5" y="271.9683">bpGraphic : LineChart</text><rect fill="none" height="6" style="stroke: #C82930; stroke-width: 1.0;" width="6" x="1260.5" y="279.4648"/><text fill="#000000" font-family="sans-serif" font-size="11" lengthAdjust="spacingAndGlyphs" textLength="84" x="1272.5" y="284.7729">counterBP : int</text><rect fill="none" height="6" style="stroke: #C82930; stroke-width: 1.0;" width="6" x="1260.5" y="292.2695"/><text fill="#000000" font-family="sans-serif" font-size="11" lengthAdjust="spacingAndGlyphs" textLength="84" x="1272.5" y="297.5776">counterHR : int</text><rect fill="none" height="6" style="stroke: #C82930; stroke-width: 1.0;" width="6" x="1260.5" y="305.0742"/><text fill="#000000" font-family="sans-serif" font-size="11" lengthAdjust="spacingAndGlyphs" textLength="93" x="1272.5" y="310.3823">dbpLabel : Label</text><rect fill="none" height="6" style="stroke: #C82930; stroke-width: 1.0;" width="6" x="1260.5" y="317.8789"/><text fill="#000000" font-family="sans-serif" font-size="11" lengthAdjust="spacingAndGlyphs" textLength="92" x="1272.5" y="323.187">dis : Disposable</text><rect fill="none" height="6" style="stroke: #C82930; stroke-width: 1.0;" width="6" x="1260.5" y="330.6836"/><text fill="#000000" font-family="sans-serif" font-size="11" lengthAdjust="spacingAndGlyphs" textLength="122" x="1272.5" y="335.9917">hrGraphic : LineChart</text><rect fill="none" height="6" style="stroke: #C82930; stroke-width: 1.0;" width="6" x="1260.5" y="343.4883"/><text fill="#000000" font-family="sans-serif" font-size="11" lengthAdjust="spacingAndGlyphs" textLength="84" x="1272.5" y="348.7964">hrLabel : Label</text><rect fill="none" height="6" style="stroke: #C82930; stroke-width: 1.0;" width="6" x="1260.5" y="356.293"/><text fill="#000000" font-family="sans-serif" font-size="11" lengthAdjust="spacingAndGlyphs" textLength="104" x="1272.5" y="361.6011">nameLabel : Label</text><rect fill="none" height="6" style="stroke: #C82930; stroke-width: 1.0;" width="6" x="1260.5" y="369.0977"/><text fill="#000000" font-family="sans-serif" font-size="11" lengthAdjust="spacingAndGlyphs" textLength="85" x="1272.5" y="374.4058">recoveryId : int</text><rect fill="none" height="6" style="stroke: #C82930; stroke-width: 1.0;" width="6" x="1260.5" y="381.9023"/><text fill="#000000" font-family="sans-serif" font-size="11" lengthAdjust="spacingAndGlyphs" textLength="56" x="1272.5" y="387.2104">room : int</text><rect fill="none" height="6" style="stroke: #C82930; stroke-width: 1.0;" width="6" x="1260.5" y="394.707"/><text fill="#000000" font-family="sans-serif" font-size="11" lengthAdjust="spacingAndGlyphs" textLength="102" x="1272.5" y="400.0151">roomLabel : Label</text><rect fill="none" height="6" style="stroke: #C82930; stroke-width: 1.0;" width="6" x="1260.5" y="407.5117"/><text fill="#000000" font-family="sans-serif" font-size="11" lengthAdjust="spacingAndGlyphs" textLength="93" x="1272.5" y="412.8198">sbpLabel : Label</text><rect fill="none" height="6" style="stroke: #C82930; stroke-width: 1.0;" width="6" x="1260.5" y="420.3164"/><text fill="#000000" font-family="sans-serif" font-size="11" lengthAdjust="spacingAndGlyphs" textLength="93" x="1272.5" y="425.6245">seriesD : Series</text><rect fill="none" height="6" style="stroke: #C82930; stroke-width: 1.0;" width="6" x="1260.5" y="433.1211"/><text fill="#000000" font-family="sans-serif" font-size="11" lengthAdjust="spacingAndGlyphs" textLength="100" x="1272.5" y="438.4292">seriesHR : Series</text><rect fill="none" height="6" style="stroke: #C82930; stroke-width: 1.0;" width="6" x="1260.5" y="445.9258"/><text fill="#000000" font-family="sans-serif" font-size="11" lengthAdjust="spacingAndGlyphs" textLength="93" x="1272.5" y="451.2339">seriesS : Series</text><rect fill="none" height="6" style="stroke: #C82930; stroke-width: 1.0;" width="6" x="1260.5" y="458.7305"/><text fill="#000000" font-family="sans-serif" font-size="11" lengthAdjust="spacingAndGlyphs" textLength="183" x="1272.5" y="464.0386">store : Store&lt;StringCommand&gt;</text><rect fill="none" height="6" style="stroke: #C82930; stroke-width: 1.0;" width="6" x="1260.5" y="471.5352"/><text fill="#000000" font-family="sans-serif" font-size="11" lengthAdjust="spacingAndGlyphs" textLength="174" x="1272.5" y="476.8433">stream : Subject&lt;StateEvent&gt;</text><rect fill="none" height="6" style="stroke: #C82930; stroke-width: 1.0;" width="6" x="1260.5" y="484.3398"/><text fill="#000000" font-family="sans-serif" font-size="11" lengthAdjust="spacingAndGlyphs" textLength="123" x="1272.5" y="489.6479">surnameLabel : Label</text><rect fill="none" height="6" style="stroke: #C82930; stroke-width: 1.0;" width="6" x="1260.5" y="497.1445"/><text fill="#000000" font-family="sans-serif" font-size="11" lengthAdjust="spacingAndGlyphs" textLength="174" x="1272.5" y="502.4526">table : TableView&lt;Monitoring&gt;</text><rect fill="none" height="6" style="stroke: #C82930; stroke-width: 1.0;" width="6" x="1260.5" y="509.9492"/><text fill="#000000" font-family="sans-serif" font-size="11" lengthAdjust="spacingAndGlyphs" textLength="101" x="1272.5" y="515.2573">tempLabel : Label</text><rect fill="none" height="6" style="stroke: #C82930; stroke-width: 1.0;" width="6" x="1260.5" y="522.7539"/><text fill="#000000" font-family="sans-serif" font-size="11" lengthAdjust="spacingAndGlyphs" textLength="319" x="1272.5" y="528.062">temperatureColumn : TableColumn&lt;Monitoring, String&gt;</text><rect fill="none" height="6" style="stroke: #C82930; stroke-width: 1.0;" width="6" x="1260.5" y="535.5586"/><text fill="#000000" font-family="sans-serif" font-size="11" lengthAdjust="spacingAndGlyphs" textLength="123" x="1272.5" y="540.8667">xbpAxis : NumberAxis</text><rect fill="none" height="6" style="stroke: #C82930; stroke-width: 1.0;" width="6" x="1260.5" y="548.3633"/><text fill="#000000" font-family="sans-serif" font-size="11" lengthAdjust="spacingAndGlyphs" textLength="121" x="1272.5" y="553.6714">xhrAxis : NumberAxis</text><rect fill="none" height="6" style="stroke: #C82930; stroke-width: 1.0;" width="6" x="1260.5" y="561.168"/><text fill="#000000" font-family="sans-serif" font-size="11" lengthAdjust="spacingAndGlyphs" textLength="123" x="1272.5" y="566.4761">ybpAxis : NumberAxis</text><rect fill="none" height="6" style="stroke: #C82930; stroke-width: 1.0;" width="6" x="1260.5" y="573.9727"/><text fill="#000000" font-family="sans-serif" font-size="11" lengthAdjust="spacingAndGlyphs" textLength="121" x="1272.5" y="579.2808">yhrAxis : NumberAxis</text><line style="stroke: #A80036; stroke-width: 1.5;" x1="1253.5" x2="1596.5" y1="585.875" y2="585.875"/><ellipse cx="1263.5" cy="597.7773" fill="#84BE84" rx="3" ry="3" style="stroke: #038048; stroke-width: 1.0;"/><text fill="#000000" font-family="sans-serif" font-size="11" lengthAdjust="spacingAndGlyphs" textLength="123" x="1272.5" y="600.0854">MonitoringController()</text><ellipse cx="1263.5" cy="610.582" fill="#84BE84" rx="3" ry="3" style="stroke: #038048; stroke-width: 1.0;"/><text fill="#000000" font-family="sans-serif" font-size="11" lengthAdjust="spacingAndGlyphs" textLength="53" x="1272.5" y="612.8901">initialize()</text><polygon fill="#FFFF44" points="1263.5,618.3867,1267.5,622.3867,1263.5,626.3867,1259.5,622.3867" style="stroke: #B38D22; stroke-width: 1.0;"/><text fill="#000000" font-family="sans-serif" font-size="11" lengthAdjust="spacingAndGlyphs" textLength="91" x="1272.5" y="625.6948">buttonPressed()</text><polygon fill="#FFFF44" points="1263.5,631.1914,1267.5,635.1914,1263.5,639.1914,1259.5,635.1914" style="stroke: #B38D22; stroke-width: 1.0;"/><text fill="#000000" font-family="sans-serif" font-size="11" lengthAdjust="spacingAndGlyphs" textLength="57" x="1272.5" y="638.4995">clearInfo()</text><polygon fill="#FFFF44" points="1263.5,643.9961,1267.5,647.9961,1263.5,651.9961,1259.5,647.9961" style="stroke: #B38D22; stroke-width: 1.0;"/><text fill="#000000" font-family="sans-serif" font-size="11" lengthAdjust="spacingAndGlyphs" textLength="38" x="1272.5" y="651.3042">close()</text><polygon fill="#FFFF44" points="1263.5,656.8008,1267.5,660.8008,1263.5,664.8008,1259.5,660.8008" style="stroke: #B38D22; stroke-width: 1.0;"/><text fill="#000000" font-family="sans-serif" font-size="11" lengthAdjust="spacingAndGlyphs" textLength="35" x="1272.5" y="664.1089">login()</text><polygon fill="#FFFF44" points="1263.5,669.6055,1267.5,673.6055,1263.5,677.6055,1259.5,673.6055" style="stroke: #B38D22; stroke-width: 1.0;"/><text fill="#000000" font-family="sans-serif" font-size="11" lengthAdjust="spacingAndGlyphs" textLength="47" x="1272.5" y="676.9136">setInfo()</text><polygon fill="#FFFF44" points="1263.5,682.4102,1267.5,686.4102,1263.5,690.4102,1259.5,686.4102" style="stroke: #B38D22; stroke-width: 1.0;"/><text fill="#000000" font-family="sans-serif" font-size="11" lengthAdjust="spacingAndGlyphs" textLength="88" x="1272.5" y="689.7183">setRoomLabel()</text><polygon fill="#FFFF44" points="1263.5,695.2148,1267.5,699.2148,1263.5,703.2148,1259.5,699.2148" style="stroke: #B38D22; stroke-width: 1.0;"/><text fill="#000000" font-family="sans-serif" font-size="11" lengthAdjust="spacingAndGlyphs" textLength="127" x="1272.5" y="702.5229">showAlarmController()</text><polygon fill="#FFFF44" points="1263.5,708.0195,1267.5,712.0195,1263.5,716.0195,1259.5,712.0195" style="stroke: #B38D22; stroke-width: 1.0;"/><text fill="#000000" font-family="sans-serif" font-size="11" lengthAdjust="spacingAndGlyphs" textLength="83" x="1272.5" y="715.3276">showSupport()</text><polygon fill="#FFFF44" points="1263.5,720.8242,1267.5,724.8242,1263.5,728.8242,1259.5,724.8242" style="stroke: #B38D22; stroke-width: 1.0;"/><text fill="#000000" font-family="sans-serif" font-size="11" lengthAdjust="spacingAndGlyphs" textLength="69" x="1272.5" y="728.1323">updateBed()</text><!--class System.Sistema--><rect fill="#FEFECE" filter="url(#f1tmbdpjb6k8x9)" height="48" id="System.Sistema" style="stroke: #A80036; stroke-width: 1.5;" width="82" x="705" y="816.9063"/><ellipse cx="720" cy="832.9063" fill="#ADD1B2" rx="11" ry="11" style="stroke: #A80036; stroke-width: 1.0;"/><path d="M722.9688,838.5469 Q722.3906,838.8438 721.75,838.9922 Q721.1094,839.1406 720.4063,839.1406 Q717.9063,839.1406 716.5859,837.4922 Q715.2656,835.8438 715.2656,832.7188 Q715.2656,829.5938 716.5859,827.9375 Q717.9063,826.2813 720.4063,826.2813 Q721.1094,826.2813 721.7578,826.4375 Q722.4063,826.5938 722.9688,826.8906 L722.9688,829.6094 Q722.3438,829.0313 721.75,828.7578 Q721.1563,828.4844 720.5313,828.4844 Q719.1875,828.4844 718.5,829.5547 Q717.8125,830.625 717.8125,832.7188 Q717.8125,834.8125 718.5,835.8828 Q719.1875,836.9531 720.5313,836.9531 Q721.1563,836.9531 721.75,836.6797 Q722.3438,836.4063 722.9688,835.8281 L722.9688,838.5469 Z "/><text fill="#000000" font-family="sans-serif" font-size="12" lengthAdjust="spacingAndGlyphs" textLength="50" x="734" y="837.0605">Sistema</text><line style="stroke: #A80036; stroke-width: 1.5;" x1="706" x2="786" y1="848.9063" y2="848.9063"/><line style="stroke: #A80036; stroke-width: 1.5;" x1="706" x2="786" y1="856.9063" y2="856.9063"/><!--link InterfaceController.AlarmControlController to System.Sistema--><path d="M135.4873,497.9631 C147.6498,574.1862 177.2093,681.5549 249,742.9063 C317.9474,801.8278 598.3979,829.4187 704.7973,837.9173 " fill="none" id="InterfaceController.AlarmControlController-System.Sistema" style="stroke: #A80036; stroke-width: 1.0;"/><polygon fill="#FFFFFF" points="133.5463,485.062,130.4835,491.5903,135.3317,496.9284,138.3945,490.4,133.5463,485.062" style="stroke: #A80036; stroke-width: 1.0;"/><text fill="#000000" font-family="sans-serif" font-size="13" lengthAdjust="spacingAndGlyphs" textLength="21" x="334" y="777.9731">sys</text><!--link InterfaceController.AlarmLoggedControlController to System.Sistema--><path d="M386.9602,485.5984 C401.43,559.9714 433.7086,672.2865 503,742.9063 C558.5936,799.5657 651.3036,824.5165 704.6991,834.6606 " fill="none" id="InterfaceController.AlarmLoggedControlController-System.Sistema" style="stroke: #A80036; stroke-width: 1.0;"/><polygon fill="#FFFFFF" points="384.5423,472.6297,381.7098,479.2612,386.7417,484.4264,389.5743,477.7949,384.5423,472.6297" style="stroke: #A80036; stroke-width: 1.0;"/><text fill="#000000" font-family="sans-serif" font-size="13" lengthAdjust="spacingAndGlyphs" textLength="21" x="554" y="777.9731">sys</text><!--link InterfaceController.AlarmsController to System.Sistema--><path d="M651.4451,504.1033 C679.7178,604.8101 722.7057,757.9325 739.2158,816.7412 " fill="none" id="InterfaceController.AlarmsController-System.Sistema" style="stroke: #A80036; stroke-width: 1.0;"/><polygon fill="#FFFFFF" points="647.9014,491.4808,645.6721,498.3386,651.145,503.0341,653.3743,496.1762,647.9014,491.4808" style="stroke: #A80036; stroke-width: 1.0;"/><text fill="#000000" font-family="sans-serif" font-size="13" lengthAdjust="spacingAndGlyphs" textLength="21" x="729" y="777.9731">sys</text><!--link InterfaceController.ErrorController to System.Sistema--><path d="M847.5074,485.2176 C819.165,584.5315 770.7949,754.0235 752.9116,816.6877 " fill="none" id="InterfaceController.ErrorController-System.Sistema" style="stroke: #A80036; stroke-width: 1.0;"/><polygon fill="#FFFFFF" points="851.1147,472.5774,845.6216,477.2492,847.8214,484.1166,853.3145,479.4447,851.1147,472.5774" style="stroke: #A80036; stroke-width: 1.0;"/><text fill="#000000" font-family="sans-serif" font-size="13" lengthAdjust="spacingAndGlyphs" textLength="21" x="767" y="777.9731">sys</text><!--link InterfaceController.LoginController to System.Sistema--><path d="M1099.7535,504.4003 C1084.8908,577.9125 1054.023,678.0074 991,742.9063 C935.1487,800.42 841.168,825.0971 787.2873,834.9553 " fill="none" id="InterfaceController.LoginController-System.Sistema" style="stroke: #A80036; stroke-width: 1.0;"/><polygon fill="#FFFFFF" points="1102.261,491.4598,1097.1926,496.5892,1099.9781,503.2406,1105.0465,498.1111,1102.261,491.4598" style="stroke: #A80036; stroke-width: 1.0;"/><text fill="#000000" font-family="sans-serif" font-size="13" lengthAdjust="spacingAndGlyphs" textLength="21" x="965" y="777.9731">sys</text><!--link InterfaceController.MonitoringController to System.Sistema--><path d="M1242.1575,737.5648 C1239.7979,739.3847 1237.4121,741.1659 1235,742.9063 C1162.8549,794.9626 891.4335,826.5936 787.1567,837.0473 " fill="none" id="InterfaceController.MonitoringController-System.Sistema" style="stroke: #A80036; stroke-width: 1.0;"/><polygon fill="#FFFFFF" points="1252.3368,729.3429,1245.1558,730.0012,1243.0016,736.883,1250.1826,736.2247,1252.3368,729.3429" style="stroke: #A80036; stroke-width: 1.0;"/><text fill="#000000" font-family="sans-serif" font-size="13" lengthAdjust="spacingAndGlyphs" textLength="21" x="1182" y="777.9731">sys</text><!--
@startuml
title __INTERFACECONTROLLER's Class Diagram__\n

      class InterfaceController.AlarmControlController {
          ~ stream : Subject<StateEvent>
          - dis : Disposable
          - messageLabel : Label
          - passField : PasswordField
          - store : Store<StringCommand>
          - userField : TextField
          + AlarmControlController()
          # login()
      }


      class InterfaceController.AlarmLoggedControlController {
          - dis : Disposable
          - messageLabel : Label
          - store : Store<StringCommand>
          - stream : Subject<StateEvent>
          + AlarmLoggedControlController()
          # login()
      }


      class InterfaceController.AlarmsController {
          - store : Store<StringCommand>
          + AlarmsController()
          # aritmia()
          # flutter()
          # ipertensione()
          # ipertermia()
          # ipotensione()
          # ipotermia()
          # tachicardia()
      }


      class InterfaceController.ErrorController {
          - areAlarmsActive : boolean
          - dis : Disposable
          - errorText : Label
          - store : Store<StringCommand>
          + ErrorController()
          # close()
      }


      class InterfaceController.LoginController {
          - passField : PasswordField
          - store : Store<StringCommand>
          - userField : TextField
          + LoginController()
          # buttonPressed()
          # close()
          # login()
          # showSupport()
          # startMonitoring()
      }


      class InterfaceController.MonitoringController {
          - bed0 : Button
          - bed1 : Button
          - bed2 : Button
          - bed3 : Button
          - bed4 : Button
          - bed5 : Button
          - bed6 : Button
          - bed7 : Button
          - bed8 : Button
          - bed9 : Button
          - bedRooms : ArrayList<Button>
          - bpGraphic : LineChart
          - counterBP : int
          - counterHR : int
          - dbpLabel : Label
          - dis : Disposable
          - hrGraphic : LineChart
          - hrLabel : Label
          - nameLabel : Label
          - recoveryId : int
          - room : int
          - roomLabel : Label
          - sbpLabel : Label
          - seriesD : Series
          - seriesHR : Series
          - seriesS : Series
          - store : Store<StringCommand>
          - stream : Subject<StateEvent>
          - surnameLabel : Label
          - table : TableView<Monitoring>
          - tempLabel : Label
          - temperatureColumn : TableColumn<Monitoring, String>
          - xbpAxis : NumberAxis
          - xhrAxis : NumberAxis
          - ybpAxis : NumberAxis
          - yhrAxis : NumberAxis
          + MonitoringController()
          + initialize()
          # buttonPressed()
          # clearInfo()
          # close()
          # login()
          # setInfo()
          # setRoomLabel()
          # showAlarmController()
          # showSupport()
          # updateBed()
      }

  InterfaceController.AlarmControlController o- - System.Sistema : sys
  InterfaceController.AlarmLoggedControlController o- - System.Sistema : sys
  InterfaceController.AlarmsController o- - System.Sistema : sys
  InterfaceController.ErrorController o- - System.Sistema : sys
  InterfaceController.LoginController o- - System.Sistema : sys
  InterfaceController.MonitoringController o- - System.Sistema : sys
@enduml

PlantUML version 1.2019.04(Fri Mar 29 15:44:36 UTC 2019)
(GPL source distribution)
Java Runtime: OpenJDK Runtime Environment
JVM: OpenJDK 64-Bit Server VM
Java Version: 1.8.0_201-heroku-b09
Operating System: Linux
OS Version: 4.4.0-1046-aws
Default Encoding: UTF-8
Language: en
Country: US
--></g></svg>