<?xml version="1.0" encoding="UTF-8" standalone="no"?><svg xmlns="http://www.w3.org/2000/svg" xmlns:xlink="http://www.w3.org/1999/xlink" contentScriptType="application/ecmascript" contentStyleType="text/css" height="824px" preserveAspectRatio="none" style="width:489px;height:824px;" version="1.1" viewBox="0 0 489 824" width="489px" zoomAndPan="magnify"><defs><filter height="300%" id="fyuukwy2dj766" width="300%" x="-1" y="-1"><feGaussianBlur result="blurOut" stdDeviation="2.0"/><feColorMatrix in="blurOut" result="blurOut2" type="matrix" values="0 0 0 0 0 0 0 0 0 0 0 0 0 0 0 0 0 0 .4 0"/><feOffset dx="4.0" dy="4.0" in="blurOut2" result="blurOut3"/><feBlend in="SourceGraphic" in2="blurOut3" mode="normal"/></filter></defs><g><text fill="#000000" font-family="sans-serif" font-size="18" lengthAdjust="spacingAndGlyphs" text-decoration="underline" textLength="216" x="138.5" y="16.708">SYSTEM's Class Diagram</text><text fill="#000000" font-family="sans-serif" font-size="18" lengthAdjust="spacingAndGlyphs" textLength="0" x="249.5" y="37.6611"/><!--cluster System--><polygon fill="#FFFFFF" filter="url(#fyuukwy2dj766)" points="14,171.9063,78,171.9063,85,194.2031,467,194.2031,467,812.9063,14,812.9063,14,171.9063" style="stroke: #000000; stroke-width: 1.5;"/><line style="stroke: #000000; stroke-width: 1.5;" x1="14" x2="85" y1="194.2031" y2="194.2031"/><text fill="#000000" font-family="sans-serif" font-size="14" font-weight="bold" lengthAdjust="spacingAndGlyphs" textLength="58" x="18" y="186.9014">System</text><!--cluster javafx.application--><polygon fill="#FFFFFF" filter="url(#fyuukwy2dj766)" points="305,57.9063,447,57.9063,454,80.2031,457,80.2031,457,140.9063,305,140.9063,305,57.9063" style="stroke: #000000; stroke-width: 1.5;"/><line style="stroke: #000000; stroke-width: 1.5;" x1="305" x2="454" y1="80.2031" y2="80.2031"/><text fill="#000000" font-family="sans-serif" font-size="14" font-weight="bold" lengthAdjust="spacingAndGlyphs" textLength="136" x="309" y="72.9014">javafx.application</text><!--class System.InterfacesController--><rect fill="#FEFECE" filter="url(#fyuukwy2dj766)" height="150.4375" id="System.InterfacesController" style="stroke: #A80036; stroke-width: 1.5;" width="235" x="22.5" y="654.9063"/><ellipse cx="73.75" cy="670.9063" fill="#ADD1B2" rx="11" ry="11" style="stroke: #A80036; stroke-width: 1.0;"/><path d="M76.7188,676.5469 Q76.1406,676.8438 75.5,676.9922 Q74.8594,677.1406 74.1563,677.1406 Q71.6563,677.1406 70.3359,675.4922 Q69.0156,673.8438 69.0156,670.7188 Q69.0156,667.5938 70.3359,665.9375 Q71.6563,664.2813 74.1563,664.2813 Q74.8594,664.2813 75.5078,664.4375 Q76.1563,664.5938 76.7188,664.8906 L76.7188,667.6094 Q76.0938,667.0313 75.5,666.7578 Q74.9063,666.4844 74.2813,666.4844 Q72.9375,666.4844 72.25,667.5547 Q71.5625,668.625 71.5625,670.7188 Q71.5625,672.8125 72.25,673.8828 Q72.9375,674.9531 74.2813,674.9531 Q74.9063,674.9531 75.5,674.6797 Q76.0938,674.4063 76.7188,673.8281 L76.7188,676.5469 Z "/><text fill="#000000" font-family="sans-serif" font-size="12" lengthAdjust="spacingAndGlyphs" textLength="124" x="94.25" y="675.0605">InterfacesController</text><line style="stroke: #A80036; stroke-width: 1.5;" x1="23.5" x2="256.5" y1="686.9063" y2="686.9063"/><rect fill="none" height="6" style="stroke: #C82930; stroke-width: 1.0;" width="6" x="30.5" y="695.8086"/><text fill="#000000" font-family="sans-serif" font-size="11" lengthAdjust="spacingAndGlyphs" textLength="209" x="42.5" y="701.1167">interfaces : HashMap&lt;String, Pane&gt;</text><rect fill="none" height="6" style="stroke: #C82930; stroke-width: 1.0;" width="6" x="30.5" y="708.6133"/><text fill="#000000" font-family="sans-serif" font-size="11" lengthAdjust="spacingAndGlyphs" textLength="73" x="42.5" y="713.9214">main : Stage</text><line style="stroke: #A80036; stroke-width: 1.5;" x1="23.5" x2="256.5" y1="720.5156" y2="720.5156"/><ellipse cx="33.5" cy="732.418" fill="#84BE84" rx="3" ry="3" style="stroke: #038048; stroke-width: 1.0;"/><text fill="#000000" font-family="sans-serif" font-size="11" lengthAdjust="spacingAndGlyphs" textLength="121" x="42.5" y="734.7261">InterfacesController()</text><ellipse cx="33.5" cy="745.2227" fill="#84BE84" rx="3" ry="3" style="stroke: #038048; stroke-width: 1.0;"/><text fill="#000000" font-family="sans-serif" font-size="11" lengthAdjust="spacingAndGlyphs" textLength="52" x="42.5" y="747.5308">activate()</text><ellipse cx="33.5" cy="758.0273" fill="#84BE84" rx="3" ry="3" style="stroke: #038048; stroke-width: 1.0;"/><text fill="#000000" font-family="sans-serif" font-size="11" lengthAdjust="spacingAndGlyphs" textLength="79" x="42.5" y="760.3354">addInterface()</text><ellipse cx="33.5" cy="770.832" fill="#84BE84" rx="3" ry="3" style="stroke: #038048; stroke-width: 1.0;"/><text fill="#000000" font-family="sans-serif" font-size="11" lengthAdjust="spacingAndGlyphs" textLength="66" x="42.5" y="773.1401">deactivate()</text><ellipse cx="33.5" cy="783.6367" fill="#84BE84" rx="3" ry="3" style="stroke: #038048; stroke-width: 1.0;"/><text fill="#000000" font-family="sans-serif" font-size="11" lengthAdjust="spacingAndGlyphs" textLength="76" x="42.5" y="785.9448">getInterface()</text><ellipse cx="33.5" cy="796.4414" fill="#84BE84" rx="3" ry="3" style="stroke: #038048; stroke-width: 1.0;"/><text fill="#000000" font-family="sans-serif" font-size="11" lengthAdjust="spacingAndGlyphs" textLength="48" x="42.5" y="798.7495">toFront()</text><!--class System.Main--><rect fill="#FEFECE" filter="url(#fyuukwy2dj766)" height="73.6094" id="System.Main" style="stroke: #A80036; stroke-width: 1.5;" width="62" x="350" y="320.4063"/><ellipse cx="365.45" cy="336.4063" fill="#ADD1B2" rx="11" ry="11" style="stroke: #A80036; stroke-width: 1.0;"/><path d="M368.4188,342.0469 Q367.8406,342.3438 367.2,342.4922 Q366.5594,342.6406 365.8563,342.6406 Q363.3563,342.6406 362.0359,340.9922 Q360.7156,339.3438 360.7156,336.2188 Q360.7156,333.0938 362.0359,331.4375 Q363.3563,329.7813 365.8563,329.7813 Q366.5594,329.7813 367.2078,329.9375 Q367.8563,330.0938 368.4188,330.3906 L368.4188,333.1094 Q367.7938,332.5313 367.2,332.2578 Q366.6063,331.9844 365.9813,331.9844 Q364.6375,331.9844 363.95,333.0547 Q363.2625,334.125 363.2625,336.2188 Q363.2625,338.3125 363.95,339.3828 Q364.6375,340.4531 365.9813,340.4531 Q366.6063,340.4531 367.2,340.1797 Q367.7938,339.9063 368.4188,339.3281 L368.4188,342.0469 Z "/><text fill="#000000" font-family="sans-serif" font-size="12" lengthAdjust="spacingAndGlyphs" textLength="29" x="379.55" y="340.5605">Main</text><line style="stroke: #A80036; stroke-width: 1.5;" x1="351" x2="411" y1="352.4063" y2="352.4063"/><line style="stroke: #A80036; stroke-width: 1.5;" x1="351" x2="411" y1="360.4063" y2="360.4063"/><ellipse cx="361" cy="372.3086" fill="#84BE84" rx="3" ry="3" style="stroke: #038048; stroke-width: 1.0;"/><text fill="#000000" font-family="sans-serif" font-size="11" lengthAdjust="spacingAndGlyphs" text-decoration="underline" textLength="36" x="370" y="374.6167">main()</text><ellipse cx="361" cy="385.1133" fill="#84BE84" rx="3" ry="3" style="stroke: #038048; stroke-width: 1.0;"/><text fill="#000000" font-family="sans-serif" font-size="11" lengthAdjust="spacingAndGlyphs" textLength="35" x="370" y="387.4214">start()</text><!--class System.Sistema--><rect fill="#FEFECE" filter="url(#fyuukwy2dj766)" height="316.8984" id="System.Sistema" style="stroke: #A80036; stroke-width: 1.5;" width="209" x="65.5" y="198.9063"/><ellipse cx="140.75" cy="214.9063" fill="#ADD1B2" rx="11" ry="11" style="stroke: #A80036; stroke-width: 1.0;"/><path d="M143.7188,220.5469 Q143.1406,220.8438 142.5,220.9922 Q141.8594,221.1406 141.1563,221.1406 Q138.6563,221.1406 137.3359,219.4922 Q136.0156,217.8438 136.0156,214.7188 Q136.0156,211.5938 137.3359,209.9375 Q138.6563,208.2813 141.1563,208.2813 Q141.8594,208.2813 142.5078,208.4375 Q143.1563,208.5938 143.7188,208.8906 L143.7188,211.6094 Q143.0938,211.0313 142.5,210.7578 Q141.9063,210.4844 141.2813,210.4844 Q139.9375,210.4844 139.25,211.5547 Q138.5625,212.625 138.5625,214.7188 Q138.5625,216.8125 139.25,217.8828 Q139.9375,218.9531 141.2813,218.9531 Q141.9063,218.9531 142.5,218.6797 Q143.0938,218.4063 143.7188,217.8281 L143.7188,220.5469 Z "/><text fill="#000000" font-family="sans-serif" font-size="12" lengthAdjust="spacingAndGlyphs" textLength="50" x="161.25" y="219.0605">Sistema</text><line style="stroke: #A80036; stroke-width: 1.5;" x1="66.5" x2="273.5" y1="230.9063" y2="230.9063"/><rect fill="none" height="6" style="stroke: #C82930; stroke-width: 1.0;" width="6" x="73.5" y="239.8086"/><text fill="#000000" font-family="sans-serif" font-size="11" lengthAdjust="spacingAndGlyphs" textLength="152" x="85.5" y="245.1167">alarmControlStage : Stage</text><rect fill="none" height="6" style="stroke: #C82930; stroke-width: 1.0;" width="6" x="73.5" y="252.6133"/><text fill="#000000" font-family="sans-serif" font-size="11" lengthAdjust="spacingAndGlyphs" textLength="153" x="85.5" y="257.9214">alarmCtlIsShown : boolean</text><rect fill="none" height="6" style="stroke: #C82930; stroke-width: 1.0;" width="6" x="73.5" y="265.418"/><text fill="#000000" font-family="sans-serif" font-size="11" lengthAdjust="spacingAndGlyphs" textLength="111" x="85.5" y="270.7261">alarmStage : Stage</text><rect fill="none" height="6" style="stroke: #C82930; stroke-width: 1.0;" width="6" x="73.5" y="278.2227"/><text fill="#000000" font-family="sans-serif" font-size="11" lengthAdjust="spacingAndGlyphs" textLength="107" x="85.5" y="283.5308">errorStage : Stage</text><rect fill="none" height="6" style="stroke: #C82930; stroke-width: 1.0;" width="6" x="73.5" y="291.0273"/><text fill="#000000" font-family="sans-serif" font-size="11" lengthAdjust="spacingAndGlyphs" textLength="150" x="85.5" y="296.3354">mediaPlayer : MediaPlayer</text><rect fill="none" height="6" style="stroke: #C82930; stroke-width: 1.0;" width="6" x="73.5" y="303.832"/><text fill="#000000" font-family="sans-serif" font-size="11" lengthAdjust="spacingAndGlyphs" textLength="139" x="85.5" y="309.1401">monitoringStage : Stage</text><rect fill="none" height="6" style="stroke: #C82930; stroke-width: 1.0;" width="6" x="73.5" y="316.6367"/><text fill="#000000" font-family="sans-serif" font-size="11" lengthAdjust="spacingAndGlyphs" textLength="102" x="85.5" y="321.9448">random : Random</text><rect fill="none" height="6" style="stroke: #C82930; stroke-width: 1.0;" width="6" x="73.5" y="329.4414"/><text fill="#000000" font-family="sans-serif" font-size="11" lengthAdjust="spacingAndGlyphs" text-decoration="underline" textLength="66" x="85.5" y="334.7495">s : Sistema</text><rect fill="none" height="6" style="stroke: #C82930; stroke-width: 1.0;" width="6" x="73.5" y="342.2461"/><text fill="#000000" font-family="sans-serif" font-size="11" lengthAdjust="spacingAndGlyphs" textLength="113" x="85.5" y="347.5542">selectedPatient : int</text><rect fill="none" height="6" style="stroke: #C82930; stroke-width: 1.0;" width="6" x="73.5" y="355.0508"/><text fill="#000000" font-family="sans-serif" font-size="11" lengthAdjust="spacingAndGlyphs" textLength="80" x="85.5" y="360.3589">sound : Media</text><rect fill="none" height="6" style="stroke: #C82930; stroke-width: 1.0;" width="6" x="73.5" y="367.8555"/><text fill="#000000" font-family="sans-serif" font-size="11" lengthAdjust="spacingAndGlyphs" textLength="183" x="85.5" y="373.1636">store : Store&lt;StringCommand&gt;</text><line style="stroke: #A80036; stroke-width: 1.5;" x1="66.5" x2="273.5" y1="379.7578" y2="379.7578"/><ellipse cx="76.5" cy="391.6602" fill="#84BE84" rx="3" ry="3" style="stroke: #038048; stroke-width: 1.0;"/><text fill="#000000" font-family="sans-serif" font-size="11" lengthAdjust="spacingAndGlyphs" textLength="72" x="85.5" y="393.9683">endSystem()</text><ellipse cx="76.5" cy="404.4648" fill="#84BE84" rx="3" ry="3" style="stroke: #038048; stroke-width: 1.0;"/><text fill="#000000" font-family="sans-serif" font-size="11" lengthAdjust="spacingAndGlyphs" text-decoration="underline" textLength="74" x="85.5" y="406.7729">getInstance()</text><ellipse cx="76.5" cy="417.2695" fill="#84BE84" rx="3" ry="3" style="stroke: #038048; stroke-width: 1.0;"/><text fill="#000000" font-family="sans-serif" font-size="11" lengthAdjust="spacingAndGlyphs" textLength="76" x="85.5" y="419.5776">getInterface()</text><ellipse cx="76.5" cy="430.0742" fill="#84BE84" rx="3" ry="3" style="stroke: #038048; stroke-width: 1.0;"/><text fill="#000000" font-family="sans-serif" font-size="11" lengthAdjust="spacingAndGlyphs" textLength="118" x="85.5" y="432.3823">getMonitoringStage()</text><ellipse cx="76.5" cy="442.8789" fill="#84BE84" rx="3" ry="3" style="stroke: #038048; stroke-width: 1.0;"/><text fill="#000000" font-family="sans-serif" font-size="11" lengthAdjust="spacingAndGlyphs" textLength="88" x="85.5" y="445.187">getSickPatient()</text><ellipse cx="76.5" cy="455.6836" fill="#84BE84" rx="3" ry="3" style="stroke: #038048; stroke-width: 1.0;"/><text fill="#000000" font-family="sans-serif" font-size="11" lengthAdjust="spacingAndGlyphs" textLength="57" x="85.5" y="457.9917">getStore()</text><ellipse cx="76.5" cy="468.4883" fill="#84BE84" rx="3" ry="3" style="stroke: #038048; stroke-width: 1.0;"/><text fill="#000000" font-family="sans-serif" font-size="11" lengthAdjust="spacingAndGlyphs" textLength="76" x="85.5" y="470.7964">setInterface()</text><ellipse cx="76.5" cy="481.293" fill="#84BE84" rx="3" ry="3" style="stroke: #038048; stroke-width: 1.0;"/><text fill="#000000" font-family="sans-serif" font-size="11" lengthAdjust="spacingAndGlyphs" textLength="51" x="85.5" y="483.6011">setupUI()</text><rect fill="#F24D5C" height="6" style="stroke: #C82930; stroke-width: 1.0;" width="6" x="73.5" y="491.0977"/><text fill="#000000" font-family="sans-serif" font-size="11" lengthAdjust="spacingAndGlyphs" textLength="55" x="85.5" y="496.4058">Sistema()</text><rect fill="#F24D5C" height="6" style="stroke: #C82930; stroke-width: 1.0;" width="6" x="73.5" y="503.9023"/><text fill="#000000" font-family="sans-serif" font-size="11" lengthAdjust="spacingAndGlyphs" textLength="55" x="85.5" y="509.2104">createUI()</text><!--class System.Sistema.MediaThread--><rect fill="#FEFECE" filter="url(#fyuukwy2dj766)" height="73.6094" id="System.Sistema.MediaThread" style="stroke: #A80036; stroke-width: 1.5;" width="167" x="292.5" y="692.9063"/><ellipse cx="307.5" cy="708.9063" fill="#ADD1B2" rx="11" ry="11" style="stroke: #A80036; stroke-width: 1.0;"/><path d="M310.4688,714.5469 Q309.8906,714.8438 309.25,714.9922 Q308.6094,715.1406 307.9063,715.1406 Q305.4063,715.1406 304.0859,713.4922 Q302.7656,711.8438 302.7656,708.7188 Q302.7656,705.5938 304.0859,703.9375 Q305.4063,702.2813 307.9063,702.2813 Q308.6094,702.2813 309.2578,702.4375 Q309.9063,702.5938 310.4688,702.8906 L310.4688,705.6094 Q309.8438,705.0313 309.25,704.7578 Q308.6563,704.4844 308.0313,704.4844 Q306.6875,704.4844 306,705.5547 Q305.3125,706.625 305.3125,708.7188 Q305.3125,710.8125 306,711.8828 Q306.6875,712.9531 308.0313,712.9531 Q308.6563,712.9531 309.25,712.6797 Q309.8438,712.4063 310.4688,711.8281 L310.4688,714.5469 Z "/><text fill="#000000" font-family="sans-serif" font-size="12" lengthAdjust="spacingAndGlyphs" textLength="135" x="321.5" y="713.0605">Sistema.MediaThread</text><line style="stroke: #A80036; stroke-width: 1.5;" x1="293.5" x2="458.5" y1="724.9063" y2="724.9063"/><line style="stroke: #A80036; stroke-width: 1.5;" x1="293.5" x2="458.5" y1="732.9063" y2="732.9063"/><ellipse cx="303.5" cy="744.8086" fill="#84BE84" rx="3" ry="3" style="stroke: #038048; stroke-width: 1.0;"/><text fill="#000000" font-family="sans-serif" font-size="11" lengthAdjust="spacingAndGlyphs" textLength="27" x="312.5" y="747.1167">run()</text><rect fill="#F24D5C" height="6" style="stroke: #C82930; stroke-width: 1.0;" width="6" x="300.5" y="754.6133"/><text fill="#000000" font-family="sans-serif" font-size="11" lengthAdjust="spacingAndGlyphs" textLength="93" x="312.5" y="759.9214">interruptSound()</text><!--class javafx.application.Application--><rect fill="#FEFECE" filter="url(#fyuukwy2dj766)" height="48" id="javafx.application.Application" style="stroke: #A80036; stroke-width: 1.5;" width="101" x="330.5" y="84.9063"/><ellipse cx="345.5" cy="100.9063" fill="#ADD1B2" rx="11" ry="11" style="stroke: #A80036; stroke-width: 1.0;"/><path d="M348.4688,106.5469 Q347.8906,106.8438 347.25,106.9922 Q346.6094,107.1406 345.9063,107.1406 Q343.4063,107.1406 342.0859,105.4922 Q340.7656,103.8438 340.7656,100.7188 Q340.7656,97.5938 342.0859,95.9375 Q343.4063,94.2813 345.9063,94.2813 Q346.6094,94.2813 347.2578,94.4375 Q347.9063,94.5938 348.4688,94.8906 L348.4688,97.6094 Q347.8438,97.0313 347.25,96.7578 Q346.6563,96.4844 346.0313,96.4844 Q344.6875,96.4844 344,97.5547 Q343.3125,98.625 343.3125,100.7188 Q343.3125,102.8125 344,103.8828 Q344.6875,104.9531 346.0313,104.9531 Q346.6563,104.9531 347.25,104.6797 Q347.8438,104.4063 348.4688,103.8281 L348.4688,106.5469 Z "/><text fill="#000000" font-family="sans-serif" font-size="12" lengthAdjust="spacingAndGlyphs" textLength="69" x="359.5" y="105.0605">Application</text><line style="stroke: #A80036; stroke-width: 1.5;" x1="331.5" x2="430.5" y1="116.9063" y2="116.9063"/><line style="stroke: #A80036; stroke-width: 1.5;" x1="331.5" x2="430.5" y1="124.9063" y2="124.9063"/><!--link javafx.application.Application to System.Main--><path d="M381,153.2233 C381,200.8006 381,275.5481 381,320.1876 " fill="none" id="javafx.application.Application-System.Main" style="stroke: #A80036; stroke-width: 1.0;"/><polygon fill="none" points="374.0001,153.186,381,133.186,388.0001,153.1858,374.0001,153.186" style="stroke: #A80036; stroke-width: 1.0;"/><!--link System.Sistema to System.InterfacesController--><path d="M156.1851,528.9409 C152.6326,573.0521 148.9908,618.2709 146.0635,654.6173 " fill="none" id="System.Sistema-System.InterfacesController" style="stroke: #A80036; stroke-width: 1.0;"/><polygon fill="#FFFFFF" points="157.2338,515.92,152.765,521.5794,156.2704,527.8812,160.7392,522.2217,157.2338,515.92" style="stroke: #A80036; stroke-width: 1.0;"/><text fill="#000000" font-family="sans-serif" font-size="13" lengthAdjust="spacingAndGlyphs" textLength="60" x="153" y="589.9731">controller</text><!--link System.Sistema to System.Sistema.MediaThread--><path d="M264.0364,527.4479 C298.2816,589.3718 333.8583,653.7035 355.4704,692.7835 " fill="none" id="System.Sistema-System.Sistema.MediaThread" style="stroke: #A80036; stroke-width: 1.0;"/><polygon fill="#FFFFFF" points="257.6613,515.92,257.0646,523.1063,263.4686,526.4211,264.0654,519.2348,257.6613,515.92" style="stroke: #A80036; stroke-width: 1.0;"/><text fill="#000000" font-family="sans-serif" font-size="13" lengthAdjust="spacingAndGlyphs" textLength="18" x="301" y="589.9731">mt</text><!--
@startuml
title __SYSTEM's Class Diagram__\n

      class System.InterfacesController {
          - interfaces : HashMap<String, Pane>
          - main : Stage
          + InterfacesController()
          + activate()
          + addInterface()
          + deactivate()
          + getInterface()
          + toFront()
      }
  

      class System.Main {
          {static} + main()
          + start()
      }

      class System.Sistema {
          - alarmControlStage : Stage
          - alarmCtlIsShown : boolean
          - alarmStage : Stage
          - errorStage : Stage
          - mediaPlayer : MediaPlayer
          - monitoringStage : Stage
          - random : Random
          {static} - s : Sistema
          - selectedPatient : int
          - sound : Media
          - store : Store<StringCommand>
          + endSystem()
          {static} + getInstance()
          + getInterface()
          + getMonitoringStage()
          + getSickPatient()
          + getStore()
          + setInterface()
          + setupUI()
          - Sistema()
          - createUI()
      }
  
      class System.Sistema.MediaThread {
          + run()
          - interruptSound()
      }

  System.Main -up-|> javafx.application.Application
  System.Sistema o- - System.InterfacesController : controller
  System.Sistema o- - System.Sistema.MediaThread : mt
@enduml

PlantUML version 1.2019.04(Fri Mar 29 15:44:36 UTC 2019)
(GPL source distribution)
Java Runtime: OpenJDK Runtime Environment
JVM: OpenJDK 64-Bit Server VM
Java Version: 1.8.0_201-heroku-b09
Operating System: Linux
OS Version: 4.4.0-1046-aws
Default Encoding: UTF-8
Language: en
Country: US
--></g></svg>